<?xml version="1.0" encoding="utf-8" standalone="no"?>
<!DOCTYPE svg PUBLIC "-//W3C//DTD SVG 1.1//EN"
  "http://www.w3.org/Graphics/SVG/1.1/DTD/svg11.dtd">
<svg xmlns:xlink="http://www.w3.org/1999/xlink" width="856.61625pt" height="568.988062pt" viewBox="0 0 856.61625 568.988062" xmlns="http://www.w3.org/2000/svg" version="1.1">
 <metadata>
  <rdf:RDF xmlns:dc="http://purl.org/dc/elements/1.1/" xmlns:cc="http://creativecommons.org/ns#" xmlns:rdf="http://www.w3.org/1999/02/22-rdf-syntax-ns#">
   <cc:Work>
    <dc:type rdf:resource="http://purl.org/dc/dcmitype/StillImage"/>
    <dc:date>2025-10-04T15:45:17.763475</dc:date>
    <dc:format>image/svg+xml</dc:format>
    <dc:creator>
     <cc:Agent>
      <dc:title>Matplotlib v3.10.6, https://matplotlib.org/</dc:title>
     </cc:Agent>
    </dc:creator>
   </cc:Work>
  </rdf:RDF>
 </metadata>
 <defs>
  <style type="text/css">*{stroke-linejoin: round; stroke-linecap: butt}</style>
 </defs>
 <g id="figure_1">
  <g id="patch_1">
   <path d="M -0 568.988062 
L 856.61625 568.988062 
L 856.61625 0 
L -0 0 
z
" style="fill: #ffffff"/>
  </g>
  <g id="axes_1">
   <g id="patch_2">
    <path d="M 41.38375 532.359 
L 842.46625 532.359 
L 842.46625 41.787 
L 41.38375 41.787 
z
" style="fill: #ffffff"/>
   </g>
   <g id="matplotlib.axis_1">
    <g id="xtick_1">
     <g id="line2d_1">
      <path d="M 41.38375 532.359 
L 41.38375 41.787 
" clip-path="url(#p40cb5d17a3)" style="fill: none; stroke: #cccccc; stroke-opacity: 0.3; stroke-width: 0.8; stroke-linecap: round"/>
     </g>
     <g id="line2d_2"/>
     <g id="text_1">
      <!-- 0.0 -->
      <g style="fill: #262626" transform="translate(34.43375 543.016812) scale(0.1 -0.1)">
       <defs>
        <path id="ArialMT-30" d="M 266 2259 
Q 266 3072 433 3567 
Q 600 4063 929 4331 
Q 1259 4600 1759 4600 
Q 2128 4600 2406 4451 
Q 2684 4303 2865 4023 
Q 3047 3744 3150 3342 
Q 3253 2941 3253 2259 
Q 3253 1453 3087 958 
Q 2922 463 2592 192 
Q 2263 -78 1759 -78 
Q 1097 -78 719 397 
Q 266 969 266 2259 
z
M 844 2259 
Q 844 1131 1108 757 
Q 1372 384 1759 384 
Q 2147 384 2411 759 
Q 2675 1134 2675 2259 
Q 2675 3391 2411 3762 
Q 2147 4134 1753 4134 
Q 1366 4134 1134 3806 
Q 844 3388 844 2259 
z
" transform="scale(0.015625)"/>
        <path id="ArialMT-2e" d="M 581 0 
L 581 641 
L 1222 641 
L 1222 0 
L 581 0 
z
" transform="scale(0.015625)"/>
       </defs>
       <use xlink:href="#ArialMT-30"/>
       <use xlink:href="#ArialMT-2e" transform="translate(55.615234 0)"/>
       <use xlink:href="#ArialMT-30" transform="translate(83.398438 0)"/>
      </g>
     </g>
    </g>
    <g id="xtick_2">
     <g id="line2d_3">
      <path d="M 201.60025 532.359 
L 201.60025 41.787 
" clip-path="url(#p40cb5d17a3)" style="fill: none; stroke: #cccccc; stroke-opacity: 0.3; stroke-width: 0.8; stroke-linecap: round"/>
     </g>
     <g id="line2d_4"/>
     <g id="text_2">
      <!-- 0.2 -->
      <g style="fill: #262626" transform="translate(194.65025 543.016812) scale(0.1 -0.1)">
       <defs>
        <path id="ArialMT-32" d="M 3222 541 
L 3222 0 
L 194 0 
Q 188 203 259 391 
Q 375 700 629 1000 
Q 884 1300 1366 1694 
Q 2113 2306 2375 2664 
Q 2638 3022 2638 3341 
Q 2638 3675 2398 3904 
Q 2159 4134 1775 4134 
Q 1369 4134 1125 3890 
Q 881 3647 878 3216 
L 300 3275 
Q 359 3922 746 4261 
Q 1134 4600 1788 4600 
Q 2447 4600 2831 4234 
Q 3216 3869 3216 3328 
Q 3216 3053 3103 2787 
Q 2991 2522 2730 2228 
Q 2469 1934 1863 1422 
Q 1356 997 1212 845 
Q 1069 694 975 541 
L 3222 541 
z
" transform="scale(0.015625)"/>
       </defs>
       <use xlink:href="#ArialMT-30"/>
       <use xlink:href="#ArialMT-2e" transform="translate(55.615234 0)"/>
       <use xlink:href="#ArialMT-32" transform="translate(83.398438 0)"/>
      </g>
     </g>
    </g>
    <g id="xtick_3">
     <g id="line2d_5">
      <path d="M 361.81675 532.359 
L 361.81675 41.787 
" clip-path="url(#p40cb5d17a3)" style="fill: none; stroke: #cccccc; stroke-opacity: 0.3; stroke-width: 0.8; stroke-linecap: round"/>
     </g>
     <g id="line2d_6"/>
     <g id="text_3">
      <!-- 0.4 -->
      <g style="fill: #262626" transform="translate(354.86675 543.016812) scale(0.1 -0.1)">
       <defs>
        <path id="ArialMT-34" d="M 2069 0 
L 2069 1097 
L 81 1097 
L 81 1613 
L 2172 4581 
L 2631 4581 
L 2631 1613 
L 3250 1613 
L 3250 1097 
L 2631 1097 
L 2631 0 
L 2069 0 
z
M 2069 1613 
L 2069 3678 
L 634 1613 
L 2069 1613 
z
" transform="scale(0.015625)"/>
       </defs>
       <use xlink:href="#ArialMT-30"/>
       <use xlink:href="#ArialMT-2e" transform="translate(55.615234 0)"/>
       <use xlink:href="#ArialMT-34" transform="translate(83.398438 0)"/>
      </g>
     </g>
    </g>
    <g id="xtick_4">
     <g id="line2d_7">
      <path d="M 522.03325 532.359 
L 522.03325 41.787 
" clip-path="url(#p40cb5d17a3)" style="fill: none; stroke: #cccccc; stroke-opacity: 0.3; stroke-width: 0.8; stroke-linecap: round"/>
     </g>
     <g id="line2d_8"/>
     <g id="text_4">
      <!-- 0.6 -->
      <g style="fill: #262626" transform="translate(515.08325 543.016812) scale(0.1 -0.1)">
       <defs>
        <path id="ArialMT-36" d="M 3184 3459 
L 2625 3416 
Q 2550 3747 2413 3897 
Q 2184 4138 1850 4138 
Q 1581 4138 1378 3988 
Q 1113 3794 959 3422 
Q 806 3050 800 2363 
Q 1003 2672 1297 2822 
Q 1591 2972 1913 2972 
Q 2475 2972 2870 2558 
Q 3266 2144 3266 1488 
Q 3266 1056 3080 686 
Q 2894 316 2569 119 
Q 2244 -78 1831 -78 
Q 1128 -78 684 439 
Q 241 956 241 2144 
Q 241 3472 731 4075 
Q 1159 4600 1884 4600 
Q 2425 4600 2770 4297 
Q 3116 3994 3184 3459 
z
M 888 1484 
Q 888 1194 1011 928 
Q 1134 663 1356 523 
Q 1578 384 1822 384 
Q 2178 384 2434 671 
Q 2691 959 2691 1453 
Q 2691 1928 2437 2201 
Q 2184 2475 1800 2475 
Q 1419 2475 1153 2201 
Q 888 1928 888 1484 
z
" transform="scale(0.015625)"/>
       </defs>
       <use xlink:href="#ArialMT-30"/>
       <use xlink:href="#ArialMT-2e" transform="translate(55.615234 0)"/>
       <use xlink:href="#ArialMT-36" transform="translate(83.398438 0)"/>
      </g>
     </g>
    </g>
    <g id="xtick_5">
     <g id="line2d_9">
      <path d="M 682.24975 532.359 
L 682.24975 41.787 
" clip-path="url(#p40cb5d17a3)" style="fill: none; stroke: #cccccc; stroke-opacity: 0.3; stroke-width: 0.8; stroke-linecap: round"/>
     </g>
     <g id="line2d_10"/>
     <g id="text_5">
      <!-- 0.8 -->
      <g style="fill: #262626" transform="translate(675.29975 543.016812) scale(0.1 -0.1)">
       <defs>
        <path id="ArialMT-38" d="M 1131 2484 
Q 781 2613 612 2850 
Q 444 3088 444 3419 
Q 444 3919 803 4259 
Q 1163 4600 1759 4600 
Q 2359 4600 2725 4251 
Q 3091 3903 3091 3403 
Q 3091 3084 2923 2848 
Q 2756 2613 2416 2484 
Q 2838 2347 3058 2040 
Q 3278 1734 3278 1309 
Q 3278 722 2862 322 
Q 2447 -78 1769 -78 
Q 1091 -78 675 323 
Q 259 725 259 1325 
Q 259 1772 486 2073 
Q 713 2375 1131 2484 
z
M 1019 3438 
Q 1019 3113 1228 2906 
Q 1438 2700 1772 2700 
Q 2097 2700 2305 2904 
Q 2513 3109 2513 3406 
Q 2513 3716 2298 3927 
Q 2084 4138 1766 4138 
Q 1444 4138 1231 3931 
Q 1019 3725 1019 3438 
z
M 838 1322 
Q 838 1081 952 856 
Q 1066 631 1291 507 
Q 1516 384 1775 384 
Q 2178 384 2440 643 
Q 2703 903 2703 1303 
Q 2703 1709 2433 1975 
Q 2163 2241 1756 2241 
Q 1359 2241 1098 1978 
Q 838 1716 838 1322 
z
" transform="scale(0.015625)"/>
       </defs>
       <use xlink:href="#ArialMT-30"/>
       <use xlink:href="#ArialMT-2e" transform="translate(55.615234 0)"/>
       <use xlink:href="#ArialMT-38" transform="translate(83.398438 0)"/>
      </g>
     </g>
    </g>
    <g id="xtick_6">
     <g id="line2d_11">
      <path d="M 842.46625 532.359 
L 842.46625 41.787 
" clip-path="url(#p40cb5d17a3)" style="fill: none; stroke: #cccccc; stroke-opacity: 0.3; stroke-width: 0.8; stroke-linecap: round"/>
     </g>
     <g id="line2d_12"/>
     <g id="text_6">
      <!-- 1.0 -->
      <g style="fill: #262626" transform="translate(835.51625 543.016812) scale(0.1 -0.1)">
       <defs>
        <path id="ArialMT-31" d="M 2384 0 
L 1822 0 
L 1822 3584 
Q 1619 3391 1289 3197 
Q 959 3003 697 2906 
L 697 3450 
Q 1169 3672 1522 3987 
Q 1875 4303 2022 4600 
L 2384 4600 
L 2384 0 
z
" transform="scale(0.015625)"/>
       </defs>
       <use xlink:href="#ArialMT-31"/>
       <use xlink:href="#ArialMT-2e" transform="translate(55.615234 0)"/>
       <use xlink:href="#ArialMT-30" transform="translate(83.398438 0)"/>
      </g>
     </g>
    </g>
    <g id="text_7">
     <!-- Classification Threshold -->
     <g style="fill: #262626" transform="translate(360.638594 559.02525) scale(0.14 -0.14)">
      <defs>
       <path id="Arial-BoldMT-43" d="M 3397 1684 
L 4294 1400 
Q 4088 650 3608 286 
Q 3128 -78 2391 -78 
Q 1478 -78 890 545 
Q 303 1169 303 2250 
Q 303 3394 893 4026 
Q 1484 4659 2447 4659 
Q 3288 4659 3813 4163 
Q 4125 3869 4281 3319 
L 3366 3100 
Q 3284 3456 3026 3662 
Q 2769 3869 2400 3869 
Q 1891 3869 1573 3503 
Q 1256 3138 1256 2319 
Q 1256 1450 1568 1081 
Q 1881 713 2381 713 
Q 2750 713 3015 947 
Q 3281 1181 3397 1684 
z
" transform="scale(0.015625)"/>
       <path id="Arial-BoldMT-6c" d="M 459 0 
L 459 4581 
L 1338 4581 
L 1338 0 
L 459 0 
z
" transform="scale(0.015625)"/>
       <path id="Arial-BoldMT-61" d="M 1116 2306 
L 319 2450 
Q 453 2931 781 3162 
Q 1109 3394 1756 3394 
Q 2344 3394 2631 3255 
Q 2919 3116 3036 2902 
Q 3153 2688 3153 2116 
L 3144 1091 
Q 3144 653 3186 445 
Q 3228 238 3344 0 
L 2475 0 
Q 2441 88 2391 259 
Q 2369 338 2359 363 
Q 2134 144 1878 34 
Q 1622 -75 1331 -75 
Q 819 -75 523 203 
Q 228 481 228 906 
Q 228 1188 362 1408 
Q 497 1628 739 1745 
Q 981 1863 1438 1950 
Q 2053 2066 2291 2166 
L 2291 2253 
Q 2291 2506 2166 2614 
Q 2041 2722 1694 2722 
Q 1459 2722 1328 2630 
Q 1197 2538 1116 2306 
z
M 2291 1594 
Q 2122 1538 1756 1459 
Q 1391 1381 1278 1306 
Q 1106 1184 1106 997 
Q 1106 813 1243 678 
Q 1381 544 1594 544 
Q 1831 544 2047 700 
Q 2206 819 2256 991 
Q 2291 1103 2291 1419 
L 2291 1594 
z
" transform="scale(0.015625)"/>
       <path id="Arial-BoldMT-73" d="M 150 947 
L 1031 1081 
Q 1088 825 1259 692 
Q 1431 559 1741 559 
Q 2081 559 2253 684 
Q 2369 772 2369 919 
Q 2369 1019 2306 1084 
Q 2241 1147 2013 1200 
Q 950 1434 666 1628 
Q 272 1897 272 2375 
Q 272 2806 612 3100 
Q 953 3394 1669 3394 
Q 2350 3394 2681 3172 
Q 3013 2950 3138 2516 
L 2309 2363 
Q 2256 2556 2107 2659 
Q 1959 2763 1684 2763 
Q 1338 2763 1188 2666 
Q 1088 2597 1088 2488 
Q 1088 2394 1175 2328 
Q 1294 2241 1995 2081 
Q 2697 1922 2975 1691 
Q 3250 1456 3250 1038 
Q 3250 581 2869 253 
Q 2488 -75 1741 -75 
Q 1063 -75 667 200 
Q 272 475 150 947 
z
" transform="scale(0.015625)"/>
       <path id="Arial-BoldMT-69" d="M 459 3769 
L 459 4581 
L 1338 4581 
L 1338 3769 
L 459 3769 
z
M 459 0 
L 459 3319 
L 1338 3319 
L 1338 0 
L 459 0 
z
" transform="scale(0.015625)"/>
       <path id="Arial-BoldMT-66" d="M 75 3319 
L 563 3319 
L 563 3569 
Q 563 3988 652 4194 
Q 741 4400 980 4529 
Q 1219 4659 1584 4659 
Q 1959 4659 2319 4547 
L 2200 3934 
Q 1991 3984 1797 3984 
Q 1606 3984 1523 3895 
Q 1441 3806 1441 3553 
L 1441 3319 
L 2097 3319 
L 2097 2628 
L 1441 2628 
L 1441 0 
L 563 0 
L 563 2628 
L 75 2628 
L 75 3319 
z
" transform="scale(0.015625)"/>
       <path id="Arial-BoldMT-63" d="M 3353 2338 
L 2488 2181 
Q 2444 2441 2289 2572 
Q 2134 2703 1888 2703 
Q 1559 2703 1364 2476 
Q 1169 2250 1169 1719 
Q 1169 1128 1367 884 
Q 1566 641 1900 641 
Q 2150 641 2309 783 
Q 2469 925 2534 1272 
L 3397 1125 
Q 3263 531 2881 228 
Q 2500 -75 1859 -75 
Q 1131 -75 698 384 
Q 266 844 266 1656 
Q 266 2478 700 2936 
Q 1134 3394 1875 3394 
Q 2481 3394 2839 3133 
Q 3197 2872 3353 2338 
z
" transform="scale(0.015625)"/>
       <path id="Arial-BoldMT-74" d="M 1981 3319 
L 1981 2619 
L 1381 2619 
L 1381 1281 
Q 1381 875 1398 808 
Q 1416 741 1477 697 
Q 1538 653 1625 653 
Q 1747 653 1978 738 
L 2053 56 
Q 1747 -75 1359 -75 
Q 1122 -75 931 4 
Q 741 84 652 211 
Q 563 338 528 553 
Q 500 706 500 1172 
L 500 2619 
L 97 2619 
L 97 3319 
L 500 3319 
L 500 3978 
L 1381 4491 
L 1381 3319 
L 1981 3319 
z
" transform="scale(0.015625)"/>
       <path id="Arial-BoldMT-6f" d="M 256 1706 
Q 256 2144 472 2553 
Q 688 2963 1083 3178 
Q 1478 3394 1966 3394 
Q 2719 3394 3200 2905 
Q 3681 2416 3681 1669 
Q 3681 916 3195 420 
Q 2709 -75 1972 -75 
Q 1516 -75 1102 131 
Q 688 338 472 736 
Q 256 1134 256 1706 
z
M 1156 1659 
Q 1156 1166 1390 903 
Q 1625 641 1969 641 
Q 2313 641 2545 903 
Q 2778 1166 2778 1666 
Q 2778 2153 2545 2415 
Q 2313 2678 1969 2678 
Q 1625 2678 1390 2415 
Q 1156 2153 1156 1659 
z
" transform="scale(0.015625)"/>
       <path id="Arial-BoldMT-6e" d="M 3478 0 
L 2600 0 
L 2600 1694 
Q 2600 2231 2544 2389 
Q 2488 2547 2361 2634 
Q 2234 2722 2056 2722 
Q 1828 2722 1647 2597 
Q 1466 2472 1398 2265 
Q 1331 2059 1331 1503 
L 1331 0 
L 453 0 
L 453 3319 
L 1269 3319 
L 1269 2831 
Q 1703 3394 2363 3394 
Q 2653 3394 2893 3289 
Q 3134 3184 3257 3021 
Q 3381 2859 3429 2653 
Q 3478 2447 3478 2063 
L 3478 0 
z
" transform="scale(0.015625)"/>
       <path id="Arial-BoldMT-20" transform="scale(0.015625)"/>
       <path id="Arial-BoldMT-54" d="M 1497 0 
L 1497 3806 
L 138 3806 
L 138 4581 
L 3778 4581 
L 3778 3806 
L 2422 3806 
L 2422 0 
L 1497 0 
z
" transform="scale(0.015625)"/>
       <path id="Arial-BoldMT-68" d="M 1334 4581 
L 1334 2897 
Q 1759 3394 2350 3394 
Q 2653 3394 2897 3281 
Q 3141 3169 3264 2994 
Q 3388 2819 3433 2606 
Q 3478 2394 3478 1947 
L 3478 0 
L 2600 0 
L 2600 1753 
Q 2600 2275 2550 2415 
Q 2500 2556 2373 2639 
Q 2247 2722 2056 2722 
Q 1838 2722 1666 2615 
Q 1494 2509 1414 2295 
Q 1334 2081 1334 1663 
L 1334 0 
L 456 0 
L 456 4581 
L 1334 4581 
z
" transform="scale(0.015625)"/>
       <path id="Arial-BoldMT-72" d="M 1300 0 
L 422 0 
L 422 3319 
L 1238 3319 
L 1238 2847 
Q 1447 3181 1614 3287 
Q 1781 3394 1994 3394 
Q 2294 3394 2572 3228 
L 2300 2463 
Q 2078 2606 1888 2606 
Q 1703 2606 1575 2504 
Q 1447 2403 1373 2137 
Q 1300 1872 1300 1025 
L 1300 0 
z
" transform="scale(0.015625)"/>
       <path id="Arial-BoldMT-65" d="M 2381 1056 
L 3256 909 
Q 3088 428 2723 176 
Q 2359 -75 1813 -75 
Q 947 -75 531 491 
Q 203 944 203 1634 
Q 203 2459 634 2926 
Q 1066 3394 1725 3394 
Q 2466 3394 2894 2905 
Q 3322 2416 3303 1406 
L 1103 1406 
Q 1113 1016 1316 798 
Q 1519 581 1822 581 
Q 2028 581 2168 693 
Q 2309 806 2381 1056 
z
M 2431 1944 
Q 2422 2325 2234 2523 
Q 2047 2722 1778 2722 
Q 1491 2722 1303 2513 
Q 1116 2303 1119 1944 
L 2431 1944 
z
" transform="scale(0.015625)"/>
       <path id="Arial-BoldMT-64" d="M 3503 0 
L 2688 0 
L 2688 488 
Q 2484 203 2207 64 
Q 1931 -75 1650 -75 
Q 1078 -75 670 386 
Q 263 847 263 1672 
Q 263 2516 659 2955 
Q 1056 3394 1663 3394 
Q 2219 3394 2625 2931 
L 2625 4581 
L 3503 4581 
L 3503 0 
z
M 1159 1731 
Q 1159 1200 1306 963 
Q 1519 619 1900 619 
Q 2203 619 2415 876 
Q 2628 1134 2628 1647 
Q 2628 2219 2422 2470 
Q 2216 2722 1894 2722 
Q 1581 2722 1370 2473 
Q 1159 2225 1159 1731 
z
" transform="scale(0.015625)"/>
      </defs>
      <use xlink:href="#Arial-BoldMT-43"/>
      <use xlink:href="#Arial-BoldMT-6c" transform="translate(72.216797 0)"/>
      <use xlink:href="#Arial-BoldMT-61" transform="translate(100 0)"/>
      <use xlink:href="#Arial-BoldMT-73" transform="translate(155.615234 0)"/>
      <use xlink:href="#Arial-BoldMT-73" transform="translate(211.230469 0)"/>
      <use xlink:href="#Arial-BoldMT-69" transform="translate(266.845703 0)"/>
      <use xlink:href="#Arial-BoldMT-66" transform="translate(294.628906 0)"/>
      <use xlink:href="#Arial-BoldMT-69" transform="translate(327.929688 0)"/>
      <use xlink:href="#Arial-BoldMT-63" transform="translate(355.712891 0)"/>
      <use xlink:href="#Arial-BoldMT-61" transform="translate(411.328125 0)"/>
      <use xlink:href="#Arial-BoldMT-74" transform="translate(466.943359 0)"/>
      <use xlink:href="#Arial-BoldMT-69" transform="translate(500.244141 0)"/>
      <use xlink:href="#Arial-BoldMT-6f" transform="translate(528.027344 0)"/>
      <use xlink:href="#Arial-BoldMT-6e" transform="translate(589.111328 0)"/>
      <use xlink:href="#Arial-BoldMT-20" transform="translate(650.195312 0)"/>
      <use xlink:href="#Arial-BoldMT-54" transform="translate(677.978516 0)"/>
      <use xlink:href="#Arial-BoldMT-68" transform="translate(739.0625 0)"/>
      <use xlink:href="#Arial-BoldMT-72" transform="translate(800.146484 0)"/>
      <use xlink:href="#Arial-BoldMT-65" transform="translate(839.0625 0)"/>
      <use xlink:href="#Arial-BoldMT-73" transform="translate(894.677734 0)"/>
      <use xlink:href="#Arial-BoldMT-68" transform="translate(950.292969 0)"/>
      <use xlink:href="#Arial-BoldMT-6f" transform="translate(1011.376953 0)"/>
      <use xlink:href="#Arial-BoldMT-6c" transform="translate(1072.460938 0)"/>
      <use xlink:href="#Arial-BoldMT-64" transform="translate(1100.244141 0)"/>
     </g>
    </g>
   </g>
   <g id="matplotlib.axis_2">
    <g id="ytick_1">
     <g id="line2d_13">
      <path d="M 41.38375 532.359 
L 842.46625 532.359 
" clip-path="url(#p40cb5d17a3)" style="fill: none; stroke: #cccccc; stroke-opacity: 0.3; stroke-width: 0.8; stroke-linecap: round"/>
     </g>
     <g id="line2d_14"/>
     <g id="text_8">
      <!-- 0.0 -->
      <g style="fill: #262626" transform="translate(23.98375 535.937906) scale(0.1 -0.1)">
       <use xlink:href="#ArialMT-30"/>
       <use xlink:href="#ArialMT-2e" transform="translate(55.615234 0)"/>
       <use xlink:href="#ArialMT-30" transform="translate(83.398438 0)"/>
      </g>
     </g>
    </g>
    <g id="ytick_2">
     <g id="line2d_15">
      <path d="M 41.38375 436.168412 
L 842.46625 436.168412 
" clip-path="url(#p40cb5d17a3)" style="fill: none; stroke: #cccccc; stroke-opacity: 0.3; stroke-width: 0.8; stroke-linecap: round"/>
     </g>
     <g id="line2d_16"/>
     <g id="text_9">
      <!-- 0.2 -->
      <g style="fill: #262626" transform="translate(23.98375 439.747318) scale(0.1 -0.1)">
       <use xlink:href="#ArialMT-30"/>
       <use xlink:href="#ArialMT-2e" transform="translate(55.615234 0)"/>
       <use xlink:href="#ArialMT-32" transform="translate(83.398438 0)"/>
      </g>
     </g>
    </g>
    <g id="ytick_3">
     <g id="line2d_17">
      <path d="M 41.38375 339.977824 
L 842.46625 339.977824 
" clip-path="url(#p40cb5d17a3)" style="fill: none; stroke: #cccccc; stroke-opacity: 0.3; stroke-width: 0.8; stroke-linecap: round"/>
     </g>
     <g id="line2d_18"/>
     <g id="text_10">
      <!-- 0.4 -->
      <g style="fill: #262626" transform="translate(23.98375 343.55673) scale(0.1 -0.1)">
       <use xlink:href="#ArialMT-30"/>
       <use xlink:href="#ArialMT-2e" transform="translate(55.615234 0)"/>
       <use xlink:href="#ArialMT-34" transform="translate(83.398438 0)"/>
      </g>
     </g>
    </g>
    <g id="ytick_4">
     <g id="line2d_19">
      <path d="M 41.38375 243.787235 
L 842.46625 243.787235 
" clip-path="url(#p40cb5d17a3)" style="fill: none; stroke: #cccccc; stroke-opacity: 0.3; stroke-width: 0.8; stroke-linecap: round"/>
     </g>
     <g id="line2d_20"/>
     <g id="text_11">
      <!-- 0.6 -->
      <g style="fill: #262626" transform="translate(23.98375 247.366142) scale(0.1 -0.1)">
       <use xlink:href="#ArialMT-30"/>
       <use xlink:href="#ArialMT-2e" transform="translate(55.615234 0)"/>
       <use xlink:href="#ArialMT-36" transform="translate(83.398438 0)"/>
      </g>
     </g>
    </g>
    <g id="ytick_5">
     <g id="line2d_21">
      <path d="M 41.38375 147.596647 
L 842.46625 147.596647 
" clip-path="url(#p40cb5d17a3)" style="fill: none; stroke: #cccccc; stroke-opacity: 0.3; stroke-width: 0.8; stroke-linecap: round"/>
     </g>
     <g id="line2d_22"/>
     <g id="text_12">
      <!-- 0.8 -->
      <g style="fill: #262626" transform="translate(23.98375 151.175553) scale(0.1 -0.1)">
       <use xlink:href="#ArialMT-30"/>
       <use xlink:href="#ArialMT-2e" transform="translate(55.615234 0)"/>
       <use xlink:href="#ArialMT-38" transform="translate(83.398438 0)"/>
      </g>
     </g>
    </g>
    <g id="ytick_6">
     <g id="line2d_23">
      <path d="M 41.38375 51.406059 
L 842.46625 51.406059 
" clip-path="url(#p40cb5d17a3)" style="fill: none; stroke: #cccccc; stroke-opacity: 0.3; stroke-width: 0.8; stroke-linecap: round"/>
     </g>
     <g id="line2d_24"/>
     <g id="text_13">
      <!-- 1.0 -->
      <g style="fill: #262626" transform="translate(23.98375 54.984965) scale(0.1 -0.1)">
       <use xlink:href="#ArialMT-31"/>
       <use xlink:href="#ArialMT-2e" transform="translate(55.615234 0)"/>
       <use xlink:href="#ArialMT-30" transform="translate(83.398438 0)"/>
      </g>
     </g>
    </g>
    <g id="text_14">
     <!-- Metric Value -->
     <g style="fill: #262626" transform="translate(17.220938 327.923469) rotate(-90) scale(0.14 -0.14)">
      <defs>
       <path id="Arial-BoldMT-4d" d="M 453 0 
L 453 4581 
L 1838 4581 
L 2669 1456 
L 3491 4581 
L 4878 4581 
L 4878 0 
L 4019 0 
L 4019 3606 
L 3109 0 
L 2219 0 
L 1313 3606 
L 1313 0 
L 453 0 
z
" transform="scale(0.015625)"/>
       <path id="Arial-BoldMT-56" d="M 1634 0 
L -3 4581 
L 1000 4581 
L 2159 1191 
L 3281 4581 
L 4263 4581 
L 2622 0 
L 1634 0 
z
" transform="scale(0.015625)"/>
       <path id="Arial-BoldMT-75" d="M 2644 0 
L 2644 497 
Q 2463 231 2167 78 
Q 1872 -75 1544 -75 
Q 1209 -75 943 72 
Q 678 219 559 484 
Q 441 750 441 1219 
L 441 3319 
L 1319 3319 
L 1319 1794 
Q 1319 1094 1367 936 
Q 1416 778 1544 686 
Q 1672 594 1869 594 
Q 2094 594 2272 717 
Q 2450 841 2515 1023 
Q 2581 1206 2581 1919 
L 2581 3319 
L 3459 3319 
L 3459 0 
L 2644 0 
z
" transform="scale(0.015625)"/>
      </defs>
      <use xlink:href="#Arial-BoldMT-4d"/>
      <use xlink:href="#Arial-BoldMT-65" transform="translate(83.300781 0)"/>
      <use xlink:href="#Arial-BoldMT-74" transform="translate(138.916016 0)"/>
      <use xlink:href="#Arial-BoldMT-72" transform="translate(172.216797 0)"/>
      <use xlink:href="#Arial-BoldMT-69" transform="translate(211.132812 0)"/>
      <use xlink:href="#Arial-BoldMT-63" transform="translate(238.916016 0)"/>
      <use xlink:href="#Arial-BoldMT-20" transform="translate(294.53125 0)"/>
      <use xlink:href="#Arial-BoldMT-56" transform="translate(322.314453 0)"/>
      <use xlink:href="#Arial-BoldMT-61" transform="translate(383.513672 0)"/>
      <use xlink:href="#Arial-BoldMT-6c" transform="translate(439.128906 0)"/>
      <use xlink:href="#Arial-BoldMT-75" transform="translate(466.912109 0)"/>
      <use xlink:href="#Arial-BoldMT-65" transform="translate(527.996094 0)"/>
     </g>
    </g>
   </g>
   <g id="line2d_25">
    <path d="M 41.38375 51.406059 
L 81.437875 51.406059 
L 85.443288 52.224006 
L 93.454113 52.224006 
L 101.464938 55.495795 
L 105.47035 56.313742 
L 129.502825 56.313742 
L 133.508238 57.131689 
L 137.51365 57.131689 
L 145.524475 58.767583 
L 149.529888 60.403478 
L 153.5353 60.403478 
L 165.551538 62.857319 
L 173.562363 67.765002 
L 185.5786 70.218844 
L 189.584013 71.854738 
L 193.589425 71.854738 
L 197.594838 73.490633 
L 201.60025 76.762421 
L 205.605663 77.580369 
L 209.611075 80.03421 
L 213.616488 83.305999 
L 217.6219 85.75984 
L 225.632725 89.031629 
L 233.64355 93.939312 
L 237.648963 94.757259 
L 241.654375 96.393154 
L 245.659788 98.846995 
L 257.676025 101.300837 
L 261.681438 103.754678 
L 265.68685 105.390573 
L 269.692263 107.844414 
L 277.703088 109.480309 
L 281.7085 112.752097 
L 289.719325 114.387992 
L 293.724738 116.841833 
L 297.73015 120.931569 
L 301.735563 120.931569 
L 305.740975 126.657199 
L 309.746388 129.111041 
L 313.7518 130.746935 
L 317.757213 133.200777 
L 321.762625 134.836671 
L 325.768038 137.290513 
L 329.77345 138.926407 
L 333.778863 143.016143 
L 341.789688 147.923826 
L 345.7951 151.195615 
L 349.800513 153.649456 
L 357.811338 156.921245 
L 361.81675 161.828928 
L 365.822163 165.100717 
L 369.827575 173.280188 
L 373.832988 179.823766 
L 377.8384 185.549396 
L 381.843813 187.185291 
L 385.849225 190.457079 
L 389.854638 192.910921 
L 393.86005 197.000657 
L 397.865463 200.272445 
L 401.870875 202.726287 
L 405.876288 208.451917 
L 413.887113 214.995495 
L 417.892525 219.08523 
L 421.897938 222.357019 
L 425.90335 227.264702 
L 429.908763 231.354438 
L 433.914175 233.80828 
L 437.919588 237.080068 
L 449.935825 254.256959 
L 453.941238 255.074906 
L 457.94665 264.072325 
L 461.952063 268.162061 
L 465.957475 274.705639 
L 469.962888 277.15948 
L 477.973713 285.338952 
L 489.98995 295.154318 
L 493.995363 299.244054 
L 498.000775 309.05942 
L 502.006188 313.149156 
L 506.0116 320.510681 
L 510.017013 325.418364 
L 514.022425 328.690152 
L 518.027838 331.143994 
L 522.03325 337.687571 
L 526.038662 340.141413 
L 530.044075 347.502938 
L 534.049488 352.410621 
L 538.0549 358.136251 
L 542.060313 362.225987 
L 546.065725 364.679828 
L 550.071138 365.497776 
L 558.081963 370.405459 
L 566.092788 380.220825 
L 570.0982 382.674666 
L 574.103613 389.218244 
L 578.109025 396.579768 
L 582.114438 402.305399 
L 586.11985 407.213082 
L 590.125263 416.210501 
L 594.130675 417.028448 
L 598.136088 423.572025 
L 602.1415 426.025867 
L 606.146912 430.93355 
L 610.152325 438.295074 
L 614.157738 443.202758 
L 618.16315 445.656599 
L 622.168563 451.382229 
L 626.173975 456.289912 
L 638.190213 463.651437 
L 642.195625 466.923226 
L 646.201037 469.377067 
L 650.20645 471.012962 
L 658.217275 475.920645 
L 662.222688 477.556539 
L 666.2281 480.828328 
L 670.233513 482.464222 
L 674.238925 485.736011 
L 678.244338 489.825747 
L 682.24975 495.551377 
L 686.255163 498.823166 
L 694.265988 508.638532 
L 698.2714 511.910321 
L 702.276813 512.728268 
L 710.287637 516.000056 
L 714.29305 516.000056 
L 718.298463 519.271845 
L 722.303875 520.089792 
L 726.309287 522.543634 
L 730.3147 523.361581 
L 734.320113 525.815423 
L 742.330938 529.087211 
L 750.341763 529.087211 
L 754.347175 529.905158 
L 758.352588 529.905158 
L 762.358 530.723106 
L 774.374238 530.723106 
L 778.37965 532.359 
L 842.46625 532.359 
L 842.46625 532.359 
" clip-path="url(#p40cb5d17a3)" style="fill: none; stroke: #2e86ab; stroke-width: 2.5; stroke-linecap: round"/>
   </g>
   <g id="line2d_26">
    <path d="M 41.38375 532.359 
L 49.394575 531.719435 
L 53.399988 531.719435 
L 57.4054 531.07987 
L 61.410813 530.760087 
L 69.421638 527.562262 
L 73.42705 525.323784 
L 77.432463 525.004002 
L 81.437875 521.166611 
L 85.443288 519.887481 
L 89.4487 518.288568 
L 93.454113 517.009438 
L 97.459525 515.090743 
L 101.464938 510.93357 
L 105.47035 508.375309 
L 113.481175 498.781833 
L 117.486588 495.90379 
L 121.492 493.34553 
L 125.497413 490.147705 
L 129.502825 485.031184 
L 133.508238 482.153141 
L 137.51365 478.955316 
L 141.519063 475.117925 
L 145.524475 470.321187 
L 149.529888 467.123362 
L 153.5353 462.326624 
L 157.540713 459.768363 
L 161.546125 454.651843 
L 165.551538 452.093582 
L 173.562363 442.500106 
L 177.567775 439.622063 
L 181.573188 434.505543 
L 185.5786 430.34837 
L 189.584013 427.470327 
L 193.589425 422.993371 
L 197.594838 421.074676 
L 201.60025 417.87685 
L 205.605663 414.998808 
L 209.611075 409.882287 
L 213.616488 406.044896 
L 217.6219 398.689898 
L 221.627313 394.852508 
L 225.632725 391.654682 
L 229.638138 389.416204 
L 233.64355 384.619466 
L 237.648963 381.421641 
L 241.654375 376.624903 
L 245.659788 370.868817 
L 249.6652 368.310557 
L 253.670613 365.432514 
L 257.676025 359.996211 
L 261.681438 355.839038 
L 265.68685 353.60056 
L 269.692263 349.443387 
L 273.697675 345.925779 
L 277.703088 340.489476 
L 281.7085 333.45426 
L 285.713913 329.616869 
L 289.719325 324.500349 
L 293.724738 319.064045 
L 297.73015 315.86622 
L 301.735563 312.988177 
L 305.740975 308.511222 
L 309.746388 302.435353 
L 317.757213 294.760572 
L 321.762625 292.202312 
L 325.768038 288.045139 
L 329.77345 284.527531 
L 333.778863 282.289053 
L 337.784275 278.771445 
L 341.789688 274.29449 
L 345.7951 270.457099 
L 349.800513 267.579056 
L 353.805925 264.061448 
L 357.811338 259.904275 
L 361.81675 257.98558 
L 365.822163 251.909712 
L 369.827575 248.711886 
L 377.8384 242.955801 
L 385.849225 238.478845 
L 389.854638 232.083194 
L 393.86005 228.885369 
L 397.865463 225.367761 
L 401.870875 221.53037 
L 405.876288 217.373197 
L 409.8817 212.576459 
L 413.887113 208.739069 
L 417.892525 205.541243 
L 421.897938 201.38407 
L 429.908763 195.627985 
L 433.914175 192.430159 
L 437.919588 190.511464 
L 441.925 187.953204 
L 445.930413 185.714726 
L 449.935825 182.516901 
L 453.941238 178.359727 
L 461.952063 170.684946 
L 465.957475 167.167339 
L 469.962888 165.568426 
L 473.9683 161.731035 
L 477.973713 158.852992 
L 481.979125 155.655167 
L 485.984538 152.777124 
L 489.98995 152.137559 
L 493.995363 149.579299 
L 498.000775 146.381473 
L 502.006188 145.102343 
L 506.0116 141.264953 
L 510.017013 139.026475 
L 514.022425 137.427562 
L 518.027838 135.189084 
L 530.044075 125.595608 
L 534.049488 123.676913 
L 542.060313 118.560392 
L 546.065725 116.641697 
L 550.071138 113.763654 
L 554.07655 111.844959 
L 558.081963 109.606481 
L 562.087375 106.728438 
L 566.092788 104.489961 
L 570.0982 101.9317 
L 578.109025 98.733875 
L 582.114438 97.454745 
L 586.11985 96.495397 
L 590.125263 95.855832 
L 594.130675 94.256919 
L 598.136088 91.378876 
L 606.146912 89.460181 
L 610.152325 86.262356 
L 614.157738 84.983226 
L 618.16315 81.7854 
L 622.168563 81.145835 
L 626.173975 80.186487 
L 630.179388 77.628227 
L 634.1848 75.709532 
L 638.190213 74.110619 
L 642.195625 73.151272 
L 646.201037 71.552359 
L 650.20645 71.232576 
L 662.222688 67.395186 
L 666.2281 65.796273 
L 670.233513 64.517143 
L 674.238925 62.91823 
L 678.244338 61.6391 
L 686.255163 59.720405 
L 690.260575 59.08084 
L 698.2714 58.441275 
L 702.276813 56.522579 
L 706.282225 56.202797 
L 710.287637 56.202797 
L 714.29305 54.284102 
L 726.309287 54.284102 
L 730.3147 53.964319 
L 734.320113 53.964319 
L 742.330938 53.324754 
L 746.33635 52.365406 
L 750.341763 52.045624 
L 758.352588 52.045624 
L 762.358 51.725841 
L 774.374238 51.725841 
L 778.37965 51.406059 
L 842.46625 51.406059 
L 842.46625 51.406059 
" clip-path="url(#p40cb5d17a3)" style="fill: none; stroke: #a23b72; stroke-width: 2.5; stroke-linecap: round"/>
   </g>
   <g id="line2d_27">
    <path d="M 41.38375 397.177198 
L 61.410813 396.853332 
L 69.421638 396.200921 
L 73.42705 395.740483 
L 77.432463 395.674452 
L 81.437875 394.87707 
L 85.443288 394.776458 
L 93.454113 394.170367 
L 97.459525 394.099801 
L 101.464938 393.549315 
L 105.47035 393.167249 
L 113.481175 391.059347 
L 125.497413 389.106896 
L 129.502825 387.924216 
L 133.508238 387.42453 
L 141.519063 385.927133 
L 145.524475 384.941449 
L 149.529888 384.511452 
L 153.5353 383.320414 
L 157.540713 382.856089 
L 161.546125 381.73376 
L 165.551538 381.255011 
L 177.567775 379.242595 
L 181.573188 378.039632 
L 185.5786 377.079908 
L 189.584013 376.650831 
L 193.589425 375.387113 
L 201.60025 375.053781 
L 205.605663 374.408713 
L 209.611075 373.477891 
L 213.616488 373.10498 
L 217.6219 371.45195 
L 221.627313 370.654179 
L 225.632725 370.044869 
L 229.638138 369.93191 
L 237.648963 368.153624 
L 241.654375 366.973247 
L 245.659788 365.645423 
L 249.6652 364.97472 
L 253.670613 364.184727 
L 257.676025 362.478169 
L 261.681438 361.614189 
L 265.68685 361.222371 
L 269.692263 360.329657 
L 273.697675 359.22931 
L 281.7085 355.492435 
L 285.713913 354.176724 
L 289.719325 352.30995 
L 293.724738 350.705398 
L 297.73015 350.464767 
L 301.735563 349.225518 
L 305.740975 348.856955 
L 309.746388 346.827075 
L 313.7518 345.533134 
L 317.757213 344.44464 
L 321.762625 343.704335 
L 329.77345 341.170269 
L 333.778863 341.262506 
L 337.784275 340.22155 
L 341.789688 338.659015 
L 345.7951 337.637827 
L 349.800513 336.853107 
L 353.805925 335.450203 
L 357.811338 333.65747 
L 361.81675 334.113611 
L 365.822163 331.663953 
L 369.827575 332.417389 
L 373.832988 332.849166 
L 377.8384 333.019756 
L 381.843813 332.199097 
L 385.849225 331.921982 
L 389.854638 328.690152 
L 393.86005 328.0163 
L 397.865463 326.814901 
L 401.870875 325.060567 
L 405.876288 324.208875 
L 409.8817 321.942088 
L 413.887113 320.302476 
L 417.892525 319.40527 
L 421.897938 317.404796 
L 425.90335 316.998319 
L 429.908763 316.253161 
L 433.914175 314.55773 
L 437.919588 314.238382 
L 441.925 314.359844 
L 445.930413 314.77012 
L 449.935825 314.327 
L 453.941238 310.833121 
L 457.94665 311.107156 
L 461.952063 309.158138 
L 469.962888 308.058077 
L 473.9683 305.898029 
L 477.973713 304.69789 
L 481.979125 302.67314 
L 485.984538 300.934835 
L 489.98995 301.819574 
L 493.995363 300.819155 
L 498.000775 302.007854 
L 502.006188 302.59895 
L 506.0116 301.679719 
L 514.022425 301.167335 
L 518.027838 299.456591 
L 522.03325 298.753286 
L 526.038662 295.411534 
L 530.044075 295.032876 
L 534.049488 295.117639 
L 538.0549 294.67228 
L 546.065725 291.294567 
L 550.071138 286.458248 
L 554.07655 284.483253 
L 558.081963 281.757204 
L 562.087375 279.364576 
L 566.092788 278.219094 
L 570.0982 274.25229 
L 574.103613 275.75301 
L 578.109025 278.097254 
L 582.114438 279.977754 
L 586.11985 282.067163 
L 590.125263 289.315165 
L 594.130675 285.76131 
L 598.136088 284.425895 
L 602.1415 284.248356 
L 606.146912 286.934454 
L 610.152325 285.441195 
L 614.157738 287.387642 
L 618.16315 278.722126 
L 622.168563 284.36764 
L 626.173975 287.940292 
L 630.179388 280.697577 
L 634.1848 275.654056 
L 638.190213 271.713535 
L 642.195625 272.384437 
L 646.201037 267.834882 
L 650.20645 269.063594 
L 654.211863 265.985063 
L 658.217275 262.556131 
L 662.222688 256.941504 
L 666.2281 251.803118 
L 674.238925 237.581391 
L 678.244338 234.626227 
L 682.24975 239.887617 
L 686.255163 238.044514 
L 690.260575 247.047933 
L 694.265988 264.135244 
L 698.2714 276.532967 
L 702.276813 243.787235 
L 706.282225 246.386981 
L 710.287637 257.528748 
L 714.29305 200.667316 
L 718.298463 224.549118 
L 722.303875 231.763412 
L 726.309287 257.528748 
L 730.3147 253.91256 
L 734.320113 291.882529 
L 738.325525 310.380719 
L 742.330938 339.977824 
L 746.33635 257.528748 
L 750.341763 211.723706 
L 754.347175 243.787235 
L 758.352588 243.787235 
L 762.358 211.723706 
L 774.374238 211.723706 
L 778.37965 532.359 
L 842.46625 532.359 
L 842.46625 532.359 
" clip-path="url(#p40cb5d17a3)" style="fill: none; stroke-dasharray: 7.4,3.2; stroke-dashoffset: 0; stroke: #f18f01; stroke-width: 2"/>
   </g>
   <g id="line2d_28">
    <path d="M 41.38375 532.359 
L 45.389163 51.406059 
L 81.437875 51.406059 
L 85.443288 63.429882 
L 89.4487 62.093902 
L 93.454113 61.221425 
L 97.459525 76.719372 
L 101.464938 84.805569 
L 105.47035 87.032203 
L 109.475763 81.465618 
L 113.481175 77.403515 
L 117.486588 75.453706 
L 121.492 73.950728 
L 125.497413 72.317056 
L 129.502825 70.144485 
L 133.508238 71.934538 
L 137.51365 70.75474 
L 141.519063 71.981586 
L 145.524475 72.729096 
L 149.529888 76.012953 
L 153.5353 74.408156 
L 157.540713 75.554324 
L 161.546125 75.82945 
L 165.551538 76.814893 
L 169.55695 80.297225 
L 173.562363 83.363065 
L 177.567775 83.881981 
L 181.573188 83.665098 
L 185.5786 83.750847 
L 189.584013 85.467882 
L 193.589425 84.168521 
L 197.594838 86.034671 
L 201.60025 89.733928 
L 205.605663 89.978726 
L 209.611075 91.677238 
L 213.616488 94.625332 
L 221.627313 96.05148 
L 225.632725 96.928354 
L 229.638138 98.919555 
L 233.64355 100.062777 
L 237.648963 99.959403 
L 241.654375 100.211247 
L 245.659788 100.953609 
L 253.670613 100.988836 
L 257.676025 100.302941 
L 261.681438 101.375196 
L 265.68685 102.194689 
L 269.692263 103.177904 
L 273.697675 102.963036 
L 277.703088 102.296758 
L 281.7085 103.158527 
L 285.713913 102.888345 
L 289.719325 102.346054 
L 293.724738 102.913737 
L 297.73015 105.055665 
L 301.735563 104.429405 
L 305.740975 107.27433 
L 313.7518 107.74958 
L 317.757213 108.458602 
L 321.762625 108.91743 
L 325.768038 109.5189 
L 329.77345 109.752958 
L 333.778863 111.659671 
L 337.784275 112.319702 
L 341.789688 112.760056 
L 345.7951 113.761275 
L 349.800513 114.490128 
L 353.805925 114.636932 
L 357.811338 114.650635 
L 361.81675 116.79241 
L 365.822163 117.205723 
L 369.827575 120.577862 
L 373.832988 123.115092 
L 377.8384 125.191169 
L 381.843813 125.467458 
L 385.849225 126.485949 
L 389.854638 126.230572 
L 393.86005 127.368458 
L 397.865463 128.055302 
L 401.870875 128.308647 
L 405.876288 129.862274 
L 409.8817 130.224434 
L 413.887113 130.771231 
L 417.892525 131.76087 
L 421.897938 132.209246 
L 425.90335 133.53861 
L 429.908763 134.524399 
L 433.914175 134.806141 
L 437.919588 135.647045 
L 445.930413 138.885047 
L 449.935825 140.285589 
L 453.941238 139.722639 
L 457.94665 142.086091 
L 461.952063 142.704432 
L 465.957475 144.197686 
L 473.9683 145.258681 
L 477.973713 146.008907 
L 485.984538 146.8822 
L 489.98995 147.79071 
L 493.995363 148.558553 
L 498.000775 150.946254 
L 502.006188 151.931821 
L 506.0116 153.360645 
L 510.017013 154.357647 
L 514.022425 154.991222 
L 518.027838 155.248171 
L 522.03325 156.483168 
L 526.038662 156.530757 
L 530.044075 157.957445 
L 538.0549 159.989655 
L 542.060313 160.582951 
L 546.065725 160.856431 
L 550.071138 160.494027 
L 558.081963 160.968937 
L 562.087375 161.688262 
L 566.092788 162.522773 
L 570.0982 162.648744 
L 574.103613 164.01012 
L 578.109025 165.557994 
L 582.114438 166.737983 
L 586.11985 167.765641 
L 590.125263 169.851675 
L 594.130675 169.725247 
L 598.136088 170.726445 
L 602.1415 171.121519 
L 614.157738 174.07723 
L 618.16315 173.99692 
L 622.168563 175.188158 
L 626.173975 176.116224 
L 630.179388 176.153228 
L 638.190213 176.548177 
L 642.195625 177.087177 
L 650.20645 177.610079 
L 658.217275 178.178317 
L 662.222688 178.280227 
L 666.2281 178.674352 
L 670.233513 178.773999 
L 674.238925 179.162943 
L 678.244338 179.78792 
L 682.24975 180.820056 
L 686.255163 181.32273 
L 694.265988 183.196595 
L 698.2714 183.815108 
L 702.276813 183.597803 
L 710.287637 184.211732 
L 714.29305 183.825482 
L 718.298463 184.499954 
L 722.303875 184.668165 
L 726.309287 185.171821 
L 730.3147 185.274774 
L 734.320113 185.776341 
L 742.330938 186.313128 
L 746.33635 186.119017 
L 750.341763 186.054437 
L 754.347175 186.220372 
L 774.374238 186.321532 
L 778.37965 186.587861 
L 842.46625 186.587861 
L 842.46625 186.587861 
" clip-path="url(#p40cb5d17a3)" style="fill: none; stroke-dasharray: 7.4,3.2; stroke-dashoffset: 0; stroke: #8b5a3c; stroke-width: 2"/>
   </g>
   <g id="line2d_29">
    <path d="M 41.38375 321.313978 
L 61.410813 320.919501 
L 69.421638 320.126107 
L 73.42705 319.56718 
L 77.432463 319.487092 
L 81.437875 318.521322 
L 85.443288 318.480684 
L 93.454113 317.74906 
L 97.459525 317.827951 
L 101.464938 317.331726 
L 105.47035 316.957221 
L 113.481175 314.441825 
L 125.497413 312.127205 
L 129.502825 310.732229 
L 133.508238 310.233675 
L 145.524475 307.513015 
L 149.529888 307.198881 
L 153.5353 305.820349 
L 157.540713 305.37916 
L 161.546125 304.184131 
L 169.55695 303.219134 
L 177.567775 302.135009 
L 181.573188 300.879948 
L 185.5786 299.905269 
L 189.584013 299.633168 
L 193.589425 298.224537 
L 197.594838 298.246549 
L 201.60025 298.49537 
L 209.611075 297.198101 
L 213.616488 297.235968 
L 217.6219 295.782148 
L 221.627313 295.152835 
L 225.632725 294.732296 
L 229.638138 294.965561 
L 233.64355 294.325042 
L 237.648963 293.55638 
L 245.659788 291.54175 
L 249.6652 290.969905 
L 253.670613 290.277825 
L 257.676025 288.645346 
L 261.681438 288.154212 
L 265.68685 288.020863 
L 269.692263 287.518807 
L 273.697675 286.543881 
L 277.703088 284.820254 
L 281.7085 283.514967 
L 285.713913 282.361126 
L 289.719325 280.677533 
L 293.724738 279.566352 
L 297.73015 280.096926 
L 301.735563 278.907633 
L 305.740975 279.654912 
L 309.746388 278.222023 
L 313.7518 277.339676 
L 317.757213 276.828205 
L 321.762625 276.482558 
L 325.768038 275.815355 
L 329.77345 275.030452 
L 333.778863 275.994386 
L 337.784275 275.597441 
L 341.789688 274.754576 
L 349.800513 274.476879 
L 353.805925 273.643357 
L 357.811338 272.491549 
L 361.81675 274.064178 
L 365.822163 272.806271 
L 369.827575 275.499704 
L 373.832988 277.545579 
L 377.8384 279.194447 
L 381.843813 278.973056 
L 385.849225 279.639541 
L 389.854638 277.772941 
L 393.86005 278.410892 
L 397.865463 278.435861 
L 401.870875 277.829735 
L 405.876288 278.92272 
L 409.8817 278.270654 
L 413.887113 278.122295 
L 417.892525 278.807759 
L 421.897938 278.485512 
L 425.90335 279.867167 
L 429.908763 280.773098 
L 433.914175 280.496986 
L 437.919588 281.457249 
L 441.925 283.62658 
L 445.930413 286.025907 
L 449.935825 287.928507 
L 453.941238 286.070409 
L 457.94665 289.849293 
L 461.952063 290.384234 
L 465.957475 292.833029 
L 469.962888 293.604318 
L 473.9683 294.209721 
L 477.973713 295.413179 
L 481.979125 295.850788 
L 485.984538 296.495506 
L 489.98995 298.534435 
L 493.995363 300.034274 
L 498.000775 305.588442 
L 502.006188 307.998011 
L 506.0116 311.495859 
L 510.017013 314.096948 
L 514.022425 315.799719 
L 518.027838 316.456767 
L 522.03325 319.990169 
L 526.038662 320.107467 
L 530.044075 324.528475 
L 534.049488 327.698174 
L 538.0549 331.293295 
L 542.060313 333.475875 
L 546.065725 334.574942 
L 550.071138 333.545626 
L 554.07655 334.666687 
L 558.081963 335.605524 
L 562.087375 338.56474 
L 566.092788 342.024432 
L 570.0982 342.877002 
L 574.103613 348.588771 
L 578.109025 355.334192 
L 582.114438 360.705762 
L 586.11985 365.497776 
L 590.125263 375.177602 
L 594.130675 375.199406 
L 598.136088 381.13739 
L 602.1415 383.492613 
L 606.146912 388.825511 
L 610.152325 396.128487 
L 614.157738 401.626156 
L 618.16315 403.129566 
L 622.168563 410.270946 
L 626.173975 416.331442 
L 630.179388 418.449093 
L 634.1848 420.926494 
L 638.190213 423.610556 
L 642.195625 427.804013 
L 646.201037 430.618955 
L 650.20645 432.851495 
L 658.217275 439.009484 
L 662.222688 440.943831 
L 666.2281 445.289933 
L 670.233513 447.320944 
L 674.238925 451.847054 
L 678.244338 457.925807 
L 682.24975 466.972648 
L 686.255163 472.148097 
L 690.260575 480.323906 
L 694.265988 488.77264 
L 698.2714 494.48869 
L 702.276813 495.598266 
L 710.287637 501.479196 
L 714.29305 501.178907 
L 718.298463 507.252158 
L 722.303875 508.782875 
L 726.309287 513.40519 
L 730.3147 514.927427 
L 734.320113 519.618525 
L 742.330938 525.924847 
L 750.341763 525.881519 
L 754.347175 527.492697 
L 758.352588 527.492697 
L 762.358 529.103819 
L 774.374238 529.103819 
L 778.37965 532.359 
L 842.46625 532.359 
L 842.46625 532.359 
" clip-path="url(#p40cb5d17a3)" style="fill: none; stroke-dasharray: 2.5,4.125; stroke-dashoffset: 0; stroke: #006e90; stroke-width: 2.5"/>
   </g>
   <g id="line2d_30">
    <path d="M 357.811338 532.359 
L 357.811338 41.787 
" clip-path="url(#p40cb5d17a3)" style="fill: none; stroke-dasharray: 5.55,2.4; stroke-dashoffset: 0; stroke: #000000; stroke-opacity: 0.5; stroke-width: 1.5"/>
   </g>
   <g id="patch_3">
    <path d="M 41.38375 532.359 
L 41.38375 41.787 
" style="fill: none; stroke: #cccccc; stroke-linejoin: miter; stroke-linecap: square"/>
   </g>
   <g id="patch_4">
    <path d="M 842.46625 532.359 
L 842.46625 41.787 
" style="fill: none; stroke: #cccccc; stroke-linejoin: miter; stroke-linecap: square"/>
   </g>
   <g id="patch_5">
    <path d="M 41.38375 532.359 
L 842.46625 532.359 
" style="fill: none; stroke: #cccccc; stroke-linejoin: miter; stroke-linecap: square"/>
   </g>
   <g id="patch_6">
    <path d="M 41.38375 41.787 
L 842.46625 41.787 
" style="fill: none; stroke: #cccccc; stroke-linejoin: miter; stroke-linecap: square"/>
   </g>
   <g id="text_15">
    <!-- Optimal -->
    <g style="fill: #262626" transform="translate(365.822163 64.744643) scale(0.1 -0.1)">
     <defs>
      <path id="Arial-BoldMT-4f" d="M 278 2263 
Q 278 2963 488 3438 
Q 644 3788 914 4066 
Q 1184 4344 1506 4478 
Q 1934 4659 2494 4659 
Q 3506 4659 4114 4031 
Q 4722 3403 4722 2284 
Q 4722 1175 4119 548 
Q 3516 -78 2506 -78 
Q 1484 -78 881 545 
Q 278 1169 278 2263 
z
M 1231 2294 
Q 1231 1516 1590 1114 
Q 1950 713 2503 713 
Q 3056 713 3411 1111 
Q 3766 1509 3766 2306 
Q 3766 3094 3420 3481 
Q 3075 3869 2503 3869 
Q 1931 3869 1581 3476 
Q 1231 3084 1231 2294 
z
" transform="scale(0.015625)"/>
      <path id="Arial-BoldMT-70" d="M 434 3319 
L 1253 3319 
L 1253 2831 
Q 1413 3081 1684 3237 
Q 1956 3394 2288 3394 
Q 2866 3394 3269 2941 
Q 3672 2488 3672 1678 
Q 3672 847 3265 386 
Q 2859 -75 2281 -75 
Q 2006 -75 1782 34 
Q 1559 144 1313 409 
L 1313 -1263 
L 434 -1263 
L 434 3319 
z
M 1303 1716 
Q 1303 1156 1525 889 
Q 1747 622 2066 622 
Q 2372 622 2575 867 
Q 2778 1113 2778 1672 
Q 2778 2194 2568 2447 
Q 2359 2700 2050 2700 
Q 1728 2700 1515 2451 
Q 1303 2203 1303 1716 
z
" transform="scale(0.015625)"/>
      <path id="Arial-BoldMT-6d" d="M 394 3319 
L 1203 3319 
L 1203 2866 
Q 1638 3394 2238 3394 
Q 2556 3394 2790 3262 
Q 3025 3131 3175 2866 
Q 3394 3131 3647 3262 
Q 3900 3394 4188 3394 
Q 4553 3394 4806 3245 
Q 5059 3097 5184 2809 
Q 5275 2597 5275 2122 
L 5275 0 
L 4397 0 
L 4397 1897 
Q 4397 2391 4306 2534 
Q 4184 2722 3931 2722 
Q 3747 2722 3584 2609 
Q 3422 2497 3350 2280 
Q 3278 2063 3278 1594 
L 3278 0 
L 2400 0 
L 2400 1819 
Q 2400 2303 2353 2443 
Q 2306 2584 2207 2653 
Q 2109 2722 1941 2722 
Q 1738 2722 1575 2612 
Q 1413 2503 1342 2297 
Q 1272 2091 1272 1613 
L 1272 0 
L 394 0 
L 394 3319 
z
" transform="scale(0.015625)"/>
     </defs>
     <use xlink:href="#Arial-BoldMT-4f"/>
     <use xlink:href="#Arial-BoldMT-70" transform="translate(77.783203 0)"/>
     <use xlink:href="#Arial-BoldMT-74" transform="translate(138.867188 0)"/>
     <use xlink:href="#Arial-BoldMT-69" transform="translate(172.167969 0)"/>
     <use xlink:href="#Arial-BoldMT-6d" transform="translate(199.951172 0)"/>
     <use xlink:href="#Arial-BoldMT-61" transform="translate(288.867188 0)"/>
     <use xlink:href="#Arial-BoldMT-6c" transform="translate(344.482422 0)"/>
    </g>
    <!-- (0.395) -->
    <g style="fill: #262626" transform="translate(365.822163 75.453706) scale(0.1 -0.1)">
     <defs>
      <path id="Arial-BoldMT-28" d="M 1916 -1347 
L 1313 -1347 
Q 834 -625 584 153 
Q 334 931 334 1659 
Q 334 2563 644 3369 
Q 913 4069 1325 4659 
L 1925 4659 
Q 1497 3713 1336 3048 
Q 1175 2384 1175 1641 
Q 1175 1128 1270 590 
Q 1366 53 1531 -431 
Q 1641 -750 1916 -1347 
z
" transform="scale(0.015625)"/>
      <path id="Arial-BoldMT-30" d="M 1756 4600 
Q 2422 4600 2797 4125 
Q 3244 3563 3244 2259 
Q 3244 959 2794 391 
Q 2422 -78 1756 -78 
Q 1088 -78 678 436 
Q 269 950 269 2269 
Q 269 3563 719 4131 
Q 1091 4600 1756 4600 
z
M 1756 3872 
Q 1597 3872 1472 3770 
Q 1347 3669 1278 3406 
Q 1188 3066 1188 2259 
Q 1188 1453 1269 1151 
Q 1350 850 1473 750 
Q 1597 650 1756 650 
Q 1916 650 2041 751 
Q 2166 853 2234 1116 
Q 2325 1453 2325 2259 
Q 2325 3066 2244 3367 
Q 2163 3669 2039 3770 
Q 1916 3872 1756 3872 
z
" transform="scale(0.015625)"/>
      <path id="Arial-BoldMT-2e" d="M 459 0 
L 459 878 
L 1338 878 
L 1338 0 
L 459 0 
z
" transform="scale(0.015625)"/>
      <path id="Arial-BoldMT-33" d="M 241 1216 
L 1091 1319 
Q 1131 994 1309 822 
Q 1488 650 1741 650 
Q 2013 650 2198 856 
Q 2384 1063 2384 1413 
Q 2384 1744 2206 1937 
Q 2028 2131 1772 2131 
Q 1603 2131 1369 2066 
L 1466 2781 
Q 1822 2772 2009 2936 
Q 2197 3100 2197 3372 
Q 2197 3603 2059 3740 
Q 1922 3878 1694 3878 
Q 1469 3878 1309 3722 
Q 1150 3566 1116 3266 
L 306 3403 
Q 391 3819 561 4067 
Q 731 4316 1036 4458 
Q 1341 4600 1719 4600 
Q 2366 4600 2756 4188 
Q 3078 3850 3078 3425 
Q 3078 2822 2419 2463 
Q 2813 2378 3048 2084 
Q 3284 1791 3284 1375 
Q 3284 772 2843 347 
Q 2403 -78 1747 -78 
Q 1125 -78 715 280 
Q 306 638 241 1216 
z
" transform="scale(0.015625)"/>
      <path id="Arial-BoldMT-39" d="M 291 1059 
L 1141 1153 
Q 1172 894 1303 769 
Q 1434 644 1650 644 
Q 1922 644 2112 894 
Q 2303 1144 2356 1931 
Q 2025 1547 1528 1547 
Q 988 1547 595 1964 
Q 203 2381 203 3050 
Q 203 3747 617 4173 
Q 1031 4600 1672 4600 
Q 2369 4600 2816 4061 
Q 3263 3522 3263 2288 
Q 3263 1031 2797 475 
Q 2331 -81 1584 -81 
Q 1047 -81 715 205 
Q 384 491 291 1059 
z
M 2278 2978 
Q 2278 3403 2083 3637 
Q 1888 3872 1631 3872 
Q 1388 3872 1227 3680 
Q 1066 3488 1066 3050 
Q 1066 2606 1241 2398 
Q 1416 2191 1678 2191 
Q 1931 2191 2104 2391 
Q 2278 2591 2278 2978 
z
" transform="scale(0.015625)"/>
      <path id="Arial-BoldMT-35" d="M 284 1178 
L 1159 1269 
Q 1197 972 1381 798 
Q 1566 625 1806 625 
Q 2081 625 2272 848 
Q 2463 1072 2463 1522 
Q 2463 1944 2273 2155 
Q 2084 2366 1781 2366 
Q 1403 2366 1103 2031 
L 391 2134 
L 841 4519 
L 3163 4519 
L 3163 3697 
L 1506 3697 
L 1369 2919 
Q 1663 3066 1969 3066 
Q 2553 3066 2959 2641 
Q 3366 2216 3366 1538 
Q 3366 972 3038 528 
Q 2591 -78 1797 -78 
Q 1163 -78 763 262 
Q 363 603 284 1178 
z
" transform="scale(0.015625)"/>
      <path id="Arial-BoldMT-29" d="M 216 -1347 
Q 475 -791 581 -494 
Q 688 -197 778 190 
Q 869 578 912 926 
Q 956 1275 956 1641 
Q 956 2384 797 3048 
Q 638 3713 209 4659 
L 806 4659 
Q 1278 3988 1539 3234 
Q 1800 2481 1800 1706 
Q 1800 1053 1594 306 
Q 1359 -531 822 -1347 
L 216 -1347 
z
" transform="scale(0.015625)"/>
     </defs>
     <use xlink:href="#Arial-BoldMT-28"/>
     <use xlink:href="#Arial-BoldMT-30" transform="translate(33.300781 0)"/>
     <use xlink:href="#Arial-BoldMT-2e" transform="translate(88.916016 0)"/>
     <use xlink:href="#Arial-BoldMT-33" transform="translate(116.699219 0)"/>
     <use xlink:href="#Arial-BoldMT-39" transform="translate(172.314453 0)"/>
     <use xlink:href="#Arial-BoldMT-35" transform="translate(227.929688 0)"/>
     <use xlink:href="#Arial-BoldMT-29" transform="translate(283.544922 0)"/>
    </g>
   </g>
   <g id="text_16">
    <g id="patch_7">
     <path d="M 57.4054 528.03381 
L 180.711963 528.03381 
Q 184.011963 528.03381 184.011963 524.73381 
L 184.011963 444.146091 
Q 184.011963 440.846091 180.711963 440.846091 
L 57.4054 440.846091 
Q 54.1054 440.846091 54.1054 444.146091 
L 54.1054 524.73381 
Q 54.1054 528.03381 57.4054 528.03381 
z
" style="fill: #ffffff; opacity: 0.9; stroke: #808080; stroke-linejoin: miter"/>
    </g>
    <!-- Optimal Threshold: 0.395 -->
    <g style="fill: #262626" transform="translate(57.4054 452.160622) scale(0.11 -0.11)">
     <defs>
      <path id="ArialMT-4f" d="M 309 2231 
Q 309 3372 921 4017 
Q 1534 4663 2503 4663 
Q 3138 4663 3647 4359 
Q 4156 4056 4423 3514 
Q 4691 2972 4691 2284 
Q 4691 1588 4409 1038 
Q 4128 488 3612 205 
Q 3097 -78 2500 -78 
Q 1853 -78 1343 234 
Q 834 547 571 1087 
Q 309 1628 309 2231 
z
M 934 2222 
Q 934 1394 1379 917 
Q 1825 441 2497 441 
Q 3181 441 3623 922 
Q 4066 1403 4066 2288 
Q 4066 2847 3877 3264 
Q 3688 3681 3323 3911 
Q 2959 4141 2506 4141 
Q 1863 4141 1398 3698 
Q 934 3256 934 2222 
z
" transform="scale(0.015625)"/>
      <path id="ArialMT-70" d="M 422 -1272 
L 422 3319 
L 934 3319 
L 934 2888 
Q 1116 3141 1344 3267 
Q 1572 3394 1897 3394 
Q 2322 3394 2647 3175 
Q 2972 2956 3137 2557 
Q 3303 2159 3303 1684 
Q 3303 1175 3120 767 
Q 2938 359 2589 142 
Q 2241 -75 1856 -75 
Q 1575 -75 1351 44 
Q 1128 163 984 344 
L 984 -1272 
L 422 -1272 
z
M 931 1641 
Q 931 1000 1190 694 
Q 1450 388 1819 388 
Q 2194 388 2461 705 
Q 2728 1022 2728 1688 
Q 2728 2322 2467 2637 
Q 2206 2953 1844 2953 
Q 1484 2953 1207 2617 
Q 931 2281 931 1641 
z
" transform="scale(0.015625)"/>
      <path id="ArialMT-74" d="M 1650 503 
L 1731 6 
Q 1494 -44 1306 -44 
Q 1000 -44 831 53 
Q 663 150 594 308 
Q 525 466 525 972 
L 525 2881 
L 113 2881 
L 113 3319 
L 525 3319 
L 525 4141 
L 1084 4478 
L 1084 3319 
L 1650 3319 
L 1650 2881 
L 1084 2881 
L 1084 941 
Q 1084 700 1114 631 
Q 1144 563 1211 522 
Q 1278 481 1403 481 
Q 1497 481 1650 503 
z
" transform="scale(0.015625)"/>
      <path id="ArialMT-69" d="M 425 3934 
L 425 4581 
L 988 4581 
L 988 3934 
L 425 3934 
z
M 425 0 
L 425 3319 
L 988 3319 
L 988 0 
L 425 0 
z
" transform="scale(0.015625)"/>
      <path id="ArialMT-6d" d="M 422 0 
L 422 3319 
L 925 3319 
L 925 2853 
Q 1081 3097 1340 3245 
Q 1600 3394 1931 3394 
Q 2300 3394 2536 3241 
Q 2772 3088 2869 2813 
Q 3263 3394 3894 3394 
Q 4388 3394 4653 3120 
Q 4919 2847 4919 2278 
L 4919 0 
L 4359 0 
L 4359 2091 
Q 4359 2428 4304 2576 
Q 4250 2725 4106 2815 
Q 3963 2906 3769 2906 
Q 3419 2906 3187 2673 
Q 2956 2441 2956 1928 
L 2956 0 
L 2394 0 
L 2394 2156 
Q 2394 2531 2256 2718 
Q 2119 2906 1806 2906 
Q 1569 2906 1367 2781 
Q 1166 2656 1075 2415 
Q 984 2175 984 1722 
L 984 0 
L 422 0 
z
" transform="scale(0.015625)"/>
      <path id="ArialMT-61" d="M 2588 409 
Q 2275 144 1986 34 
Q 1697 -75 1366 -75 
Q 819 -75 525 192 
Q 231 459 231 875 
Q 231 1119 342 1320 
Q 453 1522 633 1644 
Q 813 1766 1038 1828 
Q 1203 1872 1538 1913 
Q 2219 1994 2541 2106 
Q 2544 2222 2544 2253 
Q 2544 2597 2384 2738 
Q 2169 2928 1744 2928 
Q 1347 2928 1158 2789 
Q 969 2650 878 2297 
L 328 2372 
Q 403 2725 575 2942 
Q 747 3159 1072 3276 
Q 1397 3394 1825 3394 
Q 2250 3394 2515 3294 
Q 2781 3194 2906 3042 
Q 3031 2891 3081 2659 
Q 3109 2516 3109 2141 
L 3109 1391 
Q 3109 606 3145 398 
Q 3181 191 3288 0 
L 2700 0 
Q 2613 175 2588 409 
z
M 2541 1666 
Q 2234 1541 1622 1453 
Q 1275 1403 1131 1340 
Q 988 1278 909 1158 
Q 831 1038 831 891 
Q 831 666 1001 516 
Q 1172 366 1500 366 
Q 1825 366 2078 508 
Q 2331 650 2450 897 
Q 2541 1088 2541 1459 
L 2541 1666 
z
" transform="scale(0.015625)"/>
      <path id="ArialMT-6c" d="M 409 0 
L 409 4581 
L 972 4581 
L 972 0 
L 409 0 
z
" transform="scale(0.015625)"/>
      <path id="ArialMT-20" transform="scale(0.015625)"/>
      <path id="ArialMT-54" d="M 1659 0 
L 1659 4041 
L 150 4041 
L 150 4581 
L 3781 4581 
L 3781 4041 
L 2266 4041 
L 2266 0 
L 1659 0 
z
" transform="scale(0.015625)"/>
      <path id="ArialMT-68" d="M 422 0 
L 422 4581 
L 984 4581 
L 984 2938 
Q 1378 3394 1978 3394 
Q 2347 3394 2619 3248 
Q 2891 3103 3008 2847 
Q 3125 2591 3125 2103 
L 3125 0 
L 2563 0 
L 2563 2103 
Q 2563 2525 2380 2717 
Q 2197 2909 1863 2909 
Q 1613 2909 1392 2779 
Q 1172 2650 1078 2428 
Q 984 2206 984 1816 
L 984 0 
L 422 0 
z
" transform="scale(0.015625)"/>
      <path id="ArialMT-72" d="M 416 0 
L 416 3319 
L 922 3319 
L 922 2816 
Q 1116 3169 1280 3281 
Q 1444 3394 1641 3394 
Q 1925 3394 2219 3213 
L 2025 2691 
Q 1819 2813 1613 2813 
Q 1428 2813 1281 2702 
Q 1134 2591 1072 2394 
Q 978 2094 978 1738 
L 978 0 
L 416 0 
z
" transform="scale(0.015625)"/>
      <path id="ArialMT-65" d="M 2694 1069 
L 3275 997 
Q 3138 488 2766 206 
Q 2394 -75 1816 -75 
Q 1088 -75 661 373 
Q 234 822 234 1631 
Q 234 2469 665 2931 
Q 1097 3394 1784 3394 
Q 2450 3394 2872 2941 
Q 3294 2488 3294 1666 
Q 3294 1616 3291 1516 
L 816 1516 
Q 847 969 1125 678 
Q 1403 388 1819 388 
Q 2128 388 2347 550 
Q 2566 713 2694 1069 
z
M 847 1978 
L 2700 1978 
Q 2663 2397 2488 2606 
Q 2219 2931 1791 2931 
Q 1403 2931 1139 2672 
Q 875 2413 847 1978 
z
" transform="scale(0.015625)"/>
      <path id="ArialMT-73" d="M 197 991 
L 753 1078 
Q 800 744 1014 566 
Q 1228 388 1613 388 
Q 2000 388 2187 545 
Q 2375 703 2375 916 
Q 2375 1106 2209 1216 
Q 2094 1291 1634 1406 
Q 1016 1563 777 1677 
Q 538 1791 414 1992 
Q 291 2194 291 2438 
Q 291 2659 392 2848 
Q 494 3038 669 3163 
Q 800 3259 1026 3326 
Q 1253 3394 1513 3394 
Q 1903 3394 2198 3281 
Q 2494 3169 2634 2976 
Q 2775 2784 2828 2463 
L 2278 2388 
Q 2241 2644 2061 2787 
Q 1881 2931 1553 2931 
Q 1166 2931 1000 2803 
Q 834 2675 834 2503 
Q 834 2394 903 2306 
Q 972 2216 1119 2156 
Q 1203 2125 1616 2013 
Q 2213 1853 2448 1751 
Q 2684 1650 2818 1456 
Q 2953 1263 2953 975 
Q 2953 694 2789 445 
Q 2625 197 2315 61 
Q 2006 -75 1616 -75 
Q 969 -75 630 194 
Q 291 463 197 991 
z
" transform="scale(0.015625)"/>
      <path id="ArialMT-6f" d="M 213 1659 
Q 213 2581 725 3025 
Q 1153 3394 1769 3394 
Q 2453 3394 2887 2945 
Q 3322 2497 3322 1706 
Q 3322 1066 3130 698 
Q 2938 331 2570 128 
Q 2203 -75 1769 -75 
Q 1072 -75 642 372 
Q 213 819 213 1659 
z
M 791 1659 
Q 791 1022 1069 705 
Q 1347 388 1769 388 
Q 2188 388 2466 706 
Q 2744 1025 2744 1678 
Q 2744 2294 2464 2611 
Q 2184 2928 1769 2928 
Q 1347 2928 1069 2612 
Q 791 2297 791 1659 
z
" transform="scale(0.015625)"/>
      <path id="ArialMT-64" d="M 2575 0 
L 2575 419 
Q 2259 -75 1647 -75 
Q 1250 -75 917 144 
Q 584 363 401 755 
Q 219 1147 219 1656 
Q 219 2153 384 2558 
Q 550 2963 881 3178 
Q 1213 3394 1622 3394 
Q 1922 3394 2156 3267 
Q 2391 3141 2538 2938 
L 2538 4581 
L 3097 4581 
L 3097 0 
L 2575 0 
z
M 797 1656 
Q 797 1019 1065 703 
Q 1334 388 1700 388 
Q 2069 388 2326 689 
Q 2584 991 2584 1609 
Q 2584 2291 2321 2609 
Q 2059 2928 1675 2928 
Q 1300 2928 1048 2622 
Q 797 2316 797 1656 
z
" transform="scale(0.015625)"/>
      <path id="ArialMT-3a" d="M 578 2678 
L 578 3319 
L 1219 3319 
L 1219 2678 
L 578 2678 
z
M 578 0 
L 578 641 
L 1219 641 
L 1219 0 
L 578 0 
z
" transform="scale(0.015625)"/>
      <path id="ArialMT-33" d="M 269 1209 
L 831 1284 
Q 928 806 1161 595 
Q 1394 384 1728 384 
Q 2125 384 2398 659 
Q 2672 934 2672 1341 
Q 2672 1728 2419 1979 
Q 2166 2231 1775 2231 
Q 1616 2231 1378 2169 
L 1441 2663 
Q 1497 2656 1531 2656 
Q 1891 2656 2178 2843 
Q 2466 3031 2466 3422 
Q 2466 3731 2256 3934 
Q 2047 4138 1716 4138 
Q 1388 4138 1169 3931 
Q 950 3725 888 3313 
L 325 3413 
Q 428 3978 793 4289 
Q 1159 4600 1703 4600 
Q 2078 4600 2393 4439 
Q 2709 4278 2876 4000 
Q 3044 3722 3044 3409 
Q 3044 3113 2884 2869 
Q 2725 2625 2413 2481 
Q 2819 2388 3044 2092 
Q 3269 1797 3269 1353 
Q 3269 753 2831 336 
Q 2394 -81 1725 -81 
Q 1122 -81 723 278 
Q 325 638 269 1209 
z
" transform="scale(0.015625)"/>
      <path id="ArialMT-39" d="M 350 1059 
L 891 1109 
Q 959 728 1153 556 
Q 1347 384 1650 384 
Q 1909 384 2104 503 
Q 2300 622 2425 820 
Q 2550 1019 2634 1356 
Q 2719 1694 2719 2044 
Q 2719 2081 2716 2156 
Q 2547 1888 2255 1720 
Q 1963 1553 1622 1553 
Q 1053 1553 659 1965 
Q 266 2378 266 3053 
Q 266 3750 677 4175 
Q 1088 4600 1706 4600 
Q 2153 4600 2523 4359 
Q 2894 4119 3086 3673 
Q 3278 3228 3278 2384 
Q 3278 1506 3087 986 
Q 2897 466 2520 194 
Q 2144 -78 1638 -78 
Q 1100 -78 759 220 
Q 419 519 350 1059 
z
M 2653 3081 
Q 2653 3566 2395 3850 
Q 2138 4134 1775 4134 
Q 1400 4134 1122 3828 
Q 844 3522 844 3034 
Q 844 2597 1108 2323 
Q 1372 2050 1759 2050 
Q 2150 2050 2401 2323 
Q 2653 2597 2653 3081 
z
" transform="scale(0.015625)"/>
      <path id="ArialMT-35" d="M 266 1200 
L 856 1250 
Q 922 819 1161 601 
Q 1400 384 1738 384 
Q 2144 384 2425 690 
Q 2706 997 2706 1503 
Q 2706 1984 2436 2262 
Q 2166 2541 1728 2541 
Q 1456 2541 1237 2417 
Q 1019 2294 894 2097 
L 366 2166 
L 809 4519 
L 3088 4519 
L 3088 3981 
L 1259 3981 
L 1013 2750 
Q 1425 3038 1878 3038 
Q 2478 3038 2890 2622 
Q 3303 2206 3303 1553 
Q 3303 931 2941 478 
Q 2500 -78 1738 -78 
Q 1113 -78 717 272 
Q 322 622 266 1200 
z
" transform="scale(0.015625)"/>
     </defs>
     <use xlink:href="#ArialMT-4f"/>
     <use xlink:href="#ArialMT-70" transform="translate(77.783203 0)"/>
     <use xlink:href="#ArialMT-74" transform="translate(133.398438 0)"/>
     <use xlink:href="#ArialMT-69" transform="translate(161.181641 0)"/>
     <use xlink:href="#ArialMT-6d" transform="translate(183.398438 0)"/>
     <use xlink:href="#ArialMT-61" transform="translate(266.699219 0)"/>
     <use xlink:href="#ArialMT-6c" transform="translate(322.314453 0)"/>
     <use xlink:href="#ArialMT-20" transform="translate(344.53125 0)"/>
     <use xlink:href="#ArialMT-54" transform="translate(370.564453 0)"/>
     <use xlink:href="#ArialMT-68" transform="translate(431.648438 0)"/>
     <use xlink:href="#ArialMT-72" transform="translate(487.263672 0)"/>
     <use xlink:href="#ArialMT-65" transform="translate(520.564453 0)"/>
     <use xlink:href="#ArialMT-73" transform="translate(576.179688 0)"/>
     <use xlink:href="#ArialMT-68" transform="translate(626.179688 0)"/>
     <use xlink:href="#ArialMT-6f" transform="translate(681.794922 0)"/>
     <use xlink:href="#ArialMT-6c" transform="translate(737.410156 0)"/>
     <use xlink:href="#ArialMT-64" transform="translate(759.626953 0)"/>
     <use xlink:href="#ArialMT-3a" transform="translate(815.242188 0)"/>
     <use xlink:href="#ArialMT-20" transform="translate(843.025391 0)"/>
     <use xlink:href="#ArialMT-30" transform="translate(870.808594 0)"/>
     <use xlink:href="#ArialMT-2e" transform="translate(926.423828 0)"/>
     <use xlink:href="#ArialMT-33" transform="translate(954.207031 0)"/>
     <use xlink:href="#ArialMT-39" transform="translate(1009.822266 0)"/>
     <use xlink:href="#ArialMT-35" transform="translate(1065.4375 0)"/>
    </g>
    <!--          -->
    <g style="fill: #262626" transform="translate(57.4054 463.795185) scale(0.11 -0.11)">
     <use xlink:href="#ArialMT-20"/>
     <use xlink:href="#ArialMT-20" transform="translate(27.783203 0)"/>
     <use xlink:href="#ArialMT-20" transform="translate(55.566406 0)"/>
     <use xlink:href="#ArialMT-20" transform="translate(83.349609 0)"/>
     <use xlink:href="#ArialMT-20" transform="translate(111.132812 0)"/>
     <use xlink:href="#ArialMT-20" transform="translate(138.916016 0)"/>
     <use xlink:href="#ArialMT-20" transform="translate(166.699219 0)"/>
     <use xlink:href="#ArialMT-20" transform="translate(194.482422 0)"/>
    </g>
    <!-- Sensitivity: 0.781 -->
    <g style="fill: #262626" transform="translate(57.4054 475.590622) scale(0.11 -0.11)">
     <defs>
      <path id="ArialMT-53" d="M 288 1472 
L 859 1522 
Q 900 1178 1048 958 
Q 1197 738 1509 602 
Q 1822 466 2213 466 
Q 2559 466 2825 569 
Q 3091 672 3220 851 
Q 3350 1031 3350 1244 
Q 3350 1459 3225 1620 
Q 3100 1781 2813 1891 
Q 2628 1963 1997 2114 
Q 1366 2266 1113 2400 
Q 784 2572 623 2826 
Q 463 3081 463 3397 
Q 463 3744 659 4045 
Q 856 4347 1234 4503 
Q 1613 4659 2075 4659 
Q 2584 4659 2973 4495 
Q 3363 4331 3572 4012 
Q 3781 3694 3797 3291 
L 3216 3247 
Q 3169 3681 2898 3903 
Q 2628 4125 2100 4125 
Q 1550 4125 1298 3923 
Q 1047 3722 1047 3438 
Q 1047 3191 1225 3031 
Q 1400 2872 2139 2705 
Q 2878 2538 3153 2413 
Q 3553 2228 3743 1945 
Q 3934 1663 3934 1294 
Q 3934 928 3725 604 
Q 3516 281 3123 101 
Q 2731 -78 2241 -78 
Q 1619 -78 1198 103 
Q 778 284 539 648 
Q 300 1013 288 1472 
z
" transform="scale(0.015625)"/>
      <path id="ArialMT-6e" d="M 422 0 
L 422 3319 
L 928 3319 
L 928 2847 
Q 1294 3394 1984 3394 
Q 2284 3394 2536 3286 
Q 2788 3178 2913 3003 
Q 3038 2828 3088 2588 
Q 3119 2431 3119 2041 
L 3119 0 
L 2556 0 
L 2556 2019 
Q 2556 2363 2490 2533 
Q 2425 2703 2258 2804 
Q 2091 2906 1866 2906 
Q 1506 2906 1245 2678 
Q 984 2450 984 1813 
L 984 0 
L 422 0 
z
" transform="scale(0.015625)"/>
      <path id="ArialMT-76" d="M 1344 0 
L 81 3319 
L 675 3319 
L 1388 1331 
Q 1503 1009 1600 663 
Q 1675 925 1809 1294 
L 2547 3319 
L 3125 3319 
L 1869 0 
L 1344 0 
z
" transform="scale(0.015625)"/>
      <path id="ArialMT-79" d="M 397 -1278 
L 334 -750 
Q 519 -800 656 -800 
Q 844 -800 956 -737 
Q 1069 -675 1141 -563 
Q 1194 -478 1313 -144 
Q 1328 -97 1363 -6 
L 103 3319 
L 709 3319 
L 1400 1397 
Q 1534 1031 1641 628 
Q 1738 1016 1872 1384 
L 2581 3319 
L 3144 3319 
L 1881 -56 
Q 1678 -603 1566 -809 
Q 1416 -1088 1222 -1217 
Q 1028 -1347 759 -1347 
Q 597 -1347 397 -1278 
z
" transform="scale(0.015625)"/>
      <path id="ArialMT-37" d="M 303 3981 
L 303 4522 
L 3269 4522 
L 3269 4084 
Q 2831 3619 2401 2847 
Q 1972 2075 1738 1259 
Q 1569 684 1522 0 
L 944 0 
Q 953 541 1156 1306 
Q 1359 2072 1739 2783 
Q 2119 3494 2547 3981 
L 303 3981 
z
" transform="scale(0.015625)"/>
     </defs>
     <use xlink:href="#ArialMT-53"/>
     <use xlink:href="#ArialMT-65" transform="translate(66.699219 0)"/>
     <use xlink:href="#ArialMT-6e" transform="translate(122.314453 0)"/>
     <use xlink:href="#ArialMT-73" transform="translate(177.929688 0)"/>
     <use xlink:href="#ArialMT-69" transform="translate(227.929688 0)"/>
     <use xlink:href="#ArialMT-74" transform="translate(250.146484 0)"/>
     <use xlink:href="#ArialMT-69" transform="translate(277.929688 0)"/>
     <use xlink:href="#ArialMT-76" transform="translate(300.146484 0)"/>
     <use xlink:href="#ArialMT-69" transform="translate(350.146484 0)"/>
     <use xlink:href="#ArialMT-74" transform="translate(372.363281 0)"/>
     <use xlink:href="#ArialMT-79" transform="translate(400.146484 0)"/>
     <use xlink:href="#ArialMT-3a" transform="translate(450.146484 0)"/>
     <use xlink:href="#ArialMT-20" transform="translate(477.929688 0)"/>
     <use xlink:href="#ArialMT-30" transform="translate(505.712891 0)"/>
     <use xlink:href="#ArialMT-2e" transform="translate(561.328125 0)"/>
     <use xlink:href="#ArialMT-37" transform="translate(589.111328 0)"/>
     <use xlink:href="#ArialMT-38" transform="translate(644.726562 0)"/>
     <use xlink:href="#ArialMT-31" transform="translate(700.341797 0)"/>
    </g>
    <!-- Specificity: 0.566 -->
    <g style="fill: #262626" transform="translate(57.4054 487.514966) scale(0.11 -0.11)">
     <defs>
      <path id="ArialMT-63" d="M 2588 1216 
L 3141 1144 
Q 3050 572 2676 248 
Q 2303 -75 1759 -75 
Q 1078 -75 664 370 
Q 250 816 250 1647 
Q 250 2184 428 2587 
Q 606 2991 970 3192 
Q 1334 3394 1763 3394 
Q 2303 3394 2647 3120 
Q 2991 2847 3088 2344 
L 2541 2259 
Q 2463 2594 2264 2762 
Q 2066 2931 1784 2931 
Q 1359 2931 1093 2626 
Q 828 2322 828 1663 
Q 828 994 1084 691 
Q 1341 388 1753 388 
Q 2084 388 2306 591 
Q 2528 794 2588 1216 
z
" transform="scale(0.015625)"/>
      <path id="ArialMT-66" d="M 556 0 
L 556 2881 
L 59 2881 
L 59 3319 
L 556 3319 
L 556 3672 
Q 556 4006 616 4169 
Q 697 4388 901 4523 
Q 1106 4659 1475 4659 
Q 1713 4659 2000 4603 
L 1916 4113 
Q 1741 4144 1584 4144 
Q 1328 4144 1222 4034 
Q 1116 3925 1116 3625 
L 1116 3319 
L 1763 3319 
L 1763 2881 
L 1116 2881 
L 1116 0 
L 556 0 
z
" transform="scale(0.015625)"/>
     </defs>
     <use xlink:href="#ArialMT-53"/>
     <use xlink:href="#ArialMT-70" transform="translate(66.699219 0)"/>
     <use xlink:href="#ArialMT-65" transform="translate(122.314453 0)"/>
     <use xlink:href="#ArialMT-63" transform="translate(177.929688 0)"/>
     <use xlink:href="#ArialMT-69" transform="translate(227.929688 0)"/>
     <use xlink:href="#ArialMT-66" transform="translate(250.146484 0)"/>
     <use xlink:href="#ArialMT-69" transform="translate(277.929688 0)"/>
     <use xlink:href="#ArialMT-63" transform="translate(300.146484 0)"/>
     <use xlink:href="#ArialMT-69" transform="translate(350.146484 0)"/>
     <use xlink:href="#ArialMT-74" transform="translate(372.363281 0)"/>
     <use xlink:href="#ArialMT-79" transform="translate(400.146484 0)"/>
     <use xlink:href="#ArialMT-3a" transform="translate(450.146484 0)"/>
     <use xlink:href="#ArialMT-20" transform="translate(477.929688 0)"/>
     <use xlink:href="#ArialMT-30" transform="translate(505.712891 0)"/>
     <use xlink:href="#ArialMT-2e" transform="translate(561.328125 0)"/>
     <use xlink:href="#ArialMT-35" transform="translate(589.111328 0)"/>
     <use xlink:href="#ArialMT-36" transform="translate(644.726562 0)"/>
     <use xlink:href="#ArialMT-36" transform="translate(700.341797 0)"/>
    </g>
    <!-- PPV: 0.413 -->
    <g style="fill: #262626" transform="translate(57.4054 499.278435) scale(0.11 -0.11)">
     <defs>
      <path id="ArialMT-50" d="M 494 0 
L 494 4581 
L 2222 4581 
Q 2678 4581 2919 4538 
Q 3256 4481 3484 4323 
Q 3713 4166 3852 3881 
Q 3991 3597 3991 3256 
Q 3991 2672 3619 2267 
Q 3247 1863 2275 1863 
L 1100 1863 
L 1100 0 
L 494 0 
z
M 1100 2403 
L 2284 2403 
Q 2872 2403 3119 2622 
Q 3366 2841 3366 3238 
Q 3366 3525 3220 3729 
Q 3075 3934 2838 4000 
Q 2684 4041 2272 4041 
L 1100 4041 
L 1100 2403 
z
" transform="scale(0.015625)"/>
      <path id="ArialMT-56" d="M 1803 0 
L 28 4581 
L 684 4581 
L 1875 1253 
Q 2019 853 2116 503 
Q 2222 878 2363 1253 
L 3600 4581 
L 4219 4581 
L 2425 0 
L 1803 0 
z
" transform="scale(0.015625)"/>
     </defs>
     <use xlink:href="#ArialMT-50"/>
     <use xlink:href="#ArialMT-50" transform="translate(66.699219 0)"/>
     <use xlink:href="#ArialMT-56" transform="translate(133.398438 0)"/>
     <use xlink:href="#ArialMT-3a" transform="translate(196.347656 0)"/>
     <use xlink:href="#ArialMT-20" transform="translate(224.130859 0)"/>
     <use xlink:href="#ArialMT-30" transform="translate(251.914062 0)"/>
     <use xlink:href="#ArialMT-2e" transform="translate(307.529297 0)"/>
     <use xlink:href="#ArialMT-34" transform="translate(335.3125 0)"/>
     <use xlink:href="#ArialMT-31" transform="translate(390.927734 0)"/>
     <use xlink:href="#ArialMT-33" transform="translate(446.542969 0)"/>
    </g>
    <!-- NPV: 0.869 -->
    <g style="fill: #262626" transform="translate(57.4054 510.912997) scale(0.11 -0.11)">
     <defs>
      <path id="ArialMT-4e" d="M 488 0 
L 488 4581 
L 1109 4581 
L 3516 984 
L 3516 4581 
L 4097 4581 
L 4097 0 
L 3475 0 
L 1069 3600 
L 1069 0 
L 488 0 
z
" transform="scale(0.015625)"/>
     </defs>
     <use xlink:href="#ArialMT-4e"/>
     <use xlink:href="#ArialMT-50" transform="translate(72.216797 0)"/>
     <use xlink:href="#ArialMT-56" transform="translate(138.916016 0)"/>
     <use xlink:href="#ArialMT-3a" transform="translate(201.865234 0)"/>
     <use xlink:href="#ArialMT-20" transform="translate(229.648438 0)"/>
     <use xlink:href="#ArialMT-30" transform="translate(257.431641 0)"/>
     <use xlink:href="#ArialMT-2e" transform="translate(313.046875 0)"/>
     <use xlink:href="#ArialMT-38" transform="translate(340.830078 0)"/>
     <use xlink:href="#ArialMT-36" transform="translate(396.445312 0)"/>
     <use xlink:href="#ArialMT-39" transform="translate(452.060547 0)"/>
    </g>
    <!-- F1 Score: 0.540 -->
    <g style="fill: #262626" transform="translate(57.4054 522.54756) scale(0.11 -0.11)">
     <defs>
      <path id="ArialMT-46" d="M 525 0 
L 525 4581 
L 3616 4581 
L 3616 4041 
L 1131 4041 
L 1131 2622 
L 3281 2622 
L 3281 2081 
L 1131 2081 
L 1131 0 
L 525 0 
z
" transform="scale(0.015625)"/>
     </defs>
     <use xlink:href="#ArialMT-46"/>
     <use xlink:href="#ArialMT-31" transform="translate(61.083984 0)"/>
     <use xlink:href="#ArialMT-20" transform="translate(116.699219 0)"/>
     <use xlink:href="#ArialMT-53" transform="translate(144.482422 0)"/>
     <use xlink:href="#ArialMT-63" transform="translate(211.181641 0)"/>
     <use xlink:href="#ArialMT-6f" transform="translate(261.181641 0)"/>
     <use xlink:href="#ArialMT-72" transform="translate(316.796875 0)"/>
     <use xlink:href="#ArialMT-65" transform="translate(350.097656 0)"/>
     <use xlink:href="#ArialMT-3a" transform="translate(405.712891 0)"/>
     <use xlink:href="#ArialMT-20" transform="translate(433.496094 0)"/>
     <use xlink:href="#ArialMT-30" transform="translate(461.279297 0)"/>
     <use xlink:href="#ArialMT-2e" transform="translate(516.894531 0)"/>
     <use xlink:href="#ArialMT-35" transform="translate(544.677734 0)"/>
     <use xlink:href="#ArialMT-34" transform="translate(600.292969 0)"/>
     <use xlink:href="#ArialMT-30" transform="translate(655.908203 0)"/>
    </g>
   </g>
   <g id="text_17">
    <!-- Performance Metrics vs Classification Threshold -->
    <g style="fill: #262626" transform="translate(256.5425 18.6525) scale(0.16 -0.16)">
     <defs>
      <path id="Arial-BoldMT-50" d="M 466 0 
L 466 4581 
L 1950 4581 
Q 2794 4581 3050 4513 
Q 3444 4409 3709 4064 
Q 3975 3719 3975 3172 
Q 3975 2750 3822 2462 
Q 3669 2175 3433 2011 
Q 3197 1847 2953 1794 
Q 2622 1728 1994 1728 
L 1391 1728 
L 1391 0 
L 466 0 
z
M 1391 3806 
L 1391 2506 
L 1897 2506 
Q 2444 2506 2628 2578 
Q 2813 2650 2917 2803 
Q 3022 2956 3022 3159 
Q 3022 3409 2875 3571 
Q 2728 3734 2503 3775 
Q 2338 3806 1838 3806 
L 1391 3806 
z
" transform="scale(0.015625)"/>
      <path id="Arial-BoldMT-76" d="M 1372 0 
L 34 3319 
L 956 3319 
L 1581 1625 
L 1763 1059 
Q 1834 1275 1853 1344 
Q 1897 1484 1947 1625 
L 2578 3319 
L 3481 3319 
L 2163 0 
L 1372 0 
z
" transform="scale(0.015625)"/>
     </defs>
     <use xlink:href="#Arial-BoldMT-50"/>
     <use xlink:href="#Arial-BoldMT-65" transform="translate(66.699219 0)"/>
     <use xlink:href="#Arial-BoldMT-72" transform="translate(122.314453 0)"/>
     <use xlink:href="#Arial-BoldMT-66" transform="translate(161.230469 0)"/>
     <use xlink:href="#Arial-BoldMT-6f" transform="translate(194.53125 0)"/>
     <use xlink:href="#Arial-BoldMT-72" transform="translate(255.615234 0)"/>
     <use xlink:href="#Arial-BoldMT-6d" transform="translate(294.53125 0)"/>
     <use xlink:href="#Arial-BoldMT-61" transform="translate(383.447266 0)"/>
     <use xlink:href="#Arial-BoldMT-6e" transform="translate(439.0625 0)"/>
     <use xlink:href="#Arial-BoldMT-63" transform="translate(500.146484 0)"/>
     <use xlink:href="#Arial-BoldMT-65" transform="translate(555.761719 0)"/>
     <use xlink:href="#Arial-BoldMT-20" transform="translate(611.376953 0)"/>
     <use xlink:href="#Arial-BoldMT-4d" transform="translate(639.160156 0)"/>
     <use xlink:href="#Arial-BoldMT-65" transform="translate(722.460938 0)"/>
     <use xlink:href="#Arial-BoldMT-74" transform="translate(778.076172 0)"/>
     <use xlink:href="#Arial-BoldMT-72" transform="translate(811.376953 0)"/>
     <use xlink:href="#Arial-BoldMT-69" transform="translate(850.292969 0)"/>
     <use xlink:href="#Arial-BoldMT-63" transform="translate(878.076172 0)"/>
     <use xlink:href="#Arial-BoldMT-73" transform="translate(933.691406 0)"/>
     <use xlink:href="#Arial-BoldMT-20" transform="translate(989.306641 0)"/>
     <use xlink:href="#Arial-BoldMT-76" transform="translate(1017.089844 0)"/>
     <use xlink:href="#Arial-BoldMT-73" transform="translate(1072.705078 0)"/>
     <use xlink:href="#Arial-BoldMT-20" transform="translate(1128.320312 0)"/>
     <use xlink:href="#Arial-BoldMT-43" transform="translate(1156.103516 0)"/>
     <use xlink:href="#Arial-BoldMT-6c" transform="translate(1228.320312 0)"/>
     <use xlink:href="#Arial-BoldMT-61" transform="translate(1256.103516 0)"/>
     <use xlink:href="#Arial-BoldMT-73" transform="translate(1311.71875 0)"/>
     <use xlink:href="#Arial-BoldMT-73" transform="translate(1367.333984 0)"/>
     <use xlink:href="#Arial-BoldMT-69" transform="translate(1422.949219 0)"/>
     <use xlink:href="#Arial-BoldMT-66" transform="translate(1450.732422 0)"/>
     <use xlink:href="#Arial-BoldMT-69" transform="translate(1484.033203 0)"/>
     <use xlink:href="#Arial-BoldMT-63" transform="translate(1511.816406 0)"/>
     <use xlink:href="#Arial-BoldMT-61" transform="translate(1567.431641 0)"/>
     <use xlink:href="#Arial-BoldMT-74" transform="translate(1623.046875 0)"/>
     <use xlink:href="#Arial-BoldMT-69" transform="translate(1656.347656 0)"/>
     <use xlink:href="#Arial-BoldMT-6f" transform="translate(1684.130859 0)"/>
     <use xlink:href="#Arial-BoldMT-6e" transform="translate(1745.214844 0)"/>
     <use xlink:href="#Arial-BoldMT-20" transform="translate(1806.298828 0)"/>
     <use xlink:href="#Arial-BoldMT-54" transform="translate(1834.082031 0)"/>
     <use xlink:href="#Arial-BoldMT-68" transform="translate(1895.166016 0)"/>
     <use xlink:href="#Arial-BoldMT-72" transform="translate(1956.25 0)"/>
     <use xlink:href="#Arial-BoldMT-65" transform="translate(1995.166016 0)"/>
     <use xlink:href="#Arial-BoldMT-73" transform="translate(2050.78125 0)"/>
     <use xlink:href="#Arial-BoldMT-68" transform="translate(2106.396484 0)"/>
     <use xlink:href="#Arial-BoldMT-6f" transform="translate(2167.480469 0)"/>
     <use xlink:href="#Arial-BoldMT-6c" transform="translate(2228.564453 0)"/>
     <use xlink:href="#Arial-BoldMT-64" transform="translate(2256.347656 0)"/>
    </g>
    <!-- XGBoost Model with MICE Imputation -->
    <g style="fill: #262626" transform="translate(298.83125 35.787) scale(0.16 -0.16)">
     <defs>
      <path id="Arial-BoldMT-58" d="M 0 0 
L 1566 2391 
L 147 4581 
L 1228 4581 
L 2147 3109 
L 3047 4581 
L 4119 4581 
L 2694 2356 
L 4259 0 
L 3144 0 
L 2128 1584 
L 1109 0 
L 0 0 
z
" transform="scale(0.015625)"/>
      <path id="Arial-BoldMT-47" d="M 2597 1684 
L 2597 2456 
L 4591 2456 
L 4591 631 
Q 4300 350 3748 136 
Q 3197 -78 2631 -78 
Q 1913 -78 1378 223 
Q 844 525 575 1086 
Q 306 1647 306 2306 
Q 306 3022 606 3578 
Q 906 4134 1484 4431 
Q 1925 4659 2581 4659 
Q 3434 4659 3914 4301 
Q 4394 3944 4531 3313 
L 3613 3141 
Q 3516 3478 3248 3673 
Q 2981 3869 2581 3869 
Q 1975 3869 1617 3484 
Q 1259 3100 1259 2344 
Q 1259 1528 1621 1120 
Q 1984 713 2572 713 
Q 2863 713 3155 827 
Q 3447 941 3656 1103 
L 3656 1684 
L 2597 1684 
z
" transform="scale(0.015625)"/>
      <path id="Arial-BoldMT-42" d="M 469 4581 
L 2300 4581 
Q 2844 4581 3111 4536 
Q 3378 4491 3589 4347 
Q 3800 4203 3940 3964 
Q 4081 3725 4081 3428 
Q 4081 3106 3907 2837 
Q 3734 2569 3438 2434 
Q 3856 2313 4081 2019 
Q 4306 1725 4306 1328 
Q 4306 1016 4161 720 
Q 4016 425 3764 248 
Q 3513 72 3144 31 
Q 2913 6 2028 0 
L 469 0 
L 469 4581 
z
M 1394 3819 
L 1394 2759 
L 2000 2759 
Q 2541 2759 2672 2775 
Q 2909 2803 3045 2939 
Q 3181 3075 3181 3297 
Q 3181 3509 3064 3642 
Q 2947 3775 2716 3803 
Q 2578 3819 1925 3819 
L 1394 3819 
z
M 1394 1997 
L 1394 772 
L 2250 772 
Q 2750 772 2884 800 
Q 3091 838 3220 983 
Q 3350 1128 3350 1372 
Q 3350 1578 3250 1722 
Q 3150 1866 2961 1931 
Q 2772 1997 2141 1997 
L 1394 1997 
z
" transform="scale(0.015625)"/>
      <path id="Arial-BoldMT-77" d="M 1078 0 
L 28 3319 
L 881 3319 
L 1503 1144 
L 2075 3319 
L 2922 3319 
L 3475 1144 
L 4109 3319 
L 4975 3319 
L 3909 0 
L 3066 0 
L 2494 2134 
L 1931 0 
L 1078 0 
z
" transform="scale(0.015625)"/>
      <path id="Arial-BoldMT-49" d="M 438 0 
L 438 4581 
L 1363 4581 
L 1363 0 
L 438 0 
z
" transform="scale(0.015625)"/>
      <path id="Arial-BoldMT-45" d="M 466 0 
L 466 4581 
L 3863 4581 
L 3863 3806 
L 1391 3806 
L 1391 2791 
L 3691 2791 
L 3691 2019 
L 1391 2019 
L 1391 772 
L 3950 772 
L 3950 0 
L 466 0 
z
" transform="scale(0.015625)"/>
     </defs>
     <use xlink:href="#Arial-BoldMT-58"/>
     <use xlink:href="#Arial-BoldMT-47" transform="translate(66.699219 0)"/>
     <use xlink:href="#Arial-BoldMT-42" transform="translate(144.482422 0)"/>
     <use xlink:href="#Arial-BoldMT-6f" transform="translate(216.699219 0)"/>
     <use xlink:href="#Arial-BoldMT-6f" transform="translate(277.783203 0)"/>
     <use xlink:href="#Arial-BoldMT-73" transform="translate(338.867188 0)"/>
     <use xlink:href="#Arial-BoldMT-74" transform="translate(394.482422 0)"/>
     <use xlink:href="#Arial-BoldMT-20" transform="translate(427.783203 0)"/>
     <use xlink:href="#Arial-BoldMT-4d" transform="translate(455.566406 0)"/>
     <use xlink:href="#Arial-BoldMT-6f" transform="translate(538.867188 0)"/>
     <use xlink:href="#Arial-BoldMT-64" transform="translate(599.951172 0)"/>
     <use xlink:href="#Arial-BoldMT-65" transform="translate(661.035156 0)"/>
     <use xlink:href="#Arial-BoldMT-6c" transform="translate(716.650391 0)"/>
     <use xlink:href="#Arial-BoldMT-20" transform="translate(744.433594 0)"/>
     <use xlink:href="#Arial-BoldMT-77" transform="translate(772.216797 0)"/>
     <use xlink:href="#Arial-BoldMT-69" transform="translate(850 0)"/>
     <use xlink:href="#Arial-BoldMT-74" transform="translate(877.783203 0)"/>
     <use xlink:href="#Arial-BoldMT-68" transform="translate(911.083984 0)"/>
     <use xlink:href="#Arial-BoldMT-20" transform="translate(972.167969 0)"/>
     <use xlink:href="#Arial-BoldMT-4d" transform="translate(999.951172 0)"/>
     <use xlink:href="#Arial-BoldMT-49" transform="translate(1083.251953 0)"/>
     <use xlink:href="#Arial-BoldMT-43" transform="translate(1111.035156 0)"/>
     <use xlink:href="#Arial-BoldMT-45" transform="translate(1183.251953 0)"/>
     <use xlink:href="#Arial-BoldMT-20" transform="translate(1249.951172 0)"/>
     <use xlink:href="#Arial-BoldMT-49" transform="translate(1277.734375 0)"/>
     <use xlink:href="#Arial-BoldMT-6d" transform="translate(1305.517578 0)"/>
     <use xlink:href="#Arial-BoldMT-70" transform="translate(1394.433594 0)"/>
     <use xlink:href="#Arial-BoldMT-75" transform="translate(1455.517578 0)"/>
     <use xlink:href="#Arial-BoldMT-74" transform="translate(1516.601562 0)"/>
     <use xlink:href="#Arial-BoldMT-61" transform="translate(1549.902344 0)"/>
     <use xlink:href="#Arial-BoldMT-74" transform="translate(1605.517578 0)"/>
     <use xlink:href="#Arial-BoldMT-69" transform="translate(1638.818359 0)"/>
     <use xlink:href="#Arial-BoldMT-6f" transform="translate(1666.601562 0)"/>
     <use xlink:href="#Arial-BoldMT-6e" transform="translate(1727.685547 0)"/>
    </g>
   </g>
   <g id="legend_1">
    <g id="patch_8">
     <path d="M 654.625156 99.792469 
L 836.76625 99.792469 
Q 838.96625 99.792469 838.96625 97.592469 
L 838.96625 51.487 
Q 838.96625 49.287 836.76625 49.287 
L 654.625156 49.287 
Q 652.425156 49.287 652.425156 51.487 
L 652.425156 97.592469 
Q 652.425156 99.792469 654.625156 99.792469 
z
" style="fill: #4d4d4d; opacity: 0.5; stroke: #4d4d4d; stroke-linejoin: miter"/>
    </g>
    <g id="patch_9">
     <path d="M 652.625156 97.792469 
L 834.76625 97.792469 
Q 836.96625 97.792469 836.96625 95.592469 
L 836.96625 49.487 
Q 836.96625 47.287 834.76625 47.287 
L 652.625156 47.287 
Q 650.425156 47.287 650.425156 49.487 
L 650.425156 95.592469 
Q 650.425156 97.792469 652.625156 97.792469 
z
" style="fill: #ffffff; stroke: #cccccc; stroke-linejoin: miter"/>
    </g>
    <g id="line2d_31">
     <path d="M 654.825156 55.844656 
L 665.825156 55.844656 
L 676.825156 55.844656 
" style="fill: none; stroke: #2e86ab; stroke-width: 2.5; stroke-linecap: round"/>
    </g>
    <g id="text_18">
     <!-- Sensitivity -->
     <g style="fill: #262626" transform="translate(685.625156 59.694656) scale(0.11 -0.11)">
      <use xlink:href="#ArialMT-53"/>
      <use xlink:href="#ArialMT-65" transform="translate(66.699219 0)"/>
      <use xlink:href="#ArialMT-6e" transform="translate(122.314453 0)"/>
      <use xlink:href="#ArialMT-73" transform="translate(177.929688 0)"/>
      <use xlink:href="#ArialMT-69" transform="translate(227.929688 0)"/>
      <use xlink:href="#ArialMT-74" transform="translate(250.146484 0)"/>
      <use xlink:href="#ArialMT-69" transform="translate(277.929688 0)"/>
      <use xlink:href="#ArialMT-76" transform="translate(300.146484 0)"/>
      <use xlink:href="#ArialMT-69" transform="translate(350.146484 0)"/>
      <use xlink:href="#ArialMT-74" transform="translate(372.363281 0)"/>
      <use xlink:href="#ArialMT-79" transform="translate(400.146484 0)"/>
     </g>
    </g>
    <g id="line2d_32">
     <path d="M 654.825156 71.667469 
L 665.825156 71.667469 
L 676.825156 71.667469 
" style="fill: none; stroke: #a23b72; stroke-width: 2.5; stroke-linecap: round"/>
    </g>
    <g id="text_19">
     <!-- Specificity -->
     <g style="fill: #262626" transform="translate(685.625156 75.517469) scale(0.11 -0.11)">
      <use xlink:href="#ArialMT-53"/>
      <use xlink:href="#ArialMT-70" transform="translate(66.699219 0)"/>
      <use xlink:href="#ArialMT-65" transform="translate(122.314453 0)"/>
      <use xlink:href="#ArialMT-63" transform="translate(177.929688 0)"/>
      <use xlink:href="#ArialMT-69" transform="translate(227.929688 0)"/>
      <use xlink:href="#ArialMT-66" transform="translate(250.146484 0)"/>
      <use xlink:href="#ArialMT-69" transform="translate(277.929688 0)"/>
      <use xlink:href="#ArialMT-63" transform="translate(300.146484 0)"/>
      <use xlink:href="#ArialMT-69" transform="translate(350.146484 0)"/>
      <use xlink:href="#ArialMT-74" transform="translate(372.363281 0)"/>
      <use xlink:href="#ArialMT-79" transform="translate(400.146484 0)"/>
     </g>
    </g>
    <g id="line2d_33">
     <path d="M 654.825156 87.356219 
L 665.825156 87.356219 
L 676.825156 87.356219 
" style="fill: none; stroke-dasharray: 7.4,3.2; stroke-dashoffset: 0; stroke: #f18f01; stroke-width: 2"/>
    </g>
    <g id="text_20">
     <!-- PPV -->
     <g style="fill: #262626" transform="translate(685.625156 91.206219) scale(0.11 -0.11)">
      <use xlink:href="#ArialMT-50"/>
      <use xlink:href="#ArialMT-50" transform="translate(66.699219 0)"/>
      <use xlink:href="#ArialMT-56" transform="translate(133.398438 0)"/>
     </g>
    </g>
    <g id="line2d_34">
     <path d="M 757.140625 55.844656 
L 768.140625 55.844656 
L 779.140625 55.844656 
" style="fill: none; stroke-dasharray: 7.4,3.2; stroke-dashoffset: 0; stroke: #8b5a3c; stroke-width: 2"/>
    </g>
    <g id="text_21">
     <!-- NPV -->
     <g style="fill: #262626" transform="translate(787.940625 59.694656) scale(0.11 -0.11)">
      <use xlink:href="#ArialMT-4e"/>
      <use xlink:href="#ArialMT-50" transform="translate(72.216797 0)"/>
      <use xlink:href="#ArialMT-56" transform="translate(138.916016 0)"/>
     </g>
    </g>
    <g id="line2d_35">
     <path d="M 757.140625 71.4045 
L 768.140625 71.4045 
L 779.140625 71.4045 
" style="fill: none; stroke-dasharray: 2.5,4.125; stroke-dashoffset: 0; stroke: #006e90; stroke-width: 2.5"/>
    </g>
    <g id="text_22">
     <!-- F1 Score -->
     <g style="fill: #262626" transform="translate(787.940625 75.2545) scale(0.11 -0.11)">
      <use xlink:href="#ArialMT-46"/>
      <use xlink:href="#ArialMT-31" transform="translate(61.083984 0)"/>
      <use xlink:href="#ArialMT-20" transform="translate(116.699219 0)"/>
      <use xlink:href="#ArialMT-53" transform="translate(144.482422 0)"/>
      <use xlink:href="#ArialMT-63" transform="translate(211.181641 0)"/>
      <use xlink:href="#ArialMT-6f" transform="translate(261.181641 0)"/>
      <use xlink:href="#ArialMT-72" transform="translate(316.796875 0)"/>
      <use xlink:href="#ArialMT-65" transform="translate(350.097656 0)"/>
     </g>
    </g>
   </g>
  </g>
 </g>
 <defs>
  <clipPath id="p40cb5d17a3">
   <rect x="41.38375" y="41.787" width="801.0825" height="490.572"/>
  </clipPath>
 </defs>
</svg>
