<?xml version="1.0" encoding="utf-8" standalone="no"?>
<!DOCTYPE svg PUBLIC "-//W3C//DTD SVG 1.1//EN"
  "http://www.w3.org/Graphics/SVG/1.1/DTD/svg11.dtd">
<svg xmlns:xlink="http://www.w3.org/1999/xlink" width="524.74625pt" height="501.871875pt" viewBox="0 0 524.74625 501.871875" xmlns="http://www.w3.org/2000/svg" version="1.1">
 <metadata>
  <rdf:RDF xmlns:dc="http://purl.org/dc/elements/1.1/" xmlns:cc="http://creativecommons.org/ns#" xmlns:rdf="http://www.w3.org/1999/02/22-rdf-syntax-ns#">
   <cc:Work>
    <dc:type rdf:resource="http://purl.org/dc/dcmitype/StillImage"/>
    <dc:date>2025-10-04T15:45:21.270814</dc:date>
    <dc:format>image/svg+xml</dc:format>
    <dc:creator>
     <cc:Agent>
      <dc:title>Matplotlib v3.10.6, https://matplotlib.org/</dc:title>
     </cc:Agent>
    </dc:creator>
   </cc:Work>
  </rdf:RDF>
 </metadata>
 <defs>
  <style type="text/css">*{stroke-linejoin: round; stroke-linecap: butt}</style>
 </defs>
 <g id="figure_1">
  <g id="patch_1">
   <path d="M 0 501.871875 
L 524.74625 501.871875 
L 524.74625 0 
L 0 0 
z
" style="fill: #ffffff"/>
  </g>
  <g id="axes_1">
   <g id="patch_2">
    <path d="M 39.5575 466.911562 
L 485.9575 466.911562 
L 485.9575 23.391562 
L 39.5575 23.391562 
z
" style="fill: #ffffff"/>
   </g>
   <g id="matplotlib.axis_1">
    <g id="xtick_1">
     <g id="line2d_1">
      <path d="M 39.5575 466.911562 
L 39.5575 23.391562 
" clip-path="url(#p2fba04ba37)" style="fill: none; stroke: #cccccc; stroke-opacity: 0.3; stroke-width: 0.8; stroke-linecap: round"/>
     </g>
     <g id="line2d_2"/>
     <g id="text_1">
      <!-- 0.0 -->
      <g style="fill: #262626" transform="translate(32.6075 477.569375) scale(0.1 -0.1)">
       <defs>
        <path id="ArialMT-30" d="M 266 2259 
Q 266 3072 433 3567 
Q 600 4063 929 4331 
Q 1259 4600 1759 4600 
Q 2128 4600 2406 4451 
Q 2684 4303 2865 4023 
Q 3047 3744 3150 3342 
Q 3253 2941 3253 2259 
Q 3253 1453 3087 958 
Q 2922 463 2592 192 
Q 2263 -78 1759 -78 
Q 1097 -78 719 397 
Q 266 969 266 2259 
z
M 844 2259 
Q 844 1131 1108 757 
Q 1372 384 1759 384 
Q 2147 384 2411 759 
Q 2675 1134 2675 2259 
Q 2675 3391 2411 3762 
Q 2147 4134 1753 4134 
Q 1366 4134 1134 3806 
Q 844 3388 844 2259 
z
" transform="scale(0.015625)"/>
        <path id="ArialMT-2e" d="M 581 0 
L 581 641 
L 1222 641 
L 1222 0 
L 581 0 
z
" transform="scale(0.015625)"/>
       </defs>
       <use xlink:href="#ArialMT-30"/>
       <use xlink:href="#ArialMT-2e" transform="translate(55.615234 0)"/>
       <use xlink:href="#ArialMT-30" transform="translate(83.398438 0)"/>
      </g>
     </g>
    </g>
    <g id="xtick_2">
     <g id="line2d_3">
      <path d="M 128.8375 466.911562 
L 128.8375 23.391562 
" clip-path="url(#p2fba04ba37)" style="fill: none; stroke: #cccccc; stroke-opacity: 0.3; stroke-width: 0.8; stroke-linecap: round"/>
     </g>
     <g id="line2d_4"/>
     <g id="text_2">
      <!-- 0.2 -->
      <g style="fill: #262626" transform="translate(121.8875 477.569375) scale(0.1 -0.1)">
       <defs>
        <path id="ArialMT-32" d="M 3222 541 
L 3222 0 
L 194 0 
Q 188 203 259 391 
Q 375 700 629 1000 
Q 884 1300 1366 1694 
Q 2113 2306 2375 2664 
Q 2638 3022 2638 3341 
Q 2638 3675 2398 3904 
Q 2159 4134 1775 4134 
Q 1369 4134 1125 3890 
Q 881 3647 878 3216 
L 300 3275 
Q 359 3922 746 4261 
Q 1134 4600 1788 4600 
Q 2447 4600 2831 4234 
Q 3216 3869 3216 3328 
Q 3216 3053 3103 2787 
Q 2991 2522 2730 2228 
Q 2469 1934 1863 1422 
Q 1356 997 1212 845 
Q 1069 694 975 541 
L 3222 541 
z
" transform="scale(0.015625)"/>
       </defs>
       <use xlink:href="#ArialMT-30"/>
       <use xlink:href="#ArialMT-2e" transform="translate(55.615234 0)"/>
       <use xlink:href="#ArialMT-32" transform="translate(83.398438 0)"/>
      </g>
     </g>
    </g>
    <g id="xtick_3">
     <g id="line2d_5">
      <path d="M 218.1175 466.911562 
L 218.1175 23.391562 
" clip-path="url(#p2fba04ba37)" style="fill: none; stroke: #cccccc; stroke-opacity: 0.3; stroke-width: 0.8; stroke-linecap: round"/>
     </g>
     <g id="line2d_6"/>
     <g id="text_3">
      <!-- 0.4 -->
      <g style="fill: #262626" transform="translate(211.1675 477.569375) scale(0.1 -0.1)">
       <defs>
        <path id="ArialMT-34" d="M 2069 0 
L 2069 1097 
L 81 1097 
L 81 1613 
L 2172 4581 
L 2631 4581 
L 2631 1613 
L 3250 1613 
L 3250 1097 
L 2631 1097 
L 2631 0 
L 2069 0 
z
M 2069 1613 
L 2069 3678 
L 634 1613 
L 2069 1613 
z
" transform="scale(0.015625)"/>
       </defs>
       <use xlink:href="#ArialMT-30"/>
       <use xlink:href="#ArialMT-2e" transform="translate(55.615234 0)"/>
       <use xlink:href="#ArialMT-34" transform="translate(83.398438 0)"/>
      </g>
     </g>
    </g>
    <g id="xtick_4">
     <g id="line2d_7">
      <path d="M 307.3975 466.911562 
L 307.3975 23.391562 
" clip-path="url(#p2fba04ba37)" style="fill: none; stroke: #cccccc; stroke-opacity: 0.3; stroke-width: 0.8; stroke-linecap: round"/>
     </g>
     <g id="line2d_8"/>
     <g id="text_4">
      <!-- 0.6 -->
      <g style="fill: #262626" transform="translate(300.4475 477.569375) scale(0.1 -0.1)">
       <defs>
        <path id="ArialMT-36" d="M 3184 3459 
L 2625 3416 
Q 2550 3747 2413 3897 
Q 2184 4138 1850 4138 
Q 1581 4138 1378 3988 
Q 1113 3794 959 3422 
Q 806 3050 800 2363 
Q 1003 2672 1297 2822 
Q 1591 2972 1913 2972 
Q 2475 2972 2870 2558 
Q 3266 2144 3266 1488 
Q 3266 1056 3080 686 
Q 2894 316 2569 119 
Q 2244 -78 1831 -78 
Q 1128 -78 684 439 
Q 241 956 241 2144 
Q 241 3472 731 4075 
Q 1159 4600 1884 4600 
Q 2425 4600 2770 4297 
Q 3116 3994 3184 3459 
z
M 888 1484 
Q 888 1194 1011 928 
Q 1134 663 1356 523 
Q 1578 384 1822 384 
Q 2178 384 2434 671 
Q 2691 959 2691 1453 
Q 2691 1928 2437 2201 
Q 2184 2475 1800 2475 
Q 1419 2475 1153 2201 
Q 888 1928 888 1484 
z
" transform="scale(0.015625)"/>
       </defs>
       <use xlink:href="#ArialMT-30"/>
       <use xlink:href="#ArialMT-2e" transform="translate(55.615234 0)"/>
       <use xlink:href="#ArialMT-36" transform="translate(83.398438 0)"/>
      </g>
     </g>
    </g>
    <g id="xtick_5">
     <g id="line2d_9">
      <path d="M 396.6775 466.911562 
L 396.6775 23.391562 
" clip-path="url(#p2fba04ba37)" style="fill: none; stroke: #cccccc; stroke-opacity: 0.3; stroke-width: 0.8; stroke-linecap: round"/>
     </g>
     <g id="line2d_10"/>
     <g id="text_5">
      <!-- 0.8 -->
      <g style="fill: #262626" transform="translate(389.7275 477.569375) scale(0.1 -0.1)">
       <defs>
        <path id="ArialMT-38" d="M 1131 2484 
Q 781 2613 612 2850 
Q 444 3088 444 3419 
Q 444 3919 803 4259 
Q 1163 4600 1759 4600 
Q 2359 4600 2725 4251 
Q 3091 3903 3091 3403 
Q 3091 3084 2923 2848 
Q 2756 2613 2416 2484 
Q 2838 2347 3058 2040 
Q 3278 1734 3278 1309 
Q 3278 722 2862 322 
Q 2447 -78 1769 -78 
Q 1091 -78 675 323 
Q 259 725 259 1325 
Q 259 1772 486 2073 
Q 713 2375 1131 2484 
z
M 1019 3438 
Q 1019 3113 1228 2906 
Q 1438 2700 1772 2700 
Q 2097 2700 2305 2904 
Q 2513 3109 2513 3406 
Q 2513 3716 2298 3927 
Q 2084 4138 1766 4138 
Q 1444 4138 1231 3931 
Q 1019 3725 1019 3438 
z
M 838 1322 
Q 838 1081 952 856 
Q 1066 631 1291 507 
Q 1516 384 1775 384 
Q 2178 384 2440 643 
Q 2703 903 2703 1303 
Q 2703 1709 2433 1975 
Q 2163 2241 1756 2241 
Q 1359 2241 1098 1978 
Q 838 1716 838 1322 
z
" transform="scale(0.015625)"/>
       </defs>
       <use xlink:href="#ArialMT-30"/>
       <use xlink:href="#ArialMT-2e" transform="translate(55.615234 0)"/>
       <use xlink:href="#ArialMT-38" transform="translate(83.398438 0)"/>
      </g>
     </g>
    </g>
    <g id="xtick_6">
     <g id="line2d_11">
      <path d="M 485.9575 466.911562 
L 485.9575 23.391562 
" clip-path="url(#p2fba04ba37)" style="fill: none; stroke: #cccccc; stroke-opacity: 0.3; stroke-width: 0.8; stroke-linecap: round"/>
     </g>
     <g id="line2d_12"/>
     <g id="text_6">
      <!-- 1.0 -->
      <g style="fill: #262626" transform="translate(479.0075 477.569375) scale(0.1 -0.1)">
       <defs>
        <path id="ArialMT-31" d="M 2384 0 
L 1822 0 
L 1822 3584 
Q 1619 3391 1289 3197 
Q 959 3003 697 2906 
L 697 3450 
Q 1169 3672 1522 3987 
Q 1875 4303 2022 4600 
L 2384 4600 
L 2384 0 
z
" transform="scale(0.015625)"/>
       </defs>
       <use xlink:href="#ArialMT-31"/>
       <use xlink:href="#ArialMT-2e" transform="translate(55.615234 0)"/>
       <use xlink:href="#ArialMT-30" transform="translate(83.398438 0)"/>
      </g>
     </g>
    </g>
    <g id="text_7">
     <!-- Mean Predicted Probability -->
     <g style="fill: #262626" transform="translate(185.74375 492.14625) scale(0.12 -0.12)">
      <defs>
       <path id="Arial-BoldMT-4d" d="M 453 0 
L 453 4581 
L 1838 4581 
L 2669 1456 
L 3491 4581 
L 4878 4581 
L 4878 0 
L 4019 0 
L 4019 3606 
L 3109 0 
L 2219 0 
L 1313 3606 
L 1313 0 
L 453 0 
z
" transform="scale(0.015625)"/>
       <path id="Arial-BoldMT-65" d="M 2381 1056 
L 3256 909 
Q 3088 428 2723 176 
Q 2359 -75 1813 -75 
Q 947 -75 531 491 
Q 203 944 203 1634 
Q 203 2459 634 2926 
Q 1066 3394 1725 3394 
Q 2466 3394 2894 2905 
Q 3322 2416 3303 1406 
L 1103 1406 
Q 1113 1016 1316 798 
Q 1519 581 1822 581 
Q 2028 581 2168 693 
Q 2309 806 2381 1056 
z
M 2431 1944 
Q 2422 2325 2234 2523 
Q 2047 2722 1778 2722 
Q 1491 2722 1303 2513 
Q 1116 2303 1119 1944 
L 2431 1944 
z
" transform="scale(0.015625)"/>
       <path id="Arial-BoldMT-61" d="M 1116 2306 
L 319 2450 
Q 453 2931 781 3162 
Q 1109 3394 1756 3394 
Q 2344 3394 2631 3255 
Q 2919 3116 3036 2902 
Q 3153 2688 3153 2116 
L 3144 1091 
Q 3144 653 3186 445 
Q 3228 238 3344 0 
L 2475 0 
Q 2441 88 2391 259 
Q 2369 338 2359 363 
Q 2134 144 1878 34 
Q 1622 -75 1331 -75 
Q 819 -75 523 203 
Q 228 481 228 906 
Q 228 1188 362 1408 
Q 497 1628 739 1745 
Q 981 1863 1438 1950 
Q 2053 2066 2291 2166 
L 2291 2253 
Q 2291 2506 2166 2614 
Q 2041 2722 1694 2722 
Q 1459 2722 1328 2630 
Q 1197 2538 1116 2306 
z
M 2291 1594 
Q 2122 1538 1756 1459 
Q 1391 1381 1278 1306 
Q 1106 1184 1106 997 
Q 1106 813 1243 678 
Q 1381 544 1594 544 
Q 1831 544 2047 700 
Q 2206 819 2256 991 
Q 2291 1103 2291 1419 
L 2291 1594 
z
" transform="scale(0.015625)"/>
       <path id="Arial-BoldMT-6e" d="M 3478 0 
L 2600 0 
L 2600 1694 
Q 2600 2231 2544 2389 
Q 2488 2547 2361 2634 
Q 2234 2722 2056 2722 
Q 1828 2722 1647 2597 
Q 1466 2472 1398 2265 
Q 1331 2059 1331 1503 
L 1331 0 
L 453 0 
L 453 3319 
L 1269 3319 
L 1269 2831 
Q 1703 3394 2363 3394 
Q 2653 3394 2893 3289 
Q 3134 3184 3257 3021 
Q 3381 2859 3429 2653 
Q 3478 2447 3478 2063 
L 3478 0 
z
" transform="scale(0.015625)"/>
       <path id="Arial-BoldMT-20" transform="scale(0.015625)"/>
       <path id="Arial-BoldMT-50" d="M 466 0 
L 466 4581 
L 1950 4581 
Q 2794 4581 3050 4513 
Q 3444 4409 3709 4064 
Q 3975 3719 3975 3172 
Q 3975 2750 3822 2462 
Q 3669 2175 3433 2011 
Q 3197 1847 2953 1794 
Q 2622 1728 1994 1728 
L 1391 1728 
L 1391 0 
L 466 0 
z
M 1391 3806 
L 1391 2506 
L 1897 2506 
Q 2444 2506 2628 2578 
Q 2813 2650 2917 2803 
Q 3022 2956 3022 3159 
Q 3022 3409 2875 3571 
Q 2728 3734 2503 3775 
Q 2338 3806 1838 3806 
L 1391 3806 
z
" transform="scale(0.015625)"/>
       <path id="Arial-BoldMT-72" d="M 1300 0 
L 422 0 
L 422 3319 
L 1238 3319 
L 1238 2847 
Q 1447 3181 1614 3287 
Q 1781 3394 1994 3394 
Q 2294 3394 2572 3228 
L 2300 2463 
Q 2078 2606 1888 2606 
Q 1703 2606 1575 2504 
Q 1447 2403 1373 2137 
Q 1300 1872 1300 1025 
L 1300 0 
z
" transform="scale(0.015625)"/>
       <path id="Arial-BoldMT-64" d="M 3503 0 
L 2688 0 
L 2688 488 
Q 2484 203 2207 64 
Q 1931 -75 1650 -75 
Q 1078 -75 670 386 
Q 263 847 263 1672 
Q 263 2516 659 2955 
Q 1056 3394 1663 3394 
Q 2219 3394 2625 2931 
L 2625 4581 
L 3503 4581 
L 3503 0 
z
M 1159 1731 
Q 1159 1200 1306 963 
Q 1519 619 1900 619 
Q 2203 619 2415 876 
Q 2628 1134 2628 1647 
Q 2628 2219 2422 2470 
Q 2216 2722 1894 2722 
Q 1581 2722 1370 2473 
Q 1159 2225 1159 1731 
z
" transform="scale(0.015625)"/>
       <path id="Arial-BoldMT-69" d="M 459 3769 
L 459 4581 
L 1338 4581 
L 1338 3769 
L 459 3769 
z
M 459 0 
L 459 3319 
L 1338 3319 
L 1338 0 
L 459 0 
z
" transform="scale(0.015625)"/>
       <path id="Arial-BoldMT-63" d="M 3353 2338 
L 2488 2181 
Q 2444 2441 2289 2572 
Q 2134 2703 1888 2703 
Q 1559 2703 1364 2476 
Q 1169 2250 1169 1719 
Q 1169 1128 1367 884 
Q 1566 641 1900 641 
Q 2150 641 2309 783 
Q 2469 925 2534 1272 
L 3397 1125 
Q 3263 531 2881 228 
Q 2500 -75 1859 -75 
Q 1131 -75 698 384 
Q 266 844 266 1656 
Q 266 2478 700 2936 
Q 1134 3394 1875 3394 
Q 2481 3394 2839 3133 
Q 3197 2872 3353 2338 
z
" transform="scale(0.015625)"/>
       <path id="Arial-BoldMT-74" d="M 1981 3319 
L 1981 2619 
L 1381 2619 
L 1381 1281 
Q 1381 875 1398 808 
Q 1416 741 1477 697 
Q 1538 653 1625 653 
Q 1747 653 1978 738 
L 2053 56 
Q 1747 -75 1359 -75 
Q 1122 -75 931 4 
Q 741 84 652 211 
Q 563 338 528 553 
Q 500 706 500 1172 
L 500 2619 
L 97 2619 
L 97 3319 
L 500 3319 
L 500 3978 
L 1381 4491 
L 1381 3319 
L 1981 3319 
z
" transform="scale(0.015625)"/>
       <path id="Arial-BoldMT-6f" d="M 256 1706 
Q 256 2144 472 2553 
Q 688 2963 1083 3178 
Q 1478 3394 1966 3394 
Q 2719 3394 3200 2905 
Q 3681 2416 3681 1669 
Q 3681 916 3195 420 
Q 2709 -75 1972 -75 
Q 1516 -75 1102 131 
Q 688 338 472 736 
Q 256 1134 256 1706 
z
M 1156 1659 
Q 1156 1166 1390 903 
Q 1625 641 1969 641 
Q 2313 641 2545 903 
Q 2778 1166 2778 1666 
Q 2778 2153 2545 2415 
Q 2313 2678 1969 2678 
Q 1625 2678 1390 2415 
Q 1156 2153 1156 1659 
z
" transform="scale(0.015625)"/>
       <path id="Arial-BoldMT-62" d="M 422 0 
L 422 4581 
L 1300 4581 
L 1300 2931 
Q 1706 3394 2263 3394 
Q 2869 3394 3266 2955 
Q 3663 2516 3663 1694 
Q 3663 844 3258 384 
Q 2853 -75 2275 -75 
Q 1991 -75 1714 67 
Q 1438 209 1238 488 
L 1238 0 
L 422 0 
z
M 1294 1731 
Q 1294 1216 1456 969 
Q 1684 619 2063 619 
Q 2353 619 2558 867 
Q 2763 1116 2763 1650 
Q 2763 2219 2556 2470 
Q 2350 2722 2028 2722 
Q 1713 2722 1503 2476 
Q 1294 2231 1294 1731 
z
" transform="scale(0.015625)"/>
       <path id="Arial-BoldMT-6c" d="M 459 0 
L 459 4581 
L 1338 4581 
L 1338 0 
L 459 0 
z
" transform="scale(0.015625)"/>
       <path id="Arial-BoldMT-79" d="M 44 3319 
L 978 3319 
L 1772 963 
L 2547 3319 
L 3456 3319 
L 2284 125 
L 2075 -453 
Q 1959 -744 1854 -897 
Q 1750 -1050 1614 -1145 
Q 1478 -1241 1279 -1294 
Q 1081 -1347 831 -1347 
Q 578 -1347 334 -1294 
L 256 -606 
Q 463 -647 628 -647 
Q 934 -647 1081 -467 
Q 1228 -288 1306 -9 
L 44 3319 
z
" transform="scale(0.015625)"/>
      </defs>
      <use xlink:href="#Arial-BoldMT-4d"/>
      <use xlink:href="#Arial-BoldMT-65" transform="translate(83.300781 0)"/>
      <use xlink:href="#Arial-BoldMT-61" transform="translate(138.916016 0)"/>
      <use xlink:href="#Arial-BoldMT-6e" transform="translate(194.53125 0)"/>
      <use xlink:href="#Arial-BoldMT-20" transform="translate(255.615234 0)"/>
      <use xlink:href="#Arial-BoldMT-50" transform="translate(283.398438 0)"/>
      <use xlink:href="#Arial-BoldMT-72" transform="translate(350.097656 0)"/>
      <use xlink:href="#Arial-BoldMT-65" transform="translate(389.013672 0)"/>
      <use xlink:href="#Arial-BoldMT-64" transform="translate(444.628906 0)"/>
      <use xlink:href="#Arial-BoldMT-69" transform="translate(505.712891 0)"/>
      <use xlink:href="#Arial-BoldMT-63" transform="translate(533.496094 0)"/>
      <use xlink:href="#Arial-BoldMT-74" transform="translate(589.111328 0)"/>
      <use xlink:href="#Arial-BoldMT-65" transform="translate(622.412109 0)"/>
      <use xlink:href="#Arial-BoldMT-64" transform="translate(678.027344 0)"/>
      <use xlink:href="#Arial-BoldMT-20" transform="translate(739.111328 0)"/>
      <use xlink:href="#Arial-BoldMT-50" transform="translate(766.894531 0)"/>
      <use xlink:href="#Arial-BoldMT-72" transform="translate(833.59375 0)"/>
      <use xlink:href="#Arial-BoldMT-6f" transform="translate(872.509766 0)"/>
      <use xlink:href="#Arial-BoldMT-62" transform="translate(933.59375 0)"/>
      <use xlink:href="#Arial-BoldMT-61" transform="translate(994.677734 0)"/>
      <use xlink:href="#Arial-BoldMT-62" transform="translate(1050.292969 0)"/>
      <use xlink:href="#Arial-BoldMT-69" transform="translate(1111.376953 0)"/>
      <use xlink:href="#Arial-BoldMT-6c" transform="translate(1139.160156 0)"/>
      <use xlink:href="#Arial-BoldMT-69" transform="translate(1166.943359 0)"/>
      <use xlink:href="#Arial-BoldMT-74" transform="translate(1194.726562 0)"/>
      <use xlink:href="#Arial-BoldMT-79" transform="translate(1228.027344 0)"/>
     </g>
    </g>
   </g>
   <g id="matplotlib.axis_2">
    <g id="ytick_1">
     <g id="line2d_13">
      <path d="M 39.5575 466.911562 
L 485.9575 466.911562 
" clip-path="url(#p2fba04ba37)" style="fill: none; stroke: #cccccc; stroke-opacity: 0.3; stroke-width: 0.8; stroke-linecap: round"/>
     </g>
     <g id="line2d_14"/>
     <g id="text_8">
      <!-- 0.0 -->
      <g style="fill: #262626" transform="translate(22.1575 470.490469) scale(0.1 -0.1)">
       <use xlink:href="#ArialMT-30"/>
       <use xlink:href="#ArialMT-2e" transform="translate(55.615234 0)"/>
       <use xlink:href="#ArialMT-30" transform="translate(83.398438 0)"/>
      </g>
     </g>
    </g>
    <g id="ytick_2">
     <g id="line2d_15">
      <path d="M 39.5575 378.207562 
L 485.9575 378.207562 
" clip-path="url(#p2fba04ba37)" style="fill: none; stroke: #cccccc; stroke-opacity: 0.3; stroke-width: 0.8; stroke-linecap: round"/>
     </g>
     <g id="line2d_16"/>
     <g id="text_9">
      <!-- 0.2 -->
      <g style="fill: #262626" transform="translate(22.1575 381.786469) scale(0.1 -0.1)">
       <use xlink:href="#ArialMT-30"/>
       <use xlink:href="#ArialMT-2e" transform="translate(55.615234 0)"/>
       <use xlink:href="#ArialMT-32" transform="translate(83.398438 0)"/>
      </g>
     </g>
    </g>
    <g id="ytick_3">
     <g id="line2d_17">
      <path d="M 39.5575 289.503562 
L 485.9575 289.503562 
" clip-path="url(#p2fba04ba37)" style="fill: none; stroke: #cccccc; stroke-opacity: 0.3; stroke-width: 0.8; stroke-linecap: round"/>
     </g>
     <g id="line2d_18"/>
     <g id="text_10">
      <!-- 0.4 -->
      <g style="fill: #262626" transform="translate(22.1575 293.082469) scale(0.1 -0.1)">
       <use xlink:href="#ArialMT-30"/>
       <use xlink:href="#ArialMT-2e" transform="translate(55.615234 0)"/>
       <use xlink:href="#ArialMT-34" transform="translate(83.398438 0)"/>
      </g>
     </g>
    </g>
    <g id="ytick_4">
     <g id="line2d_19">
      <path d="M 39.5575 200.799562 
L 485.9575 200.799562 
" clip-path="url(#p2fba04ba37)" style="fill: none; stroke: #cccccc; stroke-opacity: 0.3; stroke-width: 0.8; stroke-linecap: round"/>
     </g>
     <g id="line2d_20"/>
     <g id="text_11">
      <!-- 0.6 -->
      <g style="fill: #262626" transform="translate(22.1575 204.378469) scale(0.1 -0.1)">
       <use xlink:href="#ArialMT-30"/>
       <use xlink:href="#ArialMT-2e" transform="translate(55.615234 0)"/>
       <use xlink:href="#ArialMT-36" transform="translate(83.398438 0)"/>
      </g>
     </g>
    </g>
    <g id="ytick_5">
     <g id="line2d_21">
      <path d="M 39.5575 112.095562 
L 485.9575 112.095562 
" clip-path="url(#p2fba04ba37)" style="fill: none; stroke: #cccccc; stroke-opacity: 0.3; stroke-width: 0.8; stroke-linecap: round"/>
     </g>
     <g id="line2d_22"/>
     <g id="text_12">
      <!-- 0.8 -->
      <g style="fill: #262626" transform="translate(22.1575 115.674469) scale(0.1 -0.1)">
       <use xlink:href="#ArialMT-30"/>
       <use xlink:href="#ArialMT-2e" transform="translate(55.615234 0)"/>
       <use xlink:href="#ArialMT-38" transform="translate(83.398438 0)"/>
      </g>
     </g>
    </g>
    <g id="ytick_6">
     <g id="line2d_23">
      <path d="M 39.5575 23.391562 
L 485.9575 23.391562 
" clip-path="url(#p2fba04ba37)" style="fill: none; stroke: #cccccc; stroke-opacity: 0.3; stroke-width: 0.8; stroke-linecap: round"/>
     </g>
     <g id="line2d_24"/>
     <g id="text_13">
      <!-- 1.0 -->
      <g style="fill: #262626" transform="translate(22.1575 26.970469) scale(0.1 -0.1)">
       <use xlink:href="#ArialMT-31"/>
       <use xlink:href="#ArialMT-2e" transform="translate(55.615234 0)"/>
       <use xlink:href="#ArialMT-30" transform="translate(83.398438 0)"/>
      </g>
     </g>
    </g>
    <g id="text_14">
     <!-- Fraction of Positives -->
     <g style="fill: #262626" transform="translate(15.789375 304.159687) rotate(-90) scale(0.12 -0.12)">
      <defs>
       <path id="Arial-BoldMT-46" d="M 472 0 
L 472 4581 
L 3613 4581 
L 3613 3806 
L 1397 3806 
L 1397 2722 
L 3309 2722 
L 3309 1947 
L 1397 1947 
L 1397 0 
L 472 0 
z
" transform="scale(0.015625)"/>
       <path id="Arial-BoldMT-66" d="M 75 3319 
L 563 3319 
L 563 3569 
Q 563 3988 652 4194 
Q 741 4400 980 4529 
Q 1219 4659 1584 4659 
Q 1959 4659 2319 4547 
L 2200 3934 
Q 1991 3984 1797 3984 
Q 1606 3984 1523 3895 
Q 1441 3806 1441 3553 
L 1441 3319 
L 2097 3319 
L 2097 2628 
L 1441 2628 
L 1441 0 
L 563 0 
L 563 2628 
L 75 2628 
L 75 3319 
z
" transform="scale(0.015625)"/>
       <path id="Arial-BoldMT-73" d="M 150 947 
L 1031 1081 
Q 1088 825 1259 692 
Q 1431 559 1741 559 
Q 2081 559 2253 684 
Q 2369 772 2369 919 
Q 2369 1019 2306 1084 
Q 2241 1147 2013 1200 
Q 950 1434 666 1628 
Q 272 1897 272 2375 
Q 272 2806 612 3100 
Q 953 3394 1669 3394 
Q 2350 3394 2681 3172 
Q 3013 2950 3138 2516 
L 2309 2363 
Q 2256 2556 2107 2659 
Q 1959 2763 1684 2763 
Q 1338 2763 1188 2666 
Q 1088 2597 1088 2488 
Q 1088 2394 1175 2328 
Q 1294 2241 1995 2081 
Q 2697 1922 2975 1691 
Q 3250 1456 3250 1038 
Q 3250 581 2869 253 
Q 2488 -75 1741 -75 
Q 1063 -75 667 200 
Q 272 475 150 947 
z
" transform="scale(0.015625)"/>
       <path id="Arial-BoldMT-76" d="M 1372 0 
L 34 3319 
L 956 3319 
L 1581 1625 
L 1763 1059 
Q 1834 1275 1853 1344 
Q 1897 1484 1947 1625 
L 2578 3319 
L 3481 3319 
L 2163 0 
L 1372 0 
z
" transform="scale(0.015625)"/>
      </defs>
      <use xlink:href="#Arial-BoldMT-46"/>
      <use xlink:href="#Arial-BoldMT-72" transform="translate(61.083984 0)"/>
      <use xlink:href="#Arial-BoldMT-61" transform="translate(100 0)"/>
      <use xlink:href="#Arial-BoldMT-63" transform="translate(155.615234 0)"/>
      <use xlink:href="#Arial-BoldMT-74" transform="translate(211.230469 0)"/>
      <use xlink:href="#Arial-BoldMT-69" transform="translate(244.53125 0)"/>
      <use xlink:href="#Arial-BoldMT-6f" transform="translate(272.314453 0)"/>
      <use xlink:href="#Arial-BoldMT-6e" transform="translate(333.398438 0)"/>
      <use xlink:href="#Arial-BoldMT-20" transform="translate(394.482422 0)"/>
      <use xlink:href="#Arial-BoldMT-6f" transform="translate(422.265625 0)"/>
      <use xlink:href="#Arial-BoldMT-66" transform="translate(483.349609 0)"/>
      <use xlink:href="#Arial-BoldMT-20" transform="translate(516.650391 0)"/>
      <use xlink:href="#Arial-BoldMT-50" transform="translate(544.433594 0)"/>
      <use xlink:href="#Arial-BoldMT-6f" transform="translate(611.132812 0)"/>
      <use xlink:href="#Arial-BoldMT-73" transform="translate(672.216797 0)"/>
      <use xlink:href="#Arial-BoldMT-69" transform="translate(727.832031 0)"/>
      <use xlink:href="#Arial-BoldMT-74" transform="translate(755.615234 0)"/>
      <use xlink:href="#Arial-BoldMT-69" transform="translate(788.916016 0)"/>
      <use xlink:href="#Arial-BoldMT-76" transform="translate(816.699219 0)"/>
      <use xlink:href="#Arial-BoldMT-65" transform="translate(872.314453 0)"/>
      <use xlink:href="#Arial-BoldMT-73" transform="translate(927.929688 0)"/>
     </g>
    </g>
   </g>
   <g id="PathCollection_1">
    <path d="M 61.8775 450.60774 
C 63.067248 450.60774 64.208427 450.135048 65.049706 449.293769 
C 65.890985 448.45249 66.363677 447.311311 66.363677 446.121562 
C 66.363677 444.931814 65.890985 443.790635 65.049706 442.949356 
C 64.208427 442.108077 63.067248 441.635385 61.8775 441.635385 
C 60.687752 441.635385 59.546573 442.108077 58.705294 442.949356 
C 57.864015 443.790635 57.391323 444.931814 57.391323 446.121562 
C 57.391323 447.311311 57.864015 448.45249 58.705294 449.293769 
C 59.546573 450.135048 60.687752 450.60774 61.8775 450.60774 
z
" clip-path="url(#p2fba04ba37)" style="fill: #0066cc; fill-opacity: 0.7; stroke: #000000; stroke-opacity: 0.7"/>
    <path d="M 106.5175 430.834874 
C 108.21641 430.834874 109.845965 430.15989 111.047276 428.95858 
C 112.248586 427.757269 112.92357 426.127714 112.92357 424.428804 
C 112.92357 422.729894 112.248586 421.100339 111.047276 419.899028 
C 109.845965 418.697718 108.21641 418.022734 106.5175 418.022734 
C 104.81859 418.022734 103.189035 418.697718 101.987724 419.899028 
C 100.786414 421.100339 100.11143 422.729894 100.11143 424.428804 
C 100.11143 426.127714 100.786414 427.757269 101.987724 428.95858 
C 103.189035 430.15989 104.81859 430.834874 106.5175 430.834874 
z
" clip-path="url(#p2fba04ba37)" style="fill: #0066cc; fill-opacity: 0.7; stroke: #000000; stroke-opacity: 0.7"/>
    <path d="M 151.1575 410.510562 
C 153.003048 410.510562 154.773256 409.777318 156.078256 408.472318 
C 157.383255 407.167319 158.116499 405.397111 158.116499 403.551562 
C 158.116499 401.706014 157.383255 399.935806 156.078256 398.630807 
C 154.773256 397.325807 153.003048 396.592563 151.1575 396.592563 
C 149.311952 396.592563 147.541744 397.325807 146.236744 398.630807 
C 144.931745 399.935806 144.198501 401.706014 144.198501 403.551562 
C 144.198501 405.397111 144.931745 407.167319 146.236744 408.472318 
C 147.541744 409.777318 149.311952 410.510562 151.1575 410.510562 
z
" clip-path="url(#p2fba04ba37)" style="fill: #0066cc; fill-opacity: 0.7; stroke: #000000; stroke-opacity: 0.7"/>
    <path d="M 195.7975 383.830947 
C 197.606739 383.830947 199.342119 383.112129 200.621444 381.832804 
C 201.900769 380.553479 202.619588 378.818099 202.619588 377.00886 
C 202.619588 375.199621 201.900769 373.46424 200.621444 372.184915 
C 199.342119 370.90559 197.606739 370.186772 195.7975 370.186772 
C 193.988261 370.186772 192.252881 370.90559 190.973556 372.184915 
C 189.694231 373.46424 188.975412 375.199621 188.975412 377.00886 
C 188.975412 378.818099 189.694231 380.553479 190.973556 381.832804 
C 192.252881 383.112129 193.988261 383.830947 195.7975 383.830947 
z
" clip-path="url(#p2fba04ba37)" style="fill: #0066cc; fill-opacity: 0.7; stroke: #000000; stroke-opacity: 0.7"/>
    <path d="M 240.4375 335.905649 
C 242.312769 335.905649 244.111484 335.160597 245.4375 333.834581 
C 246.763516 332.508566 247.508568 330.70985 247.508568 328.834581 
C 247.508568 326.959312 246.763516 325.160597 245.4375 323.834581 
C 244.111484 322.508566 242.312769 321.763514 240.4375 321.763514 
C 238.562231 321.763514 236.763516 322.508566 235.4375 323.834581 
C 234.111484 325.160597 233.366432 326.959312 233.366432 328.834581 
C 233.366432 330.70985 234.111484 332.508566 235.4375 333.834581 
C 236.763516 335.160597 238.562231 335.905649 240.4375 335.905649 
z
" clip-path="url(#p2fba04ba37)" style="fill: #0066cc; fill-opacity: 0.7; stroke: #000000; stroke-opacity: 0.7"/>
    <path d="M 285.0775 296.877435 
C 286.871393 296.877435 288.592054 296.164714 289.860528 294.89624 
C 291.129002 293.627766 291.841723 291.907105 291.841723 290.113212 
C 291.841723 288.319319 291.129002 286.598658 289.860528 285.330184 
C 288.592054 284.06171 286.871393 283.348989 285.0775 283.348989 
C 283.283607 283.348989 281.562946 284.06171 280.294472 285.330184 
C 279.025998 286.598658 278.313277 288.319319 278.313277 290.113212 
C 278.313277 291.907105 279.025998 293.627766 280.294472 294.89624 
C 281.562946 296.164714 283.283607 296.877435 285.0775 296.877435 
z
" clip-path="url(#p2fba04ba37)" style="fill: #0066cc; fill-opacity: 0.7; stroke: #000000; stroke-opacity: 0.7"/>
    <path d="M 329.7175 271.767688 
C 331.339827 271.767688 332.895927 271.12313 334.043086 269.975972 
C 335.190244 268.828813 335.834802 267.272713 335.834802 265.650386 
C 335.834802 264.028059 335.190244 262.471959 334.043086 261.3248 
C 332.895927 260.177642 331.339827 259.533084 329.7175 259.533084 
C 328.095173 259.533084 326.539073 260.177642 325.391914 261.3248 
C 324.244756 262.471959 323.600198 264.028059 323.600198 265.650386 
C 323.600198 267.272713 324.244756 268.828813 325.391914 269.975972 
C 326.539073 271.12313 328.095173 271.767688 329.7175 271.767688 
z
" clip-path="url(#p2fba04ba37)" style="fill: #0066cc; fill-opacity: 0.7; stroke: #000000; stroke-opacity: 0.7"/>
    <path d="M 374.3575 260.408618 
C 375.760508 260.408618 377.106241 259.851197 378.098317 258.859121 
C 379.090393 257.867045 379.647814 256.521312 379.647814 255.118304 
C 379.647814 253.715296 379.090393 252.369563 378.098317 251.377487 
C 377.106241 250.385411 375.760508 249.82799 374.3575 249.82799 
C 372.954492 249.82799 371.608759 250.385411 370.616683 251.377487 
C 369.624607 252.369563 369.067186 253.715296 369.067186 255.118304 
C 369.067186 256.521312 369.624607 257.867045 370.616683 258.859121 
C 371.608759 259.851197 372.954492 260.408618 374.3575 260.408618 
z
" clip-path="url(#p2fba04ba37)" style="fill: #0066cc; fill-opacity: 0.7; stroke: #000000; stroke-opacity: 0.7"/>
    <path d="M 418.9975 201.642044 
C 419.883593 201.642044 420.733513 201.289996 421.360075 200.663433 
C 421.986637 200.036871 422.338686 199.186951 422.338686 198.300858 
C 422.338686 197.414765 421.986637 196.564845 421.360075 195.938283 
C 420.733513 195.311721 419.883593 194.959673 418.9975 194.959673 
C 418.111407 194.959673 417.261487 195.311721 416.634925 195.938283 
C 416.008363 196.564845 415.656314 197.414765 415.656314 198.300858 
C 415.656314 199.186951 416.008363 200.036871 416.634925 200.663433 
C 417.261487 201.289996 418.111407 201.642044 418.9975 201.642044 
z
" clip-path="url(#p2fba04ba37)" style="fill: #0066cc; fill-opacity: 0.7; stroke: #000000; stroke-opacity: 0.7"/>
    <path d="M 463.6375 171.918365 
C 463.819642 171.918365 463.994349 171.845999 464.123143 171.717205 
C 464.251937 171.588411 464.324303 171.413705 464.324303 171.231562 
C 464.324303 171.04942 464.251937 170.874714 464.123143 170.74592 
C 463.994349 170.617126 463.819642 170.54476 463.6375 170.54476 
C 463.455358 170.54476 463.280651 170.617126 463.151857 170.74592 
C 463.023063 170.874714 462.950697 171.04942 462.950697 171.231562 
C 462.950697 171.413705 463.023063 171.588411 463.151857 171.717205 
C 463.280651 171.845999 463.455358 171.918365 463.6375 171.918365 
z
" clip-path="url(#p2fba04ba37)" style="fill: #0066cc; fill-opacity: 0.7; stroke: #000000; stroke-opacity: 0.7"/>
   </g>
   <g id="line2d_25">
    <path d="M 39.5575 466.911562 
L 485.9575 23.391562 
" clip-path="url(#p2fba04ba37)" style="fill: none; stroke-dasharray: 5.55,2.4; stroke-dashoffset: 0; stroke: #000000; stroke-opacity: 0.5; stroke-width: 1.5"/>
   </g>
   <g id="patch_3">
    <path d="M 39.5575 466.911562 
L 39.5575 23.391562 
" style="fill: none; stroke: #cccccc; stroke-linejoin: miter; stroke-linecap: square"/>
   </g>
   <g id="patch_4">
    <path d="M 485.9575 466.911562 
L 485.9575 23.391562 
" style="fill: none; stroke: #cccccc; stroke-linejoin: miter; stroke-linecap: square"/>
   </g>
   <g id="patch_5">
    <path d="M 39.5575 466.911562 
L 485.9575 466.911562 
" style="fill: none; stroke: #cccccc; stroke-linejoin: miter; stroke-linecap: square"/>
   </g>
   <g id="patch_6">
    <path d="M 39.5575 23.391562 
L 485.9575 23.391562 
" style="fill: none; stroke: #cccccc; stroke-linejoin: miter; stroke-linecap: square"/>
   </g>
   <g id="text_15">
    <!-- Reliability Diagram (Imputed Data) -->
    <g style="fill: #262626" transform="translate(148.798594 17.391562) scale(0.14 -0.14)">
     <defs>
      <path id="Arial-BoldMT-52" d="M 469 0 
L 469 4581 
L 2416 4581 
Q 3150 4581 3483 4457 
Q 3816 4334 4016 4018 
Q 4216 3703 4216 3297 
Q 4216 2781 3912 2445 
Q 3609 2109 3006 2022 
Q 3306 1847 3501 1637 
Q 3697 1428 4028 894 
L 4588 0 
L 3481 0 
L 2813 997 
Q 2456 1531 2325 1670 
Q 2194 1809 2047 1861 
Q 1900 1913 1581 1913 
L 1394 1913 
L 1394 0 
L 469 0 
z
M 1394 2644 
L 2078 2644 
Q 2744 2644 2909 2700 
Q 3075 2756 3169 2893 
Q 3263 3031 3263 3238 
Q 3263 3469 3139 3611 
Q 3016 3753 2791 3791 
Q 2678 3806 2116 3806 
L 1394 3806 
L 1394 2644 
z
" transform="scale(0.015625)"/>
      <path id="Arial-BoldMT-44" d="M 463 4581 
L 2153 4581 
Q 2725 4581 3025 4494 
Q 3428 4375 3715 4072 
Q 4003 3769 4153 3330 
Q 4303 2891 4303 2247 
Q 4303 1681 4163 1272 
Q 3991 772 3672 463 
Q 3431 228 3022 97 
Q 2716 0 2203 0 
L 463 0 
L 463 4581 
z
M 1388 3806 
L 1388 772 
L 2078 772 
Q 2466 772 2638 816 
Q 2863 872 3011 1006 
Q 3159 1141 3253 1448 
Q 3347 1756 3347 2288 
Q 3347 2819 3253 3103 
Q 3159 3388 2990 3547 
Q 2822 3706 2563 3763 
Q 2369 3806 1803 3806 
L 1388 3806 
z
" transform="scale(0.015625)"/>
      <path id="Arial-BoldMT-67" d="M 378 -219 
L 1381 -341 
Q 1406 -516 1497 -581 
Q 1622 -675 1891 -675 
Q 2234 -675 2406 -572 
Q 2522 -503 2581 -350 
Q 2622 -241 2622 53 
L 2622 538 
Q 2228 0 1628 0 
Q 959 0 569 566 
Q 263 1013 263 1678 
Q 263 2513 664 2953 
Q 1066 3394 1663 3394 
Q 2278 3394 2678 2853 
L 2678 3319 
L 3500 3319 
L 3500 341 
Q 3500 -247 3403 -537 
Q 3306 -828 3131 -993 
Q 2956 -1159 2664 -1253 
Q 2372 -1347 1925 -1347 
Q 1081 -1347 728 -1058 
Q 375 -769 375 -325 
Q 375 -281 378 -219 
z
M 1163 1728 
Q 1163 1200 1367 954 
Q 1572 709 1872 709 
Q 2194 709 2416 961 
Q 2638 1213 2638 1706 
Q 2638 2222 2425 2472 
Q 2213 2722 1888 2722 
Q 1572 2722 1367 2476 
Q 1163 2231 1163 1728 
z
" transform="scale(0.015625)"/>
      <path id="Arial-BoldMT-6d" d="M 394 3319 
L 1203 3319 
L 1203 2866 
Q 1638 3394 2238 3394 
Q 2556 3394 2790 3262 
Q 3025 3131 3175 2866 
Q 3394 3131 3647 3262 
Q 3900 3394 4188 3394 
Q 4553 3394 4806 3245 
Q 5059 3097 5184 2809 
Q 5275 2597 5275 2122 
L 5275 0 
L 4397 0 
L 4397 1897 
Q 4397 2391 4306 2534 
Q 4184 2722 3931 2722 
Q 3747 2722 3584 2609 
Q 3422 2497 3350 2280 
Q 3278 2063 3278 1594 
L 3278 0 
L 2400 0 
L 2400 1819 
Q 2400 2303 2353 2443 
Q 2306 2584 2207 2653 
Q 2109 2722 1941 2722 
Q 1738 2722 1575 2612 
Q 1413 2503 1342 2297 
Q 1272 2091 1272 1613 
L 1272 0 
L 394 0 
L 394 3319 
z
" transform="scale(0.015625)"/>
      <path id="Arial-BoldMT-28" d="M 1916 -1347 
L 1313 -1347 
Q 834 -625 584 153 
Q 334 931 334 1659 
Q 334 2563 644 3369 
Q 913 4069 1325 4659 
L 1925 4659 
Q 1497 3713 1336 3048 
Q 1175 2384 1175 1641 
Q 1175 1128 1270 590 
Q 1366 53 1531 -431 
Q 1641 -750 1916 -1347 
z
" transform="scale(0.015625)"/>
      <path id="Arial-BoldMT-49" d="M 438 0 
L 438 4581 
L 1363 4581 
L 1363 0 
L 438 0 
z
" transform="scale(0.015625)"/>
      <path id="Arial-BoldMT-70" d="M 434 3319 
L 1253 3319 
L 1253 2831 
Q 1413 3081 1684 3237 
Q 1956 3394 2288 3394 
Q 2866 3394 3269 2941 
Q 3672 2488 3672 1678 
Q 3672 847 3265 386 
Q 2859 -75 2281 -75 
Q 2006 -75 1782 34 
Q 1559 144 1313 409 
L 1313 -1263 
L 434 -1263 
L 434 3319 
z
M 1303 1716 
Q 1303 1156 1525 889 
Q 1747 622 2066 622 
Q 2372 622 2575 867 
Q 2778 1113 2778 1672 
Q 2778 2194 2568 2447 
Q 2359 2700 2050 2700 
Q 1728 2700 1515 2451 
Q 1303 2203 1303 1716 
z
" transform="scale(0.015625)"/>
      <path id="Arial-BoldMT-75" d="M 2644 0 
L 2644 497 
Q 2463 231 2167 78 
Q 1872 -75 1544 -75 
Q 1209 -75 943 72 
Q 678 219 559 484 
Q 441 750 441 1219 
L 441 3319 
L 1319 3319 
L 1319 1794 
Q 1319 1094 1367 936 
Q 1416 778 1544 686 
Q 1672 594 1869 594 
Q 2094 594 2272 717 
Q 2450 841 2515 1023 
Q 2581 1206 2581 1919 
L 2581 3319 
L 3459 3319 
L 3459 0 
L 2644 0 
z
" transform="scale(0.015625)"/>
      <path id="Arial-BoldMT-29" d="M 216 -1347 
Q 475 -791 581 -494 
Q 688 -197 778 190 
Q 869 578 912 926 
Q 956 1275 956 1641 
Q 956 2384 797 3048 
Q 638 3713 209 4659 
L 806 4659 
Q 1278 3988 1539 3234 
Q 1800 2481 1800 1706 
Q 1800 1053 1594 306 
Q 1359 -531 822 -1347 
L 216 -1347 
z
" transform="scale(0.015625)"/>
     </defs>
     <use xlink:href="#Arial-BoldMT-52"/>
     <use xlink:href="#Arial-BoldMT-65" transform="translate(72.216797 0)"/>
     <use xlink:href="#Arial-BoldMT-6c" transform="translate(127.832031 0)"/>
     <use xlink:href="#Arial-BoldMT-69" transform="translate(155.615234 0)"/>
     <use xlink:href="#Arial-BoldMT-61" transform="translate(183.398438 0)"/>
     <use xlink:href="#Arial-BoldMT-62" transform="translate(239.013672 0)"/>
     <use xlink:href="#Arial-BoldMT-69" transform="translate(300.097656 0)"/>
     <use xlink:href="#Arial-BoldMT-6c" transform="translate(327.880859 0)"/>
     <use xlink:href="#Arial-BoldMT-69" transform="translate(355.664062 0)"/>
     <use xlink:href="#Arial-BoldMT-74" transform="translate(383.447266 0)"/>
     <use xlink:href="#Arial-BoldMT-79" transform="translate(416.748047 0)"/>
     <use xlink:href="#Arial-BoldMT-20" transform="translate(472.363281 0)"/>
     <use xlink:href="#Arial-BoldMT-44" transform="translate(500.146484 0)"/>
     <use xlink:href="#Arial-BoldMT-69" transform="translate(572.363281 0)"/>
     <use xlink:href="#Arial-BoldMT-61" transform="translate(600.146484 0)"/>
     <use xlink:href="#Arial-BoldMT-67" transform="translate(655.761719 0)"/>
     <use xlink:href="#Arial-BoldMT-72" transform="translate(716.845703 0)"/>
     <use xlink:href="#Arial-BoldMT-61" transform="translate(755.761719 0)"/>
     <use xlink:href="#Arial-BoldMT-6d" transform="translate(811.376953 0)"/>
     <use xlink:href="#Arial-BoldMT-20" transform="translate(900.292969 0)"/>
     <use xlink:href="#Arial-BoldMT-28" transform="translate(928.076172 0)"/>
     <use xlink:href="#Arial-BoldMT-49" transform="translate(961.376953 0)"/>
     <use xlink:href="#Arial-BoldMT-6d" transform="translate(989.160156 0)"/>
     <use xlink:href="#Arial-BoldMT-70" transform="translate(1078.076172 0)"/>
     <use xlink:href="#Arial-BoldMT-75" transform="translate(1139.160156 0)"/>
     <use xlink:href="#Arial-BoldMT-74" transform="translate(1200.244141 0)"/>
     <use xlink:href="#Arial-BoldMT-65" transform="translate(1233.544922 0)"/>
     <use xlink:href="#Arial-BoldMT-64" transform="translate(1289.160156 0)"/>
     <use xlink:href="#Arial-BoldMT-20" transform="translate(1350.244141 0)"/>
     <use xlink:href="#Arial-BoldMT-44" transform="translate(1378.027344 0)"/>
     <use xlink:href="#Arial-BoldMT-61" transform="translate(1450.244141 0)"/>
     <use xlink:href="#Arial-BoldMT-74" transform="translate(1505.859375 0)"/>
     <use xlink:href="#Arial-BoldMT-61" transform="translate(1539.160156 0)"/>
     <use xlink:href="#Arial-BoldMT-29" transform="translate(1594.775391 0)"/>
    </g>
   </g>
  </g>
  <g id="axes_2">
   <g id="matplotlib.axis_3">
    <g id="ytick_7">
     <g id="line2d_26">
      <path d="M 39.5575 466.911562 
L 485.9575 466.911562 
" clip-path="url(#p2fba04ba37)" style="fill: none; stroke: #cccccc; stroke-width: 0.8; stroke-linecap: round"/>
     </g>
     <g id="line2d_27"/>
     <g id="text_16">
      <!-- 0.0 -->
      <g style="fill: #262626" transform="translate(489.4575 470.490469) scale(0.1 -0.1)">
       <use xlink:href="#ArialMT-30"/>
       <use xlink:href="#ArialMT-2e" transform="translate(55.615234 0)"/>
       <use xlink:href="#ArialMT-30" transform="translate(83.398438 0)"/>
      </g>
     </g>
    </g>
    <g id="ytick_8">
     <g id="line2d_28">
      <path d="M 39.5575 415.224566 
L 485.9575 415.224566 
" clip-path="url(#p2fba04ba37)" style="fill: none; stroke: #cccccc; stroke-width: 0.8; stroke-linecap: round"/>
     </g>
     <g id="line2d_29"/>
     <g id="text_17">
      <!-- 0.2 -->
      <g style="fill: #262626" transform="translate(489.4575 418.803472) scale(0.1 -0.1)">
       <use xlink:href="#ArialMT-30"/>
       <use xlink:href="#ArialMT-2e" transform="translate(55.615234 0)"/>
       <use xlink:href="#ArialMT-32" transform="translate(83.398438 0)"/>
      </g>
     </g>
    </g>
    <g id="ytick_9">
     <g id="line2d_30">
      <path d="M 39.5575 363.53757 
L 485.9575 363.53757 
" clip-path="url(#p2fba04ba37)" style="fill: none; stroke: #cccccc; stroke-width: 0.8; stroke-linecap: round"/>
     </g>
     <g id="line2d_31"/>
     <g id="text_18">
      <!-- 0.4 -->
      <g style="fill: #262626" transform="translate(489.4575 367.116476) scale(0.1 -0.1)">
       <use xlink:href="#ArialMT-30"/>
       <use xlink:href="#ArialMT-2e" transform="translate(55.615234 0)"/>
       <use xlink:href="#ArialMT-34" transform="translate(83.398438 0)"/>
      </g>
     </g>
    </g>
    <g id="ytick_10">
     <g id="line2d_32">
      <path d="M 39.5575 311.850573 
L 485.9575 311.850573 
" clip-path="url(#p2fba04ba37)" style="fill: none; stroke: #cccccc; stroke-width: 0.8; stroke-linecap: round"/>
     </g>
     <g id="line2d_33"/>
     <g id="text_19">
      <!-- 0.6 -->
      <g style="fill: #262626" transform="translate(489.4575 315.42948) scale(0.1 -0.1)">
       <use xlink:href="#ArialMT-30"/>
       <use xlink:href="#ArialMT-2e" transform="translate(55.615234 0)"/>
       <use xlink:href="#ArialMT-36" transform="translate(83.398438 0)"/>
      </g>
     </g>
    </g>
    <g id="ytick_11">
     <g id="line2d_34">
      <path d="M 39.5575 260.163577 
L 485.9575 260.163577 
" clip-path="url(#p2fba04ba37)" style="fill: none; stroke: #cccccc; stroke-width: 0.8; stroke-linecap: round"/>
     </g>
     <g id="line2d_35"/>
     <g id="text_20">
      <!-- 0.8 -->
      <g style="fill: #262626" transform="translate(489.4575 263.742483) scale(0.1 -0.1)">
       <use xlink:href="#ArialMT-30"/>
       <use xlink:href="#ArialMT-2e" transform="translate(55.615234 0)"/>
       <use xlink:href="#ArialMT-38" transform="translate(83.398438 0)"/>
      </g>
     </g>
    </g>
    <g id="ytick_12">
     <g id="line2d_36">
      <path d="M 39.5575 208.476581 
L 485.9575 208.476581 
" clip-path="url(#p2fba04ba37)" style="fill: none; stroke: #cccccc; stroke-width: 0.8; stroke-linecap: round"/>
     </g>
     <g id="line2d_37"/>
     <g id="text_21">
      <!-- 1.0 -->
      <g style="fill: #262626" transform="translate(489.4575 212.055487) scale(0.1 -0.1)">
       <use xlink:href="#ArialMT-31"/>
       <use xlink:href="#ArialMT-2e" transform="translate(55.615234 0)"/>
       <use xlink:href="#ArialMT-30" transform="translate(83.398438 0)"/>
      </g>
     </g>
    </g>
    <g id="ytick_13">
     <g id="line2d_38">
      <path d="M 39.5575 156.789584 
L 485.9575 156.789584 
" clip-path="url(#p2fba04ba37)" style="fill: none; stroke: #cccccc; stroke-width: 0.8; stroke-linecap: round"/>
     </g>
     <g id="line2d_39"/>
     <g id="text_22">
      <!-- 1.2 -->
      <g style="fill: #262626" transform="translate(489.4575 160.368491) scale(0.1 -0.1)">
       <use xlink:href="#ArialMT-31"/>
       <use xlink:href="#ArialMT-2e" transform="translate(55.615234 0)"/>
       <use xlink:href="#ArialMT-32" transform="translate(83.398438 0)"/>
      </g>
     </g>
    </g>
    <g id="ytick_14">
     <g id="line2d_40">
      <path d="M 39.5575 105.102588 
L 485.9575 105.102588 
" clip-path="url(#p2fba04ba37)" style="fill: none; stroke: #cccccc; stroke-width: 0.8; stroke-linecap: round"/>
     </g>
     <g id="line2d_41"/>
     <g id="text_23">
      <!-- 1.4 -->
      <g style="fill: #262626" transform="translate(489.4575 108.681494) scale(0.1 -0.1)">
       <use xlink:href="#ArialMT-31"/>
       <use xlink:href="#ArialMT-2e" transform="translate(55.615234 0)"/>
       <use xlink:href="#ArialMT-34" transform="translate(83.398438 0)"/>
      </g>
     </g>
    </g>
    <g id="ytick_15">
     <g id="line2d_42">
      <path d="M 39.5575 53.415592 
L 485.9575 53.415592 
" clip-path="url(#p2fba04ba37)" style="fill: none; stroke: #cccccc; stroke-width: 0.8; stroke-linecap: round"/>
     </g>
     <g id="line2d_43"/>
     <g id="text_24">
      <!-- 1.6 -->
      <g style="fill: #262626" transform="translate(489.4575 56.994498) scale(0.1 -0.1)">
       <use xlink:href="#ArialMT-31"/>
       <use xlink:href="#ArialMT-2e" transform="translate(55.615234 0)"/>
       <use xlink:href="#ArialMT-36" transform="translate(83.398438 0)"/>
      </g>
     </g>
    </g>
    <g id="text_25">
     <!-- Density -->
     <g style="fill: #262626" transform="translate(515.231094 263.490625) rotate(-90) scale(0.11 -0.11)">
      <defs>
       <path id="ArialMT-44" d="M 494 0 
L 494 4581 
L 2072 4581 
Q 2606 4581 2888 4516 
Q 3281 4425 3559 4188 
Q 3922 3881 4101 3404 
Q 4281 2928 4281 2316 
Q 4281 1794 4159 1391 
Q 4038 988 3847 723 
Q 3656 459 3429 307 
Q 3203 156 2883 78 
Q 2563 0 2147 0 
L 494 0 
z
M 1100 541 
L 2078 541 
Q 2531 541 2789 625 
Q 3047 709 3200 863 
Q 3416 1078 3536 1442 
Q 3656 1806 3656 2325 
Q 3656 3044 3420 3430 
Q 3184 3816 2847 3947 
Q 2603 4041 2063 4041 
L 1100 4041 
L 1100 541 
z
" transform="scale(0.015625)"/>
       <path id="ArialMT-65" d="M 2694 1069 
L 3275 997 
Q 3138 488 2766 206 
Q 2394 -75 1816 -75 
Q 1088 -75 661 373 
Q 234 822 234 1631 
Q 234 2469 665 2931 
Q 1097 3394 1784 3394 
Q 2450 3394 2872 2941 
Q 3294 2488 3294 1666 
Q 3294 1616 3291 1516 
L 816 1516 
Q 847 969 1125 678 
Q 1403 388 1819 388 
Q 2128 388 2347 550 
Q 2566 713 2694 1069 
z
M 847 1978 
L 2700 1978 
Q 2663 2397 2488 2606 
Q 2219 2931 1791 2931 
Q 1403 2931 1139 2672 
Q 875 2413 847 1978 
z
" transform="scale(0.015625)"/>
       <path id="ArialMT-6e" d="M 422 0 
L 422 3319 
L 928 3319 
L 928 2847 
Q 1294 3394 1984 3394 
Q 2284 3394 2536 3286 
Q 2788 3178 2913 3003 
Q 3038 2828 3088 2588 
Q 3119 2431 3119 2041 
L 3119 0 
L 2556 0 
L 2556 2019 
Q 2556 2363 2490 2533 
Q 2425 2703 2258 2804 
Q 2091 2906 1866 2906 
Q 1506 2906 1245 2678 
Q 984 2450 984 1813 
L 984 0 
L 422 0 
z
" transform="scale(0.015625)"/>
       <path id="ArialMT-73" d="M 197 991 
L 753 1078 
Q 800 744 1014 566 
Q 1228 388 1613 388 
Q 2000 388 2187 545 
Q 2375 703 2375 916 
Q 2375 1106 2209 1216 
Q 2094 1291 1634 1406 
Q 1016 1563 777 1677 
Q 538 1791 414 1992 
Q 291 2194 291 2438 
Q 291 2659 392 2848 
Q 494 3038 669 3163 
Q 800 3259 1026 3326 
Q 1253 3394 1513 3394 
Q 1903 3394 2198 3281 
Q 2494 3169 2634 2976 
Q 2775 2784 2828 2463 
L 2278 2388 
Q 2241 2644 2061 2787 
Q 1881 2931 1553 2931 
Q 1166 2931 1000 2803 
Q 834 2675 834 2503 
Q 834 2394 903 2306 
Q 972 2216 1119 2156 
Q 1203 2125 1616 2013 
Q 2213 1853 2448 1751 
Q 2684 1650 2818 1456 
Q 2953 1263 2953 975 
Q 2953 694 2789 445 
Q 2625 197 2315 61 
Q 2006 -75 1616 -75 
Q 969 -75 630 194 
Q 291 463 197 991 
z
" transform="scale(0.015625)"/>
       <path id="ArialMT-69" d="M 425 3934 
L 425 4581 
L 988 4581 
L 988 3934 
L 425 3934 
z
M 425 0 
L 425 3319 
L 988 3319 
L 988 0 
L 425 0 
z
" transform="scale(0.015625)"/>
       <path id="ArialMT-74" d="M 1650 503 
L 1731 6 
Q 1494 -44 1306 -44 
Q 1000 -44 831 53 
Q 663 150 594 308 
Q 525 466 525 972 
L 525 2881 
L 113 2881 
L 113 3319 
L 525 3319 
L 525 4141 
L 1084 4478 
L 1084 3319 
L 1650 3319 
L 1650 2881 
L 1084 2881 
L 1084 941 
Q 1084 700 1114 631 
Q 1144 563 1211 522 
Q 1278 481 1403 481 
Q 1497 481 1650 503 
z
" transform="scale(0.015625)"/>
       <path id="ArialMT-79" d="M 397 -1278 
L 334 -750 
Q 519 -800 656 -800 
Q 844 -800 956 -737 
Q 1069 -675 1141 -563 
Q 1194 -478 1313 -144 
Q 1328 -97 1363 -6 
L 103 3319 
L 709 3319 
L 1400 1397 
Q 1534 1031 1641 628 
Q 1738 1016 1872 1384 
L 2581 3319 
L 3144 3319 
L 1881 -56 
Q 1678 -603 1566 -809 
Q 1416 -1088 1222 -1217 
Q 1028 -1347 759 -1347 
Q 597 -1347 397 -1278 
z
" transform="scale(0.015625)"/>
      </defs>
      <use xlink:href="#ArialMT-44"/>
      <use xlink:href="#ArialMT-65" transform="translate(72.216797 0)"/>
      <use xlink:href="#ArialMT-6e" transform="translate(127.832031 0)"/>
      <use xlink:href="#ArialMT-73" transform="translate(183.447266 0)"/>
      <use xlink:href="#ArialMT-69" transform="translate(233.447266 0)"/>
      <use xlink:href="#ArialMT-74" transform="translate(255.664062 0)"/>
      <use xlink:href="#ArialMT-79" transform="translate(283.447266 0)"/>
     </g>
    </g>
   </g>
   <g id="patch_7">
    <path d="M 41.784189 466.911562 
L 55.361796 466.911562 
L 55.361796 405.988486 
L 41.784189 405.988486 
z
" clip-path="url(#p2fba04ba37)" style="fill: #666666; opacity: 0.3"/>
   </g>
   <g id="patch_8">
    <path d="M 55.361796 466.911562 
L 68.939403 466.911562 
L 68.939403 324.757716 
L 55.361796 324.757716 
z
" clip-path="url(#p2fba04ba37)" style="fill: #666666; opacity: 0.3"/>
   </g>
   <g id="patch_9">
    <path d="M 68.939403 466.911562 
L 82.51701 466.911562 
L 82.51701 182.60387 
L 68.939403 182.60387 
z
" clip-path="url(#p2fba04ba37)" style="fill: #666666; opacity: 0.3"/>
   </g>
   <g id="patch_10">
    <path d="M 82.51701 466.911562 
L 96.094617 466.911562 
L 96.094617 170.419255 
L 82.51701 170.419255 
z
" clip-path="url(#p2fba04ba37)" style="fill: #666666; opacity: 0.3"/>
   </g>
   <g id="patch_11">
    <path d="M 96.094617 466.911562 
L 109.672224 466.911562 
L 109.672224 141.988486 
L 96.094617 141.988486 
z
" clip-path="url(#p2fba04ba37)" style="fill: #666666; opacity: 0.3"/>
   </g>
   <g id="patch_12">
    <path d="M 109.672224 466.911562 
L 123.249831 466.911562 
L 123.249831 117.619255 
L 109.672224 117.619255 
z
" clip-path="url(#p2fba04ba37)" style="fill: #666666; opacity: 0.3"/>
   </g>
   <g id="patch_13">
    <path d="M 123.249831 466.911562 
L 136.827438 466.911562 
L 136.827438 93.250024 
L 123.249831 93.250024 
z
" clip-path="url(#p2fba04ba37)" style="fill: #666666; opacity: 0.3"/>
   </g>
   <g id="patch_14">
    <path d="M 136.827438 466.911562 
L 150.405045 466.911562 
L 150.405045 113.557716 
L 136.827438 113.557716 
z
" clip-path="url(#p2fba04ba37)" style="fill: #666666; opacity: 0.3"/>
   </g>
   <g id="patch_15">
    <path d="M 150.405045 466.911562 
L 163.982652 466.911562 
L 163.982652 121.680793 
L 150.405045 121.680793 
z
" clip-path="url(#p2fba04ba37)" style="fill: #666666; opacity: 0.3"/>
   </g>
   <g id="patch_16">
    <path d="M 163.982652 466.911562 
L 177.560259 466.911562 
L 177.560259 44.511563 
L 163.982652 44.511563 
z
" clip-path="url(#p2fba04ba37)" style="fill: #666666; opacity: 0.3"/>
   </g>
   <g id="patch_17">
    <path d="M 177.560259 466.911562 
L 191.137866 466.911562 
L 191.137866 64.819255 
L 177.560259 64.819255 
z
" clip-path="url(#p2fba04ba37)" style="fill: #666666; opacity: 0.3"/>
   </g>
   <g id="patch_18">
    <path d="M 191.137866 466.911562 
L 204.715473 466.911562 
L 204.715473 133.865409 
L 191.137866 133.865409 
z
" clip-path="url(#p2fba04ba37)" style="fill: #666666; opacity: 0.3"/>
   </g>
   <g id="patch_19">
    <path d="M 204.715473 466.911562 
L 218.29308 466.911562 
L 218.29308 113.557716 
L 204.715473 113.557716 
z
" clip-path="url(#p2fba04ba37)" style="fill: #666666; opacity: 0.3"/>
   </g>
   <g id="patch_20">
    <path d="M 218.29308 466.911562 
L 231.870687 466.911562 
L 231.870687 60.757716 
L 218.29308 60.757716 
z
" clip-path="url(#p2fba04ba37)" style="fill: #666666; opacity: 0.3"/>
   </g>
   <g id="patch_21">
    <path d="M 231.870687 466.911562 
L 245.448294 466.911562 
L 245.448294 44.511562 
L 231.870687 44.511562 
z
" clip-path="url(#p2fba04ba37)" style="fill: #666666; opacity: 0.3"/>
   </g>
   <g id="patch_22">
    <path d="M 245.448294 466.911562 
L 259.025901 466.911562 
L 259.025901 105.434639 
L 245.448294 105.434639 
z
" clip-path="url(#p2fba04ba37)" style="fill: #666666; opacity: 0.3"/>
   </g>
   <g id="patch_23">
    <path d="M 259.025901 466.911562 
L 272.603509 466.911562 
L 272.603509 77.00387 
L 259.025901 77.00387 
z
" clip-path="url(#p2fba04ba37)" style="fill: #666666; opacity: 0.3"/>
   </g>
   <g id="patch_24">
    <path d="M 272.603509 466.911562 
L 286.181116 466.911562 
L 286.181116 101.373101 
L 272.603509 101.373101 
z
" clip-path="url(#p2fba04ba37)" style="fill: #666666; opacity: 0.3"/>
   </g>
   <g id="patch_25">
    <path d="M 286.181116 466.911562 
L 299.758723 466.911562 
L 299.758723 121.680793 
L 286.181116 121.680793 
z
" clip-path="url(#p2fba04ba37)" style="fill: #666666; opacity: 0.3"/>
   </g>
   <g id="patch_26">
    <path d="M 299.758723 466.911562 
L 313.33633 466.911562 
L 313.33633 133.865409 
L 299.758723 133.865409 
z
" clip-path="url(#p2fba04ba37)" style="fill: #666666; opacity: 0.3"/>
   </g>
   <g id="patch_27">
    <path d="M 313.33633 466.911562 
L 326.913937 466.911562 
L 326.913937 190.726947 
L 313.33633 190.726947 
z
" clip-path="url(#p2fba04ba37)" style="fill: #666666; opacity: 0.3"/>
   </g>
   <g id="patch_28">
    <path d="M 326.913937 466.911562 
L 340.491544 466.911562 
L 340.491544 150.111563 
L 326.913937 150.111563 
z
" clip-path="url(#p2fba04ba37)" style="fill: #666666; opacity: 0.3"/>
   </g>
   <g id="patch_29">
    <path d="M 340.491544 466.911562 
L 354.069151 466.911562 
L 354.069151 227.280793 
L 340.491544 227.280793 
z
" clip-path="url(#p2fba04ba37)" style="fill: #666666; opacity: 0.3"/>
   </g>
   <g id="patch_30">
    <path d="M 354.069151 466.911562 
L 367.646758 466.911562 
L 367.646758 166.357716 
L 354.069151 166.357716 
z
" clip-path="url(#p2fba04ba37)" style="fill: #666666; opacity: 0.3"/>
   </g>
   <g id="patch_31">
    <path d="M 367.646758 466.911562 
L 381.224365 466.911562 
L 381.224365 292.265409 
L 367.646758 292.265409 
z
" clip-path="url(#p2fba04ba37)" style="fill: #666666; opacity: 0.3"/>
   </g>
   <g id="patch_32">
    <path d="M 381.224365 466.911562 
L 394.801972 466.911562 
L 394.801972 284.142332 
L 381.224365 284.142332 
z
" clip-path="url(#p2fba04ba37)" style="fill: #666666; opacity: 0.3"/>
   </g>
   <g id="patch_33">
    <path d="M 394.801972 466.911562 
L 408.379579 466.911562 
L 408.379579 280.080793 
L 394.801972 280.080793 
z
" clip-path="url(#p2fba04ba37)" style="fill: #666666; opacity: 0.3"/>
   </g>
   <g id="patch_34">
    <path d="M 408.379579 466.911562 
L 421.957186 466.911562 
L 421.957186 393.80387 
L 408.379579 393.80387 
z
" clip-path="url(#p2fba04ba37)" style="fill: #666666; opacity: 0.3"/>
   </g>
   <g id="patch_35">
    <path d="M 421.957186 466.911562 
L 435.534793 466.911562 
L 435.534793 405.988486 
L 421.957186 405.988486 
z
" clip-path="url(#p2fba04ba37)" style="fill: #666666; opacity: 0.3"/>
   </g>
   <g id="patch_36">
    <path d="M 435.534793 466.911562 
L 449.1124 466.911562 
L 449.1124 446.60387 
L 435.534793 446.60387 
z
" clip-path="url(#p2fba04ba37)" style="fill: #666666; opacity: 0.3"/>
   </g>
   <g id="patch_37">
    <path d="M 39.5575 466.911562 
L 39.5575 23.391563 
" style="fill: none; stroke: #cccccc; stroke-linejoin: miter; stroke-linecap: square"/>
   </g>
   <g id="patch_38">
    <path d="M 485.9575 466.911562 
L 485.9575 23.391563 
" style="fill: none; stroke: #cccccc; stroke-linejoin: miter; stroke-linecap: square"/>
   </g>
   <g id="patch_39">
    <path d="M 39.5575 466.911562 
L 485.9575 466.911562 
" style="fill: none; stroke: #cccccc; stroke-linejoin: miter; stroke-linecap: square"/>
   </g>
   <g id="patch_40">
    <path d="M 39.5575 23.391562 
L 485.9575 23.391562 
" style="fill: none; stroke: #cccccc; stroke-linejoin: miter; stroke-linecap: square"/>
   </g>
  </g>
 </g>
 <defs>
  <clipPath id="p2fba04ba37">
   <rect x="39.5575" y="23.391562" width="446.4" height="443.52"/>
  </clipPath>
 </defs>
</svg>
