<?xml version="1.0" encoding="utf-8" standalone="no"?>
<!DOCTYPE svg PUBLIC "-//W3C//DTD SVG 1.1//EN"
  "http://www.w3.org/Graphics/SVG/1.1/DTD/svg11.dtd">
<svg xmlns:xlink="http://www.w3.org/1999/xlink" width="540.93975pt" height="569.033063pt" viewBox="0 0 540.93975 569.033063" xmlns="http://www.w3.org/2000/svg" version="1.1">
 <metadata>
  <rdf:RDF xmlns:dc="http://purl.org/dc/elements/1.1/" xmlns:cc="http://creativecommons.org/ns#" xmlns:rdf="http://www.w3.org/1999/02/22-rdf-syntax-ns#">
   <cc:Work>
    <dc:type rdf:resource="http://purl.org/dc/dcmitype/StillImage"/>
    <dc:date>2025-10-04T15:45:16.962256</dc:date>
    <dc:format>image/svg+xml</dc:format>
    <dc:creator>
     <cc:Agent>
      <dc:title>Matplotlib v3.10.6, https://matplotlib.org/</dc:title>
     </cc:Agent>
    </dc:creator>
   </cc:Work>
  </rdf:RDF>
 </metadata>
 <defs>
  <style type="text/css">*{stroke-linejoin: round; stroke-linecap: butt}</style>
 </defs>
 <g id="figure_1">
  <g id="patch_1">
   <path d="M 0 569.033063 
L 540.93975 569.033063 
L 540.93975 0 
L 0 0 
z
" style="fill: #ffffff"/>
  </g>
  <g id="axes_1">
   <g id="patch_2">
    <path d="M 41.38375 532.404 
L 531.59575 532.404 
L 531.59575 42.192 
L 41.38375 42.192 
z
" style="fill: #ffffff"/>
   </g>
   <g id="matplotlib.axis_1">
    <g id="xtick_1">
     <g id="line2d_1">
      <path d="M 46.18975 532.404 
L 46.18975 42.192 
" clip-path="url(#p099f7ed67d)" style="fill: none; stroke: #cccccc; stroke-opacity: 0.3; stroke-width: 0.8; stroke-linecap: round"/>
     </g>
     <g id="line2d_2"/>
     <g id="text_1">
      <!-- 0.0 -->
      <g style="fill: #262626" transform="translate(39.23975 543.061812) scale(0.1 -0.1)">
       <defs>
        <path id="ArialMT-30" d="M 266 2259 
Q 266 3072 433 3567 
Q 600 4063 929 4331 
Q 1259 4600 1759 4600 
Q 2128 4600 2406 4451 
Q 2684 4303 2865 4023 
Q 3047 3744 3150 3342 
Q 3253 2941 3253 2259 
Q 3253 1453 3087 958 
Q 2922 463 2592 192 
Q 2263 -78 1759 -78 
Q 1097 -78 719 397 
Q 266 969 266 2259 
z
M 844 2259 
Q 844 1131 1108 757 
Q 1372 384 1759 384 
Q 2147 384 2411 759 
Q 2675 1134 2675 2259 
Q 2675 3391 2411 3762 
Q 2147 4134 1753 4134 
Q 1366 4134 1134 3806 
Q 844 3388 844 2259 
z
" transform="scale(0.015625)"/>
        <path id="ArialMT-2e" d="M 581 0 
L 581 641 
L 1222 641 
L 1222 0 
L 581 0 
z
" transform="scale(0.015625)"/>
       </defs>
       <use xlink:href="#ArialMT-30"/>
       <use xlink:href="#ArialMT-2e" transform="translate(55.615234 0)"/>
       <use xlink:href="#ArialMT-30" transform="translate(83.398438 0)"/>
      </g>
     </g>
    </g>
    <g id="xtick_2">
     <g id="line2d_3">
      <path d="M 142.30975 532.404 
L 142.30975 42.192 
" clip-path="url(#p099f7ed67d)" style="fill: none; stroke: #cccccc; stroke-opacity: 0.3; stroke-width: 0.8; stroke-linecap: round"/>
     </g>
     <g id="line2d_4"/>
     <g id="text_2">
      <!-- 0.2 -->
      <g style="fill: #262626" transform="translate(135.35975 543.061812) scale(0.1 -0.1)">
       <defs>
        <path id="ArialMT-32" d="M 3222 541 
L 3222 0 
L 194 0 
Q 188 203 259 391 
Q 375 700 629 1000 
Q 884 1300 1366 1694 
Q 2113 2306 2375 2664 
Q 2638 3022 2638 3341 
Q 2638 3675 2398 3904 
Q 2159 4134 1775 4134 
Q 1369 4134 1125 3890 
Q 881 3647 878 3216 
L 300 3275 
Q 359 3922 746 4261 
Q 1134 4600 1788 4600 
Q 2447 4600 2831 4234 
Q 3216 3869 3216 3328 
Q 3216 3053 3103 2787 
Q 2991 2522 2730 2228 
Q 2469 1934 1863 1422 
Q 1356 997 1212 845 
Q 1069 694 975 541 
L 3222 541 
z
" transform="scale(0.015625)"/>
       </defs>
       <use xlink:href="#ArialMT-30"/>
       <use xlink:href="#ArialMT-2e" transform="translate(55.615234 0)"/>
       <use xlink:href="#ArialMT-32" transform="translate(83.398438 0)"/>
      </g>
     </g>
    </g>
    <g id="xtick_3">
     <g id="line2d_5">
      <path d="M 238.42975 532.404 
L 238.42975 42.192 
" clip-path="url(#p099f7ed67d)" style="fill: none; stroke: #cccccc; stroke-opacity: 0.3; stroke-width: 0.8; stroke-linecap: round"/>
     </g>
     <g id="line2d_6"/>
     <g id="text_3">
      <!-- 0.4 -->
      <g style="fill: #262626" transform="translate(231.47975 543.061812) scale(0.1 -0.1)">
       <defs>
        <path id="ArialMT-34" d="M 2069 0 
L 2069 1097 
L 81 1097 
L 81 1613 
L 2172 4581 
L 2631 4581 
L 2631 1613 
L 3250 1613 
L 3250 1097 
L 2631 1097 
L 2631 0 
L 2069 0 
z
M 2069 1613 
L 2069 3678 
L 634 1613 
L 2069 1613 
z
" transform="scale(0.015625)"/>
       </defs>
       <use xlink:href="#ArialMT-30"/>
       <use xlink:href="#ArialMT-2e" transform="translate(55.615234 0)"/>
       <use xlink:href="#ArialMT-34" transform="translate(83.398438 0)"/>
      </g>
     </g>
    </g>
    <g id="xtick_4">
     <g id="line2d_7">
      <path d="M 334.54975 532.404 
L 334.54975 42.192 
" clip-path="url(#p099f7ed67d)" style="fill: none; stroke: #cccccc; stroke-opacity: 0.3; stroke-width: 0.8; stroke-linecap: round"/>
     </g>
     <g id="line2d_8"/>
     <g id="text_4">
      <!-- 0.6 -->
      <g style="fill: #262626" transform="translate(327.59975 543.061812) scale(0.1 -0.1)">
       <defs>
        <path id="ArialMT-36" d="M 3184 3459 
L 2625 3416 
Q 2550 3747 2413 3897 
Q 2184 4138 1850 4138 
Q 1581 4138 1378 3988 
Q 1113 3794 959 3422 
Q 806 3050 800 2363 
Q 1003 2672 1297 2822 
Q 1591 2972 1913 2972 
Q 2475 2972 2870 2558 
Q 3266 2144 3266 1488 
Q 3266 1056 3080 686 
Q 2894 316 2569 119 
Q 2244 -78 1831 -78 
Q 1128 -78 684 439 
Q 241 956 241 2144 
Q 241 3472 731 4075 
Q 1159 4600 1884 4600 
Q 2425 4600 2770 4297 
Q 3116 3994 3184 3459 
z
M 888 1484 
Q 888 1194 1011 928 
Q 1134 663 1356 523 
Q 1578 384 1822 384 
Q 2178 384 2434 671 
Q 2691 959 2691 1453 
Q 2691 1928 2437 2201 
Q 2184 2475 1800 2475 
Q 1419 2475 1153 2201 
Q 888 1928 888 1484 
z
" transform="scale(0.015625)"/>
       </defs>
       <use xlink:href="#ArialMT-30"/>
       <use xlink:href="#ArialMT-2e" transform="translate(55.615234 0)"/>
       <use xlink:href="#ArialMT-36" transform="translate(83.398438 0)"/>
      </g>
     </g>
    </g>
    <g id="xtick_5">
     <g id="line2d_9">
      <path d="M 430.66975 532.404 
L 430.66975 42.192 
" clip-path="url(#p099f7ed67d)" style="fill: none; stroke: #cccccc; stroke-opacity: 0.3; stroke-width: 0.8; stroke-linecap: round"/>
     </g>
     <g id="line2d_10"/>
     <g id="text_5">
      <!-- 0.8 -->
      <g style="fill: #262626" transform="translate(423.71975 543.061812) scale(0.1 -0.1)">
       <defs>
        <path id="ArialMT-38" d="M 1131 2484 
Q 781 2613 612 2850 
Q 444 3088 444 3419 
Q 444 3919 803 4259 
Q 1163 4600 1759 4600 
Q 2359 4600 2725 4251 
Q 3091 3903 3091 3403 
Q 3091 3084 2923 2848 
Q 2756 2613 2416 2484 
Q 2838 2347 3058 2040 
Q 3278 1734 3278 1309 
Q 3278 722 2862 322 
Q 2447 -78 1769 -78 
Q 1091 -78 675 323 
Q 259 725 259 1325 
Q 259 1772 486 2073 
Q 713 2375 1131 2484 
z
M 1019 3438 
Q 1019 3113 1228 2906 
Q 1438 2700 1772 2700 
Q 2097 2700 2305 2904 
Q 2513 3109 2513 3406 
Q 2513 3716 2298 3927 
Q 2084 4138 1766 4138 
Q 1444 4138 1231 3931 
Q 1019 3725 1019 3438 
z
M 838 1322 
Q 838 1081 952 856 
Q 1066 631 1291 507 
Q 1516 384 1775 384 
Q 2178 384 2440 643 
Q 2703 903 2703 1303 
Q 2703 1709 2433 1975 
Q 2163 2241 1756 2241 
Q 1359 2241 1098 1978 
Q 838 1716 838 1322 
z
" transform="scale(0.015625)"/>
       </defs>
       <use xlink:href="#ArialMT-30"/>
       <use xlink:href="#ArialMT-2e" transform="translate(55.615234 0)"/>
       <use xlink:href="#ArialMT-38" transform="translate(83.398438 0)"/>
      </g>
     </g>
    </g>
    <g id="xtick_6">
     <g id="line2d_11">
      <path d="M 526.78975 532.404 
L 526.78975 42.192 
" clip-path="url(#p099f7ed67d)" style="fill: none; stroke: #cccccc; stroke-opacity: 0.3; stroke-width: 0.8; stroke-linecap: round"/>
     </g>
     <g id="line2d_12"/>
     <g id="text_6">
      <!-- 1.0 -->
      <g style="fill: #262626" transform="translate(519.83975 543.061812) scale(0.1 -0.1)">
       <defs>
        <path id="ArialMT-31" d="M 2384 0 
L 1822 0 
L 1822 3584 
Q 1619 3391 1289 3197 
Q 959 3003 697 2906 
L 697 3450 
Q 1169 3672 1522 3987 
Q 1875 4303 2022 4600 
L 2384 4600 
L 2384 0 
z
" transform="scale(0.015625)"/>
       </defs>
       <use xlink:href="#ArialMT-31"/>
       <use xlink:href="#ArialMT-2e" transform="translate(55.615234 0)"/>
       <use xlink:href="#ArialMT-30" transform="translate(83.398438 0)"/>
      </g>
     </g>
    </g>
    <g id="text_7">
     <!-- False Positive Rate -->
     <g style="fill: #262626" transform="translate(222.688031 559.07025) scale(0.14 -0.14)">
      <defs>
       <path id="Arial-BoldMT-46" d="M 472 0 
L 472 4581 
L 3613 4581 
L 3613 3806 
L 1397 3806 
L 1397 2722 
L 3309 2722 
L 3309 1947 
L 1397 1947 
L 1397 0 
L 472 0 
z
" transform="scale(0.015625)"/>
       <path id="Arial-BoldMT-61" d="M 1116 2306 
L 319 2450 
Q 453 2931 781 3162 
Q 1109 3394 1756 3394 
Q 2344 3394 2631 3255 
Q 2919 3116 3036 2902 
Q 3153 2688 3153 2116 
L 3144 1091 
Q 3144 653 3186 445 
Q 3228 238 3344 0 
L 2475 0 
Q 2441 88 2391 259 
Q 2369 338 2359 363 
Q 2134 144 1878 34 
Q 1622 -75 1331 -75 
Q 819 -75 523 203 
Q 228 481 228 906 
Q 228 1188 362 1408 
Q 497 1628 739 1745 
Q 981 1863 1438 1950 
Q 2053 2066 2291 2166 
L 2291 2253 
Q 2291 2506 2166 2614 
Q 2041 2722 1694 2722 
Q 1459 2722 1328 2630 
Q 1197 2538 1116 2306 
z
M 2291 1594 
Q 2122 1538 1756 1459 
Q 1391 1381 1278 1306 
Q 1106 1184 1106 997 
Q 1106 813 1243 678 
Q 1381 544 1594 544 
Q 1831 544 2047 700 
Q 2206 819 2256 991 
Q 2291 1103 2291 1419 
L 2291 1594 
z
" transform="scale(0.015625)"/>
       <path id="Arial-BoldMT-6c" d="M 459 0 
L 459 4581 
L 1338 4581 
L 1338 0 
L 459 0 
z
" transform="scale(0.015625)"/>
       <path id="Arial-BoldMT-73" d="M 150 947 
L 1031 1081 
Q 1088 825 1259 692 
Q 1431 559 1741 559 
Q 2081 559 2253 684 
Q 2369 772 2369 919 
Q 2369 1019 2306 1084 
Q 2241 1147 2013 1200 
Q 950 1434 666 1628 
Q 272 1897 272 2375 
Q 272 2806 612 3100 
Q 953 3394 1669 3394 
Q 2350 3394 2681 3172 
Q 3013 2950 3138 2516 
L 2309 2363 
Q 2256 2556 2107 2659 
Q 1959 2763 1684 2763 
Q 1338 2763 1188 2666 
Q 1088 2597 1088 2488 
Q 1088 2394 1175 2328 
Q 1294 2241 1995 2081 
Q 2697 1922 2975 1691 
Q 3250 1456 3250 1038 
Q 3250 581 2869 253 
Q 2488 -75 1741 -75 
Q 1063 -75 667 200 
Q 272 475 150 947 
z
" transform="scale(0.015625)"/>
       <path id="Arial-BoldMT-65" d="M 2381 1056 
L 3256 909 
Q 3088 428 2723 176 
Q 2359 -75 1813 -75 
Q 947 -75 531 491 
Q 203 944 203 1634 
Q 203 2459 634 2926 
Q 1066 3394 1725 3394 
Q 2466 3394 2894 2905 
Q 3322 2416 3303 1406 
L 1103 1406 
Q 1113 1016 1316 798 
Q 1519 581 1822 581 
Q 2028 581 2168 693 
Q 2309 806 2381 1056 
z
M 2431 1944 
Q 2422 2325 2234 2523 
Q 2047 2722 1778 2722 
Q 1491 2722 1303 2513 
Q 1116 2303 1119 1944 
L 2431 1944 
z
" transform="scale(0.015625)"/>
       <path id="Arial-BoldMT-20" transform="scale(0.015625)"/>
       <path id="Arial-BoldMT-50" d="M 466 0 
L 466 4581 
L 1950 4581 
Q 2794 4581 3050 4513 
Q 3444 4409 3709 4064 
Q 3975 3719 3975 3172 
Q 3975 2750 3822 2462 
Q 3669 2175 3433 2011 
Q 3197 1847 2953 1794 
Q 2622 1728 1994 1728 
L 1391 1728 
L 1391 0 
L 466 0 
z
M 1391 3806 
L 1391 2506 
L 1897 2506 
Q 2444 2506 2628 2578 
Q 2813 2650 2917 2803 
Q 3022 2956 3022 3159 
Q 3022 3409 2875 3571 
Q 2728 3734 2503 3775 
Q 2338 3806 1838 3806 
L 1391 3806 
z
" transform="scale(0.015625)"/>
       <path id="Arial-BoldMT-6f" d="M 256 1706 
Q 256 2144 472 2553 
Q 688 2963 1083 3178 
Q 1478 3394 1966 3394 
Q 2719 3394 3200 2905 
Q 3681 2416 3681 1669 
Q 3681 916 3195 420 
Q 2709 -75 1972 -75 
Q 1516 -75 1102 131 
Q 688 338 472 736 
Q 256 1134 256 1706 
z
M 1156 1659 
Q 1156 1166 1390 903 
Q 1625 641 1969 641 
Q 2313 641 2545 903 
Q 2778 1166 2778 1666 
Q 2778 2153 2545 2415 
Q 2313 2678 1969 2678 
Q 1625 2678 1390 2415 
Q 1156 2153 1156 1659 
z
" transform="scale(0.015625)"/>
       <path id="Arial-BoldMT-69" d="M 459 3769 
L 459 4581 
L 1338 4581 
L 1338 3769 
L 459 3769 
z
M 459 0 
L 459 3319 
L 1338 3319 
L 1338 0 
L 459 0 
z
" transform="scale(0.015625)"/>
       <path id="Arial-BoldMT-74" d="M 1981 3319 
L 1981 2619 
L 1381 2619 
L 1381 1281 
Q 1381 875 1398 808 
Q 1416 741 1477 697 
Q 1538 653 1625 653 
Q 1747 653 1978 738 
L 2053 56 
Q 1747 -75 1359 -75 
Q 1122 -75 931 4 
Q 741 84 652 211 
Q 563 338 528 553 
Q 500 706 500 1172 
L 500 2619 
L 97 2619 
L 97 3319 
L 500 3319 
L 500 3978 
L 1381 4491 
L 1381 3319 
L 1981 3319 
z
" transform="scale(0.015625)"/>
       <path id="Arial-BoldMT-76" d="M 1372 0 
L 34 3319 
L 956 3319 
L 1581 1625 
L 1763 1059 
Q 1834 1275 1853 1344 
Q 1897 1484 1947 1625 
L 2578 3319 
L 3481 3319 
L 2163 0 
L 1372 0 
z
" transform="scale(0.015625)"/>
       <path id="Arial-BoldMT-52" d="M 469 0 
L 469 4581 
L 2416 4581 
Q 3150 4581 3483 4457 
Q 3816 4334 4016 4018 
Q 4216 3703 4216 3297 
Q 4216 2781 3912 2445 
Q 3609 2109 3006 2022 
Q 3306 1847 3501 1637 
Q 3697 1428 4028 894 
L 4588 0 
L 3481 0 
L 2813 997 
Q 2456 1531 2325 1670 
Q 2194 1809 2047 1861 
Q 1900 1913 1581 1913 
L 1394 1913 
L 1394 0 
L 469 0 
z
M 1394 2644 
L 2078 2644 
Q 2744 2644 2909 2700 
Q 3075 2756 3169 2893 
Q 3263 3031 3263 3238 
Q 3263 3469 3139 3611 
Q 3016 3753 2791 3791 
Q 2678 3806 2116 3806 
L 1394 3806 
L 1394 2644 
z
" transform="scale(0.015625)"/>
      </defs>
      <use xlink:href="#Arial-BoldMT-46"/>
      <use xlink:href="#Arial-BoldMT-61" transform="translate(61.083984 0)"/>
      <use xlink:href="#Arial-BoldMT-6c" transform="translate(116.699219 0)"/>
      <use xlink:href="#Arial-BoldMT-73" transform="translate(144.482422 0)"/>
      <use xlink:href="#Arial-BoldMT-65" transform="translate(200.097656 0)"/>
      <use xlink:href="#Arial-BoldMT-20" transform="translate(255.712891 0)"/>
      <use xlink:href="#Arial-BoldMT-50" transform="translate(283.496094 0)"/>
      <use xlink:href="#Arial-BoldMT-6f" transform="translate(350.195312 0)"/>
      <use xlink:href="#Arial-BoldMT-73" transform="translate(411.279297 0)"/>
      <use xlink:href="#Arial-BoldMT-69" transform="translate(466.894531 0)"/>
      <use xlink:href="#Arial-BoldMT-74" transform="translate(494.677734 0)"/>
      <use xlink:href="#Arial-BoldMT-69" transform="translate(527.978516 0)"/>
      <use xlink:href="#Arial-BoldMT-76" transform="translate(555.761719 0)"/>
      <use xlink:href="#Arial-BoldMT-65" transform="translate(611.376953 0)"/>
      <use xlink:href="#Arial-BoldMT-20" transform="translate(666.992188 0)"/>
      <use xlink:href="#Arial-BoldMT-52" transform="translate(694.775391 0)"/>
      <use xlink:href="#Arial-BoldMT-61" transform="translate(766.992188 0)"/>
      <use xlink:href="#Arial-BoldMT-74" transform="translate(822.607422 0)"/>
      <use xlink:href="#Arial-BoldMT-65" transform="translate(855.908203 0)"/>
     </g>
    </g>
   </g>
   <g id="matplotlib.axis_2">
    <g id="ytick_1">
     <g id="line2d_13">
      <path d="M 41.38375 527.598 
L 531.59575 527.598 
" clip-path="url(#p099f7ed67d)" style="fill: none; stroke: #cccccc; stroke-opacity: 0.3; stroke-width: 0.8; stroke-linecap: round"/>
     </g>
     <g id="line2d_14"/>
     <g id="text_8">
      <!-- 0.0 -->
      <g style="fill: #262626" transform="translate(23.98375 531.176906) scale(0.1 -0.1)">
       <use xlink:href="#ArialMT-30"/>
       <use xlink:href="#ArialMT-2e" transform="translate(55.615234 0)"/>
       <use xlink:href="#ArialMT-30" transform="translate(83.398438 0)"/>
      </g>
     </g>
    </g>
    <g id="ytick_2">
     <g id="line2d_15">
      <path d="M 41.38375 431.478 
L 531.59575 431.478 
" clip-path="url(#p099f7ed67d)" style="fill: none; stroke: #cccccc; stroke-opacity: 0.3; stroke-width: 0.8; stroke-linecap: round"/>
     </g>
     <g id="line2d_16"/>
     <g id="text_9">
      <!-- 0.2 -->
      <g style="fill: #262626" transform="translate(23.98375 435.056906) scale(0.1 -0.1)">
       <use xlink:href="#ArialMT-30"/>
       <use xlink:href="#ArialMT-2e" transform="translate(55.615234 0)"/>
       <use xlink:href="#ArialMT-32" transform="translate(83.398438 0)"/>
      </g>
     </g>
    </g>
    <g id="ytick_3">
     <g id="line2d_17">
      <path d="M 41.38375 335.358 
L 531.59575 335.358 
" clip-path="url(#p099f7ed67d)" style="fill: none; stroke: #cccccc; stroke-opacity: 0.3; stroke-width: 0.8; stroke-linecap: round"/>
     </g>
     <g id="line2d_18"/>
     <g id="text_10">
      <!-- 0.4 -->
      <g style="fill: #262626" transform="translate(23.98375 338.936906) scale(0.1 -0.1)">
       <use xlink:href="#ArialMT-30"/>
       <use xlink:href="#ArialMT-2e" transform="translate(55.615234 0)"/>
       <use xlink:href="#ArialMT-34" transform="translate(83.398438 0)"/>
      </g>
     </g>
    </g>
    <g id="ytick_4">
     <g id="line2d_19">
      <path d="M 41.38375 239.238 
L 531.59575 239.238 
" clip-path="url(#p099f7ed67d)" style="fill: none; stroke: #cccccc; stroke-opacity: 0.3; stroke-width: 0.8; stroke-linecap: round"/>
     </g>
     <g id="line2d_20"/>
     <g id="text_11">
      <!-- 0.6 -->
      <g style="fill: #262626" transform="translate(23.98375 242.816906) scale(0.1 -0.1)">
       <use xlink:href="#ArialMT-30"/>
       <use xlink:href="#ArialMT-2e" transform="translate(55.615234 0)"/>
       <use xlink:href="#ArialMT-36" transform="translate(83.398438 0)"/>
      </g>
     </g>
    </g>
    <g id="ytick_5">
     <g id="line2d_21">
      <path d="M 41.38375 143.118 
L 531.59575 143.118 
" clip-path="url(#p099f7ed67d)" style="fill: none; stroke: #cccccc; stroke-opacity: 0.3; stroke-width: 0.8; stroke-linecap: round"/>
     </g>
     <g id="line2d_22"/>
     <g id="text_12">
      <!-- 0.8 -->
      <g style="fill: #262626" transform="translate(23.98375 146.696906) scale(0.1 -0.1)">
       <use xlink:href="#ArialMT-30"/>
       <use xlink:href="#ArialMT-2e" transform="translate(55.615234 0)"/>
       <use xlink:href="#ArialMT-38" transform="translate(83.398438 0)"/>
      </g>
     </g>
    </g>
    <g id="ytick_6">
     <g id="line2d_23">
      <path d="M 41.38375 46.998 
L 531.59575 46.998 
" clip-path="url(#p099f7ed67d)" style="fill: none; stroke: #cccccc; stroke-opacity: 0.3; stroke-width: 0.8; stroke-linecap: round"/>
     </g>
     <g id="line2d_24"/>
     <g id="text_13">
      <!-- 1.0 -->
      <g style="fill: #262626" transform="translate(23.98375 50.576906) scale(0.1 -0.1)">
       <use xlink:href="#ArialMT-31"/>
       <use xlink:href="#ArialMT-2e" transform="translate(55.615234 0)"/>
       <use xlink:href="#ArialMT-30" transform="translate(83.398438 0)"/>
      </g>
     </g>
    </g>
    <g id="text_14">
     <!-- True Positive Rate -->
     <g style="fill: #262626" transform="translate(17.220938 347.984719) rotate(-90) scale(0.14 -0.14)">
      <defs>
       <path id="Arial-BoldMT-54" d="M 1497 0 
L 1497 3806 
L 138 3806 
L 138 4581 
L 3778 4581 
L 3778 3806 
L 2422 3806 
L 2422 0 
L 1497 0 
z
" transform="scale(0.015625)"/>
       <path id="Arial-BoldMT-72" d="M 1300 0 
L 422 0 
L 422 3319 
L 1238 3319 
L 1238 2847 
Q 1447 3181 1614 3287 
Q 1781 3394 1994 3394 
Q 2294 3394 2572 3228 
L 2300 2463 
Q 2078 2606 1888 2606 
Q 1703 2606 1575 2504 
Q 1447 2403 1373 2137 
Q 1300 1872 1300 1025 
L 1300 0 
z
" transform="scale(0.015625)"/>
       <path id="Arial-BoldMT-75" d="M 2644 0 
L 2644 497 
Q 2463 231 2167 78 
Q 1872 -75 1544 -75 
Q 1209 -75 943 72 
Q 678 219 559 484 
Q 441 750 441 1219 
L 441 3319 
L 1319 3319 
L 1319 1794 
Q 1319 1094 1367 936 
Q 1416 778 1544 686 
Q 1672 594 1869 594 
Q 2094 594 2272 717 
Q 2450 841 2515 1023 
Q 2581 1206 2581 1919 
L 2581 3319 
L 3459 3319 
L 3459 0 
L 2644 0 
z
" transform="scale(0.015625)"/>
      </defs>
      <use xlink:href="#Arial-BoldMT-54"/>
      <use xlink:href="#Arial-BoldMT-72" transform="translate(55.583984 0)"/>
      <use xlink:href="#Arial-BoldMT-75" transform="translate(94.5 0)"/>
      <use xlink:href="#Arial-BoldMT-65" transform="translate(155.583984 0)"/>
      <use xlink:href="#Arial-BoldMT-20" transform="translate(211.199219 0)"/>
      <use xlink:href="#Arial-BoldMT-50" transform="translate(238.982422 0)"/>
      <use xlink:href="#Arial-BoldMT-6f" transform="translate(305.681641 0)"/>
      <use xlink:href="#Arial-BoldMT-73" transform="translate(366.765625 0)"/>
      <use xlink:href="#Arial-BoldMT-69" transform="translate(422.380859 0)"/>
      <use xlink:href="#Arial-BoldMT-74" transform="translate(450.164062 0)"/>
      <use xlink:href="#Arial-BoldMT-69" transform="translate(483.464844 0)"/>
      <use xlink:href="#Arial-BoldMT-76" transform="translate(511.248047 0)"/>
      <use xlink:href="#Arial-BoldMT-65" transform="translate(566.863281 0)"/>
      <use xlink:href="#Arial-BoldMT-20" transform="translate(622.478516 0)"/>
      <use xlink:href="#Arial-BoldMT-52" transform="translate(650.261719 0)"/>
      <use xlink:href="#Arial-BoldMT-61" transform="translate(722.478516 0)"/>
      <use xlink:href="#Arial-BoldMT-74" transform="translate(778.09375 0)"/>
      <use xlink:href="#Arial-BoldMT-65" transform="translate(811.394531 0)"/>
     </g>
    </g>
   </g>
   <g id="FillBetweenPolyCollection_1">
    <defs>
     <path id="m1aa5e7fe1d" d="M 46.18975 -41.435063 
L 46.18975 -41.435063 
L 51.044295 -50.592234 
L 55.898841 -62.119402 
L 60.753386 -80.400528 
L 65.607932 -87.943448 
L 70.462477 -95.918632 
L 75.317023 -103.111605 
L 80.171568 -113.238957 
L 85.026114 -122.774179 
L 89.880659 -134.580055 
L 94.735205 -147.679277 
L 99.58975 -166.941455 
L 104.444295 -182.532736 
L 109.298841 -188.72841 
L 114.153386 -194.756874 
L 119.007932 -199.965029 
L 123.862477 -207.658598 
L 128.717023 -217.20424 
L 133.571568 -225.830784 
L 138.426114 -233.329118 
L 143.280659 -242.499792 
L 148.135205 -252.744264 
L 152.98975 -264.82553 
L 157.844295 -272.191527 
L 162.698841 -277.135569 
L 167.553386 -284.154075 
L 172.407932 -292.027333 
L 177.262477 -298.420733 
L 182.117023 -304.958313 
L 186.971568 -311.363759 
L 191.826114 -320.351332 
L 196.680659 -327.484278 
L 201.535205 -333.077849 
L 206.38975 -338.869243 
L 211.244295 -344.00546 
L 216.098841 -348.981847 
L 220.953386 -353.110542 
L 225.807932 -357.963702 
L 230.662477 -361.828097 
L 235.517023 -366.295552 
L 240.371568 -370.442364 
L 245.226114 -375.061664 
L 250.080659 -381.167058 
L 254.935205 -389.946158 
L 259.78975 -398.886041 
L 264.644295 -403.475933 
L 269.498841 -407.707832 
L 274.353386 -411.931335 
L 279.207932 -415.40267 
L 284.062477 -419.568914 
L 288.917023 -423.85333 
L 293.771568 -426.736088 
L 298.626114 -429.227456 
L 303.480659 -432.034696 
L 308.335205 -434.937701 
L 313.18975 -439.579986 
L 318.044295 -443.354291 
L 322.898841 -445.484277 
L 327.753386 -446.789608 
L 332.607932 -449.166455 
L 337.462477 -451.514447 
L 342.317023 -453.148995 
L 347.171568 -454.511527 
L 352.026114 -457.108825 
L 356.880659 -459.564207 
L 361.735205 -461.748423 
L 366.58975 -463.249732 
L 371.444295 -464.859721 
L 376.298841 -467.346097 
L 381.153386 -469.122539 
L 386.007932 -471.314301 
L 390.862477 -474.63997 
L 395.717023 -477.459368 
L 400.571568 -479.833355 
L 405.426114 -482.119065 
L 410.280659 -485.500842 
L 415.135205 -488.510314 
L 419.98975 -491.684047 
L 424.844295 -494.546017 
L 429.698841 -496.610668 
L 434.553386 -497.597774 
L 439.407932 -498.779553 
L 444.262477 -500.995399 
L 449.117023 -503.61405 
L 453.971568 -506.173194 
L 458.826114 -507.220137 
L 463.680659 -508.497034 
L 468.535205 -510.332988 
L 473.38975 -511.707693 
L 478.244295 -512.466441 
L 483.098841 -512.89675 
L 487.953386 -513.042707 
L 492.807932 -513.042707 
L 497.662477 -513.042707 
L 502.517023 -513.483461 
L 507.371568 -515.01829 
L 512.226114 -517.774045 
L 517.080659 -520.357576 
L 521.935205 -522.035063 
L 526.78975 -522.035063 
L 526.78975 -522.035063 
L 526.78975 -522.035063 
L 521.935205 -522.035063 
L 517.080659 -522.035063 
L 512.226114 -522.035063 
L 507.371568 -522.035063 
L 502.517023 -521.194962 
L 497.662477 -520.438451 
L 492.807932 -520.438451 
L 487.953386 -520.438451 
L 483.098841 -520.438451 
L 478.244295 -520.389591 
L 473.38975 -520.32823 
L 468.535205 -519.65202 
L 463.680659 -518.904118 
L 458.826114 -518.063326 
L 453.971568 -517.812234 
L 449.117023 -517.123869 
L 444.262477 -515.917355 
L 439.407932 -514.133024 
L 434.553386 -512.354405 
L 429.698841 -511.428042 
L 424.844295 -510.334511 
L 419.98975 -509.412039 
L 415.135205 -507.851915 
L 410.280659 -505.933086 
L 405.426114 -503.742329 
L 400.571568 -501.475184 
L 395.717023 -499.109925 
L 390.862477 -497.559102 
L 386.007932 -496.162802 
L 381.153386 -493.67151 
L 376.298841 -491.681594 
L 371.444295 -489.831358 
L 366.58975 -487.829762 
L 361.735205 -486.372302 
L 356.880659 -484.674152 
L 352.026114 -483.454544 
L 347.171568 -481.349678 
L 342.317023 -479.483067 
L 337.462477 -477.966591 
L 332.607932 -476.901057 
L 327.753386 -474.934774 
L 322.898841 -473.244378 
L 318.044295 -472.094837 
L 313.18975 -470.450199 
L 308.335205 -468.018379 
L 303.480659 -465.644233 
L 298.626114 -462.493892 
L 293.771568 -459.507585 
L 288.917023 -456.711528 
L 284.062477 -453.383474 
L 279.207932 -449.618797 
L 274.353386 -446.760364 
L 269.498841 -442.909398 
L 264.644295 -440.408059 
L 259.78975 -436.427185 
L 254.935205 -433.544981 
L 250.080659 -430.180043 
L 245.226114 -426.234966 
L 240.371568 -420.65463 
L 235.517023 -414.234159 
L 230.662477 -403.354101 
L 225.807932 -397.435807 
L 220.953386 -394.153671 
L 216.098841 -389.854843 
L 211.244295 -385.437061 
L 206.38975 -379.668501 
L 201.535205 -375.621208 
L 196.680659 -372.016884 
L 191.826114 -366.073158 
L 186.971568 -360.73349 
L 182.117023 -354.764653 
L 177.262477 -347.356427 
L 172.407932 -336.62861 
L 167.553386 -330.132813 
L 162.698841 -324.012129 
L 157.844295 -317.149392 
L 152.98975 -309.176545 
L 148.135205 -303.50822 
L 143.280659 -296.335152 
L 138.426114 -288.02282 
L 133.571568 -274.151821 
L 128.717023 -263.760313 
L 123.862477 -256.173011 
L 119.007932 -247.530139 
L 114.153386 -238.739207 
L 109.298841 -229.459309 
L 104.444295 -223.000596 
L 99.58975 -216.202485 
L 94.735205 -208.919136 
L 89.880659 -198.270461 
L 85.026114 -172.150871 
L 80.171568 -158.326614 
L 75.317023 -143.678036 
L 70.462477 -129.14089 
L 65.607932 -119.696073 
L 60.753386 -108.031765 
L 55.898841 -98.233782 
L 51.044295 -72.7171 
L 46.18975 -41.435063 
z
" style="stroke: #0066cc; stroke-opacity: 0.15"/>
    </defs>
    <g clip-path="url(#p099f7ed67d)">
     <use xlink:href="#m1aa5e7fe1d" x="0" y="569.033063" style="fill: #0066cc; fill-opacity: 0.15; stroke: #0066cc; stroke-opacity: 0.15"/>
    </g>
   </g>
   <g id="line2d_25">
    <path d="M 46.18975 527.598 
L 46.18975 526.780653 
L 46.509298 526.780653 
L 46.509298 525.145959 
L 46.828846 525.145959 
L 46.828846 524.328612 
L 48.426585 524.328612 
L 48.426585 521.059224 
L 48.746133 521.059224 
L 48.746133 518.607184 
L 49.065681 518.607184 
L 49.065681 511.251061 
L 50.982968 511.251061 
L 50.982968 508.79902 
L 51.302516 508.79902 
L 51.302516 507.981673 
L 51.941612 507.981673 
L 51.941612 507.164327 
L 53.219803 507.164327 
L 53.219803 504.712286 
L 53.539351 504.712286 
L 53.539351 502.260245 
L 53.858899 502.260245 
L 53.858899 498.17351 
L 54.178447 498.17351 
L 54.178447 496.538816 
L 54.497995 496.538816 
L 54.497995 494.086776 
L 55.13709 494.086776 
L 55.13709 491.634735 
L 55.456638 491.634735 
L 55.456638 490.000041 
L 55.776186 490.000041 
L 55.776186 486.730653 
L 56.095734 486.730653 
L 56.095734 485.913306 
L 56.415282 485.913306 
L 56.415282 483.461265 
L 56.73483 483.461265 
L 56.73483 482.643918 
L 57.054378 482.643918 
L 57.054378 481.009224 
L 58.332569 481.009224 
L 58.332569 477.739837 
L 60.249856 477.739837 
L 60.249856 476.105143 
L 60.888952 476.105143 
L 60.888952 475.287796 
L 61.2085 475.287796 
L 61.2085 473.653102 
L 62.167144 473.653102 
L 62.167144 472.835755 
L 62.806239 472.835755 
L 62.806239 471.201061 
L 63.764883 471.201061 
L 63.764883 470.383714 
L 64.084431 470.383714 
L 64.084431 468.74902 
L 65.362622 468.74902 
L 65.362622 466.29698 
L 66.321266 466.29698 
L 66.321266 463.027592 
L 66.640814 463.027592 
L 66.640814 462.210245 
L 67.919005 462.210245 
L 67.919005 460.575551 
L 68.238553 460.575551 
L 68.238553 459.758204 
L 68.558101 459.758204 
L 68.558101 458.940857 
L 70.15584 458.940857 
L 70.15584 458.12351 
L 70.475388 458.12351 
L 70.475388 454.854122 
L 72.073128 454.854122 
L 72.073128 454.036776 
L 73.031771 454.036776 
L 73.031771 452.402082 
L 73.990415 452.402082 
L 73.990415 451.584735 
L 75.268606 451.584735 
L 75.268606 448.315347 
L 75.907702 448.315347 
L 75.907702 445.045959 
L 76.22725 445.045959 
L 76.22725 440.959224 
L 77.505441 440.959224 
L 77.505441 440.141878 
L 78.783633 440.141878 
L 78.783633 439.324531 
L 79.422729 439.324531 
L 79.422729 438.507184 
L 80.70092 438.507184 
L 80.70092 435.237796 
L 81.020468 435.237796 
L 81.020468 433.603102 
L 81.659564 433.603102 
L 81.659564 431.968408 
L 81.979112 431.968408 
L 81.979112 430.333714 
L 82.937755 430.333714 
L 82.937755 429.516367 
L 83.257303 429.516367 
L 83.257303 427.881673 
L 83.576851 427.881673 
L 83.576851 427.064327 
L 84.215947 427.064327 
L 84.215947 422.977592 
L 84.855043 422.977592 
L 84.855043 421.342898 
L 85.17459 421.342898 
L 85.17459 418.890857 
L 86.77233 418.890857 
L 86.77233 416.438816 
L 88.050521 416.438816 
L 88.050521 415.621469 
L 88.370069 415.621469 
L 88.370069 413.986776 
L 88.689617 413.986776 
L 88.689617 412.352082 
L 89.328713 412.352082 
L 89.328713 411.534735 
L 90.926452 411.534735 
L 90.926452 407.448 
L 91.246 407.448 
L 91.246 401.726571 
L 91.565548 401.726571 
L 91.565548 400.091878 
L 92.204644 400.091878 
L 92.204644 395.187796 
L 93.163287 395.187796 
L 93.163287 393.553102 
L 93.482835 393.553102 
L 93.482835 391.918408 
L 93.802383 391.918408 
L 93.802383 388.64902 
L 94.441479 388.64902 
L 94.441479 386.19698 
L 94.761027 386.19698 
L 94.761027 385.379633 
L 95.080574 385.379633 
L 95.080574 383.744939 
L 95.400122 383.744939 
L 95.400122 382.927592 
L 95.71967 382.927592 
L 95.71967 378.840857 
L 96.039218 378.840857 
L 96.039218 378.02351 
L 96.997862 378.02351 
L 96.997862 377.206163 
L 97.31741 377.206163 
L 97.31741 375.571469 
L 99.234697 375.571469 
L 99.234697 374.754122 
L 99.873793 374.754122 
L 99.873793 373.936776 
L 100.19334 373.936776 
L 100.19334 373.119429 
L 100.512888 373.119429 
L 100.512888 372.302082 
L 101.471532 372.302082 
L 101.471532 370.667388 
L 102.430176 370.667388 
L 102.430176 369.850041 
L 103.388819 369.850041 
L 103.388819 368.215347 
L 104.027915 368.215347 
L 104.027915 365.763306 
L 105.306106 365.763306 
L 105.306106 364.945959 
L 105.625654 364.945959 
L 105.625654 364.128612 
L 105.945202 364.128612 
L 105.945202 363.311265 
L 108.182037 363.311265 
L 108.182037 360.859224 
L 109.779777 360.859224 
L 109.779777 360.041878 
L 112.975255 360.041878 
L 112.975255 359.224531 
L 113.294803 359.224531 
L 113.294803 357.589837 
L 113.614351 357.589837 
L 113.614351 356.77249 
L 113.933899 356.77249 
L 113.933899 355.955143 
L 114.253447 355.955143 
L 114.253447 355.137796 
L 114.572995 355.137796 
L 114.572995 354.320449 
L 114.892543 354.320449 
L 114.892543 353.503102 
L 116.170734 353.503102 
L 116.170734 351.868408 
L 116.80983 351.868408 
L 116.80983 351.051061 
L 117.129378 351.051061 
L 117.129378 349.416367 
L 118.407569 349.416367 
L 118.407569 347.781673 
L 119.046665 347.781673 
L 119.046665 346.964327 
L 119.685761 346.964327 
L 119.685761 345.329633 
L 120.005309 345.329633 
L 120.005309 342.877592 
L 120.644404 342.877592 
L 120.644404 342.060245 
L 120.963952 342.060245 
L 120.963952 341.242898 
L 121.2835 341.242898 
L 121.2835 339.608204 
L 121.922596 339.608204 
L 121.922596 338.790857 
L 122.561691 338.790857 
L 122.561691 337.97351 
L 122.881239 337.97351 
L 122.881239 336.338816 
L 123.200787 336.338816 
L 123.200787 335.521469 
L 123.520335 335.521469 
L 123.520335 334.704122 
L 124.798527 334.704122 
L 124.798527 333.069429 
L 126.715814 333.069429 
L 126.715814 330.617388 
L 127.994005 330.617388 
L 127.994005 329.800041 
L 128.633101 329.800041 
L 128.633101 328.982694 
L 129.591745 328.982694 
L 129.591745 326.530653 
L 130.23084 326.530653 
L 130.23084 324.895959 
L 132.148128 324.895959 
L 132.148128 322.443918 
L 133.106771 322.443918 
L 133.106771 321.626571 
L 133.745867 321.626571 
L 133.745867 320.809224 
L 134.065415 320.809224 
L 134.065415 319.991878 
L 134.384963 319.991878 
L 134.384963 319.174531 
L 135.024059 319.174531 
L 135.024059 318.357184 
L 135.343606 318.357184 
L 135.343606 317.539837 
L 135.663154 317.539837 
L 135.663154 315.905143 
L 137.580441 315.905143 
L 137.580441 312.635755 
L 138.858633 312.635755 
L 138.858633 311.818408 
L 139.817277 311.818408 
L 139.817277 308.54902 
L 140.136824 308.54902 
L 140.136824 307.731673 
L 140.456372 307.731673 
L 140.456372 306.09698 
L 140.77592 306.09698 
L 140.77592 305.279633 
L 141.095468 305.279633 
L 141.095468 304.462286 
L 141.415016 304.462286 
L 141.415016 303.644939 
L 142.054112 303.644939 
L 142.054112 302.827592 
L 142.37366 302.827592 
L 142.37366 302.010245 
L 142.693207 302.010245 
L 142.693207 298.740857 
L 143.332303 298.740857 
L 143.332303 297.106163 
L 143.651851 297.106163 
L 143.651851 296.288816 
L 144.290947 296.288816 
L 144.290947 294.654122 
L 144.610495 294.654122 
L 144.610495 293.019429 
L 145.569138 293.019429 
L 145.569138 292.202082 
L 146.527782 292.202082 
L 146.527782 290.567388 
L 146.84733 290.567388 
L 146.84733 288.932694 
L 147.166878 288.932694 
L 147.166878 288.115347 
L 147.486426 288.115347 
L 147.486426 287.298 
L 148.125521 287.298 
L 148.125521 286.480653 
L 149.403713 286.480653 
L 149.403713 285.663306 
L 150.362356 285.663306 
L 150.362356 283.211265 
L 151.640548 283.211265 
L 151.640548 282.393918 
L 152.279644 282.393918 
L 152.279644 281.576571 
L 153.557835 281.576571 
L 153.557835 279.124531 
L 155.79467 279.124531 
L 155.79467 276.67249 
L 158.031505 276.67249 
L 158.031505 275.855143 
L 158.670601 275.855143 
L 158.670601 275.037796 
L 159.309697 275.037796 
L 159.309697 274.220449 
L 159.629245 274.220449 
L 159.629245 273.403102 
L 160.26834 273.403102 
L 160.26834 272.585755 
L 160.907436 272.585755 
L 160.907436 271.768408 
L 161.226984 271.768408 
L 161.226984 270.133714 
L 162.824723 270.133714 
L 162.824723 268.49902 
L 163.144271 268.49902 
L 163.144271 266.04698 
L 165.061559 266.04698 
L 165.061559 265.229633 
L 165.381106 265.229633 
L 165.381106 262.777592 
L 165.700654 262.777592 
L 165.700654 261.142898 
L 166.33975 261.142898 
L 166.33975 259.508204 
L 169.215681 259.508204 
L 169.215681 257.87351 
L 169.854777 257.87351 
L 169.854777 256.238816 
L 171.452516 256.238816 
L 171.452516 254.604122 
L 171.772064 254.604122 
L 171.772064 253.786776 
L 172.091612 253.786776 
L 172.091612 252.969429 
L 172.730707 252.969429 
L 172.730707 252.152082 
L 173.050255 252.152082 
L 173.050255 250.517388 
L 174.967543 250.517388 
L 174.967543 249.700041 
L 177.204378 249.700041 
L 177.204378 248.065347 
L 178.482569 248.065347 
L 178.482569 247.248 
L 179.760761 247.248 
L 179.760761 246.430653 
L 180.080309 246.430653 
L 180.080309 245.613306 
L 180.399856 245.613306 
L 180.399856 243.161265 
L 181.678048 243.161265 
L 181.678048 241.526571 
L 181.997596 241.526571 
L 181.997596 239.074531 
L 182.317144 239.074531 
L 182.317144 238.257184 
L 182.636691 238.257184 
L 182.636691 235.805143 
L 183.595335 235.805143 
L 183.595335 234.987796 
L 183.914883 234.987796 
L 183.914883 234.170449 
L 184.553979 234.170449 
L 184.553979 233.353102 
L 184.873527 233.353102 
L 184.873527 232.535755 
L 185.193074 232.535755 
L 185.193074 231.718408 
L 185.83217 231.718408 
L 185.83217 230.083714 
L 186.151718 230.083714 
L 186.151718 229.266367 
L 188.069005 229.266367 
L 188.069005 228.44902 
L 189.027649 228.44902 
L 189.027649 226.814327 
L 191.584032 226.814327 
L 191.584032 225.99698 
L 192.542676 225.99698 
L 192.542676 225.179633 
L 192.862223 225.179633 
L 192.862223 223.544939 
L 193.181771 223.544939 
L 193.181771 222.727592 
L 193.820867 222.727592 
L 193.820867 221.910245 
L 194.140415 221.910245 
L 194.140415 221.092898 
L 194.459963 221.092898 
L 194.459963 220.275551 
L 194.779511 220.275551 
L 194.779511 219.458204 
L 195.099059 219.458204 
L 195.099059 218.640857 
L 195.738154 218.640857 
L 195.738154 217.82351 
L 198.933633 217.82351 
L 198.933633 217.006163 
L 199.253181 217.006163 
L 199.253181 216.188816 
L 199.572729 216.188816 
L 199.572729 214.554122 
L 200.211824 214.554122 
L 200.211824 213.736776 
L 201.809564 213.736776 
L 201.809564 212.919429 
L 202.768207 212.919429 
L 202.768207 210.467388 
L 205.005043 210.467388 
L 205.005043 209.650041 
L 205.32459 209.650041 
L 205.32459 207.198 
L 207.561426 207.198 
L 207.561426 206.380653 
L 208.520069 206.380653 
L 208.520069 205.563306 
L 211.396 205.563306 
L 211.396 203.928612 
L 212.993739 203.928612 
L 212.993739 202.293918 
L 214.591479 202.293918 
L 214.591479 201.476571 
L 214.911027 201.476571 
L 214.911027 200.659224 
L 215.230574 200.659224 
L 215.230574 199.841878 
L 215.86967 199.841878 
L 215.86967 199.024531 
L 216.189218 199.024531 
L 216.189218 198.207184 
L 218.426053 198.207184 
L 218.426053 197.389837 
L 219.065149 197.389837 
L 219.065149 196.57249 
L 219.704245 196.57249 
L 219.704245 195.755143 
L 220.662888 195.755143 
L 220.662888 194.937796 
L 220.982436 194.937796 
L 220.982436 194.120449 
L 222.899723 194.120449 
L 222.899723 192.485755 
L 224.177915 192.485755 
L 224.177915 190.851061 
L 224.817011 190.851061 
L 224.817011 190.033714 
L 225.775654 190.033714 
L 225.775654 189.216367 
L 226.734298 189.216367 
L 226.734298 187.581673 
L 229.290681 187.581673 
L 229.290681 186.764327 
L 230.568872 186.764327 
L 230.568872 185.94698 
L 234.722995 185.94698 
L 234.722995 185.129633 
L 235.042543 185.129633 
L 235.042543 183.494939 
L 235.36209 183.494939 
L 235.36209 181.860245 
L 237.598926 181.860245 
L 237.598926 181.042898 
L 237.918473 181.042898 
L 237.918473 180.225551 
L 238.877117 180.225551 
L 238.877117 178.590857 
L 239.196665 178.590857 
L 239.196665 176.956163 
L 240.155309 176.956163 
L 240.155309 176.138816 
L 240.474856 176.138816 
L 240.474856 175.321469 
L 241.753048 175.321469 
L 241.753048 174.504122 
L 242.072596 174.504122 
L 242.072596 173.686776 
L 242.711691 173.686776 
L 242.711691 168.782694 
L 243.670335 168.782694 
L 243.670335 165.513306 
L 244.628979 165.513306 
L 244.628979 164.695959 
L 244.948527 164.695959 
L 244.948527 163.878612 
L 245.268074 163.878612 
L 245.268074 162.243918 
L 246.546266 162.243918 
L 246.546266 159.791878 
L 248.783101 159.791878 
L 248.783101 158.157184 
L 250.38084 158.157184 
L 250.38084 157.339837 
L 253.256771 157.339837 
L 253.256771 155.705143 
L 253.895867 155.705143 
L 253.895867 154.887796 
L 254.215415 154.887796 
L 254.215415 154.070449 
L 254.534963 154.070449 
L 254.534963 151.618408 
L 255.813154 151.618408 
L 255.813154 150.801061 
L 260.606372 150.801061 
L 260.606372 149.166367 
L 262.52366 149.166367 
L 262.52366 147.531673 
L 263.482303 147.531673 
L 263.482303 146.714327 
L 266.677782 146.714327 
L 266.677782 145.89698 
L 267.955973 145.89698 
L 267.955973 145.079633 
L 268.275521 145.079633 
L 268.275521 143.444939 
L 269.234165 143.444939 
L 269.234165 142.627592 
L 269.873261 142.627592 
L 269.873261 140.992898 
L 274.666479 140.992898 
L 274.666479 140.175551 
L 274.986027 140.175551 
L 274.986027 139.358204 
L 275.625122 139.358204 
L 275.625122 138.540857 
L 277.54241 138.540857 
L 277.54241 136.906163 
L 278.181505 136.906163 
L 278.181505 136.088816 
L 279.140149 136.088816 
L 279.140149 134.454122 
L 280.098793 134.454122 
L 280.098793 133.636776 
L 282.655176 133.636776 
L 282.655176 132.819429 
L 285.850654 132.819429 
L 285.850654 132.002082 
L 286.809298 132.002082 
L 286.809298 130.367388 
L 287.448394 130.367388 
L 287.448394 129.550041 
L 288.087489 129.550041 
L 288.087489 128.732694 
L 289.365681 128.732694 
L 289.365681 127.915347 
L 290.324324 127.915347 
L 290.324324 127.098 
L 291.602516 127.098 
L 291.602516 126.280653 
L 294.158899 126.280653 
L 294.158899 125.463306 
L 296.076186 125.463306 
L 296.076186 124.645959 
L 297.03483 124.645959 
L 297.03483 123.828612 
L 297.673926 123.828612 
L 297.673926 123.011265 
L 300.549856 123.011265 
L 300.549856 122.193918 
L 303.106239 122.193918 
L 303.106239 119.741878 
L 304.064883 119.741878 
L 304.064883 118.924531 
L 304.384431 118.924531 
L 304.384431 118.107184 
L 306.621266 118.107184 
L 306.621266 117.289837 
L 307.260362 117.289837 
L 307.260362 116.47249 
L 310.45584 116.47249 
L 310.45584 114.020449 
L 311.414484 114.020449 
L 311.414484 113.203102 
L 313.012223 113.203102 
L 313.012223 112.385755 
L 314.290415 112.385755 
L 314.290415 111.568408 
L 315.249059 111.568408 
L 315.249059 109.933714 
L 321.959564 109.933714 
L 321.959564 109.116367 
L 325.794138 109.116367 
L 325.794138 108.29902 
L 329.309165 108.29902 
L 329.309165 107.481673 
L 329.628713 107.481673 
L 329.628713 106.664327 
L 330.906904 106.664327 
L 330.906904 105.84698 
L 333.782835 105.84698 
L 333.782835 105.029633 
L 337.61741 105.029633 
L 337.61741 104.212286 
L 341.451984 104.212286 
L 341.451984 103.394939 
L 344.327915 103.394939 
L 344.327915 102.577592 
L 344.967011 102.577592 
L 344.967011 100.942898 
L 348.801585 100.942898 
L 348.801585 100.125551 
L 350.399324 100.125551 
L 350.399324 98.490857 
L 353.914351 98.490857 
L 353.914351 96.856163 
L 355.831638 96.856163 
L 355.831638 96.038816 
L 361.263952 96.038816 
L 361.263952 95.221469 
L 363.820335 95.221469 
L 363.820335 94.404122 
L 366.696266 94.404122 
L 366.696266 92.769429 
L 369.891745 92.769429 
L 369.891745 91.952082 
L 371.489484 91.952082 
L 371.489484 91.134735 
L 374.365415 91.134735 
L 374.365415 90.317388 
L 377.560894 90.317388 
L 377.560894 89.500041 
L 379.797729 89.500041 
L 379.797729 88.682694 
L 381.07592 88.682694 
L 381.07592 87.865347 
L 382.993207 87.865347 
L 382.993207 87.048 
L 384.271399 87.048 
L 384.271399 86.230653 
L 384.590947 86.230653 
L 384.590947 85.413306 
L 384.910495 85.413306 
L 384.910495 84.595959 
L 386.188686 84.595959 
L 386.188686 83.778612 
L 388.745069 83.778612 
L 388.745069 82.961265 
L 390.023261 82.961265 
L 390.023261 81.326571 
L 394.496931 81.326571 
L 394.496931 80.509224 
L 396.733766 80.509224 
L 396.733766 79.691878 
L 400.56834 79.691878 
L 400.56834 78.874531 
L 402.805176 78.874531 
L 402.805176 77.239837 
L 403.444271 77.239837 
L 403.444271 75.605143 
L 404.722463 75.605143 
L 404.722463 74.787796 
L 408.237489 74.787796 
L 408.237489 73.970449 
L 408.557037 73.970449 
L 408.557037 73.153102 
L 410.474324 73.153102 
L 410.474324 72.335755 
L 412.71116 72.335755 
L 412.71116 71.518408 
L 413.669803 71.518408 
L 413.669803 70.701061 
L 414.308899 70.701061 
L 414.308899 69.883714 
L 415.267543 69.883714 
L 415.267543 69.066367 
L 416.226186 69.066367 
L 416.226186 68.24902 
L 416.545734 68.24902 
L 416.545734 67.431673 
L 421.978048 67.431673 
L 421.978048 66.614327 
L 422.617144 66.614327 
L 422.617144 65.79698 
L 426.451718 65.79698 
L 426.451718 64.979633 
L 429.327649 64.979633 
L 429.327649 64.162286 
L 436.996798 64.162286 
L 436.996798 63.344939 
L 440.192277 63.344939 
L 440.192277 62.527592 
L 440.511824 62.527592 
L 440.511824 61.710245 
L 441.470468 61.710245 
L 441.470468 60.892898 
L 443.707303 60.892898 
L 443.707303 60.075551 
L 445.305043 60.075551 
L 445.305043 59.258204 
L 446.583234 59.258204 
L 446.583234 58.440857 
L 448.180973 58.440857 
L 448.180973 57.62351 
L 451.376452 57.62351 
L 451.376452 56.806163 
L 456.808766 56.806163 
L 456.808766 55.988816 
L 463.519271 55.988816 
L 463.519271 55.171469 
L 464.477915 55.171469 
L 464.477915 54.354122 
L 466.075654 54.354122 
L 466.075654 53.536776 
L 470.229777 53.536776 
L 470.229777 52.719429 
L 478.218473 52.719429 
L 478.218473 51.902082 
L 503.782303 51.902082 
L 503.782303 51.084735 
L 506.019138 51.084735 
L 506.019138 50.267388 
L 509.534165 50.267388 
L 509.534165 47.815347 
L 515.605574 47.815347 
L 515.605574 46.998 
L 526.78975 46.998 
L 526.78975 46.998 
" clip-path="url(#p099f7ed67d)" style="fill: none; stroke: #0066cc; stroke-width: 3; stroke-linecap: round"/>
   </g>
   <g id="line2d_26">
    <path d="M 46.18975 527.598 
L 526.78975 46.998 
" clip-path="url(#p099f7ed67d)" style="fill: none; stroke-dasharray: 5.55,2.4; stroke-dashoffset: 0; stroke: #000000; stroke-opacity: 0.4; stroke-width: 1.5"/>
   </g>
   <g id="line2d_27">
    <defs>
     <path id="m4b7a383ebf" d="M 0 5 
C 1.326016 5 2.597899 4.473168 3.535534 3.535534 
C 4.473168 2.597899 5 1.326016 5 0 
C 5 -1.326016 4.473168 -2.597899 3.535534 -3.535534 
C 2.597899 -4.473168 1.326016 -5 0 -5 
C -1.326016 -5 -2.597899 -4.473168 -3.535534 -3.535534 
C -4.473168 -2.597899 -5 -1.326016 -5 0 
C -5 1.326016 -4.473168 2.597899 -3.535534 3.535534 
C -2.597899 4.473168 -1.326016 5 0 5 
z
" style="stroke: #ffffff; stroke-width: 2"/>
    </defs>
    <g clip-path="url(#p099f7ed67d)">
     <use xlink:href="#m4b7a383ebf" x="254.534963" y="151.618408" style="fill: #0066cc; stroke: #ffffff; stroke-width: 2"/>
    </g>
   </g>
   <g id="patch_3">
    <path d="M 41.38375 532.404 
L 41.38375 42.192 
" style="fill: none; stroke: #cccccc; stroke-linejoin: miter; stroke-linecap: square"/>
   </g>
   <g id="patch_4">
    <path d="M 531.59575 532.404 
L 531.59575 42.192 
" style="fill: none; stroke: #cccccc; stroke-linejoin: miter; stroke-linecap: square"/>
   </g>
   <g id="patch_5">
    <path d="M 41.38375 532.404 
L 531.59575 532.404 
" style="fill: none; stroke: #cccccc; stroke-linejoin: miter; stroke-linecap: square"/>
   </g>
   <g id="patch_6">
    <path d="M 41.38375 42.192 
L 531.59575 42.192 
" style="fill: none; stroke: #cccccc; stroke-linejoin: miter; stroke-linecap: square"/>
   </g>
   <g id="text_15">
    <!-- Receiver Operating Characteristic Curve -->
    <g style="fill: #262626" transform="translate(132.65475 18.8475) scale(0.16 -0.16)">
     <defs>
      <path id="Arial-BoldMT-63" d="M 3353 2338 
L 2488 2181 
Q 2444 2441 2289 2572 
Q 2134 2703 1888 2703 
Q 1559 2703 1364 2476 
Q 1169 2250 1169 1719 
Q 1169 1128 1367 884 
Q 1566 641 1900 641 
Q 2150 641 2309 783 
Q 2469 925 2534 1272 
L 3397 1125 
Q 3263 531 2881 228 
Q 2500 -75 1859 -75 
Q 1131 -75 698 384 
Q 266 844 266 1656 
Q 266 2478 700 2936 
Q 1134 3394 1875 3394 
Q 2481 3394 2839 3133 
Q 3197 2872 3353 2338 
z
" transform="scale(0.015625)"/>
      <path id="Arial-BoldMT-4f" d="M 278 2263 
Q 278 2963 488 3438 
Q 644 3788 914 4066 
Q 1184 4344 1506 4478 
Q 1934 4659 2494 4659 
Q 3506 4659 4114 4031 
Q 4722 3403 4722 2284 
Q 4722 1175 4119 548 
Q 3516 -78 2506 -78 
Q 1484 -78 881 545 
Q 278 1169 278 2263 
z
M 1231 2294 
Q 1231 1516 1590 1114 
Q 1950 713 2503 713 
Q 3056 713 3411 1111 
Q 3766 1509 3766 2306 
Q 3766 3094 3420 3481 
Q 3075 3869 2503 3869 
Q 1931 3869 1581 3476 
Q 1231 3084 1231 2294 
z
" transform="scale(0.015625)"/>
      <path id="Arial-BoldMT-70" d="M 434 3319 
L 1253 3319 
L 1253 2831 
Q 1413 3081 1684 3237 
Q 1956 3394 2288 3394 
Q 2866 3394 3269 2941 
Q 3672 2488 3672 1678 
Q 3672 847 3265 386 
Q 2859 -75 2281 -75 
Q 2006 -75 1782 34 
Q 1559 144 1313 409 
L 1313 -1263 
L 434 -1263 
L 434 3319 
z
M 1303 1716 
Q 1303 1156 1525 889 
Q 1747 622 2066 622 
Q 2372 622 2575 867 
Q 2778 1113 2778 1672 
Q 2778 2194 2568 2447 
Q 2359 2700 2050 2700 
Q 1728 2700 1515 2451 
Q 1303 2203 1303 1716 
z
" transform="scale(0.015625)"/>
      <path id="Arial-BoldMT-6e" d="M 3478 0 
L 2600 0 
L 2600 1694 
Q 2600 2231 2544 2389 
Q 2488 2547 2361 2634 
Q 2234 2722 2056 2722 
Q 1828 2722 1647 2597 
Q 1466 2472 1398 2265 
Q 1331 2059 1331 1503 
L 1331 0 
L 453 0 
L 453 3319 
L 1269 3319 
L 1269 2831 
Q 1703 3394 2363 3394 
Q 2653 3394 2893 3289 
Q 3134 3184 3257 3021 
Q 3381 2859 3429 2653 
Q 3478 2447 3478 2063 
L 3478 0 
z
" transform="scale(0.015625)"/>
      <path id="Arial-BoldMT-67" d="M 378 -219 
L 1381 -341 
Q 1406 -516 1497 -581 
Q 1622 -675 1891 -675 
Q 2234 -675 2406 -572 
Q 2522 -503 2581 -350 
Q 2622 -241 2622 53 
L 2622 538 
Q 2228 0 1628 0 
Q 959 0 569 566 
Q 263 1013 263 1678 
Q 263 2513 664 2953 
Q 1066 3394 1663 3394 
Q 2278 3394 2678 2853 
L 2678 3319 
L 3500 3319 
L 3500 341 
Q 3500 -247 3403 -537 
Q 3306 -828 3131 -993 
Q 2956 -1159 2664 -1253 
Q 2372 -1347 1925 -1347 
Q 1081 -1347 728 -1058 
Q 375 -769 375 -325 
Q 375 -281 378 -219 
z
M 1163 1728 
Q 1163 1200 1367 954 
Q 1572 709 1872 709 
Q 2194 709 2416 961 
Q 2638 1213 2638 1706 
Q 2638 2222 2425 2472 
Q 2213 2722 1888 2722 
Q 1572 2722 1367 2476 
Q 1163 2231 1163 1728 
z
" transform="scale(0.015625)"/>
      <path id="Arial-BoldMT-43" d="M 3397 1684 
L 4294 1400 
Q 4088 650 3608 286 
Q 3128 -78 2391 -78 
Q 1478 -78 890 545 
Q 303 1169 303 2250 
Q 303 3394 893 4026 
Q 1484 4659 2447 4659 
Q 3288 4659 3813 4163 
Q 4125 3869 4281 3319 
L 3366 3100 
Q 3284 3456 3026 3662 
Q 2769 3869 2400 3869 
Q 1891 3869 1573 3503 
Q 1256 3138 1256 2319 
Q 1256 1450 1568 1081 
Q 1881 713 2381 713 
Q 2750 713 3015 947 
Q 3281 1181 3397 1684 
z
" transform="scale(0.015625)"/>
      <path id="Arial-BoldMT-68" d="M 1334 4581 
L 1334 2897 
Q 1759 3394 2350 3394 
Q 2653 3394 2897 3281 
Q 3141 3169 3264 2994 
Q 3388 2819 3433 2606 
Q 3478 2394 3478 1947 
L 3478 0 
L 2600 0 
L 2600 1753 
Q 2600 2275 2550 2415 
Q 2500 2556 2373 2639 
Q 2247 2722 2056 2722 
Q 1838 2722 1666 2615 
Q 1494 2509 1414 2295 
Q 1334 2081 1334 1663 
L 1334 0 
L 456 0 
L 456 4581 
L 1334 4581 
z
" transform="scale(0.015625)"/>
     </defs>
     <use xlink:href="#Arial-BoldMT-52"/>
     <use xlink:href="#Arial-BoldMT-65" transform="translate(72.216797 0)"/>
     <use xlink:href="#Arial-BoldMT-63" transform="translate(127.832031 0)"/>
     <use xlink:href="#Arial-BoldMT-65" transform="translate(183.447266 0)"/>
     <use xlink:href="#Arial-BoldMT-69" transform="translate(239.0625 0)"/>
     <use xlink:href="#Arial-BoldMT-76" transform="translate(266.845703 0)"/>
     <use xlink:href="#Arial-BoldMT-65" transform="translate(322.460938 0)"/>
     <use xlink:href="#Arial-BoldMT-72" transform="translate(378.076172 0)"/>
     <use xlink:href="#Arial-BoldMT-20" transform="translate(416.992188 0)"/>
     <use xlink:href="#Arial-BoldMT-4f" transform="translate(444.775391 0)"/>
     <use xlink:href="#Arial-BoldMT-70" transform="translate(522.558594 0)"/>
     <use xlink:href="#Arial-BoldMT-65" transform="translate(583.642578 0)"/>
     <use xlink:href="#Arial-BoldMT-72" transform="translate(639.257812 0)"/>
     <use xlink:href="#Arial-BoldMT-61" transform="translate(678.173828 0)"/>
     <use xlink:href="#Arial-BoldMT-74" transform="translate(733.789062 0)"/>
     <use xlink:href="#Arial-BoldMT-69" transform="translate(767.089844 0)"/>
     <use xlink:href="#Arial-BoldMT-6e" transform="translate(794.873047 0)"/>
     <use xlink:href="#Arial-BoldMT-67" transform="translate(855.957031 0)"/>
     <use xlink:href="#Arial-BoldMT-20" transform="translate(917.041016 0)"/>
     <use xlink:href="#Arial-BoldMT-43" transform="translate(944.824219 0)"/>
     <use xlink:href="#Arial-BoldMT-68" transform="translate(1017.041016 0)"/>
     <use xlink:href="#Arial-BoldMT-61" transform="translate(1078.125 0)"/>
     <use xlink:href="#Arial-BoldMT-72" transform="translate(1133.740234 0)"/>
     <use xlink:href="#Arial-BoldMT-61" transform="translate(1172.65625 0)"/>
     <use xlink:href="#Arial-BoldMT-63" transform="translate(1228.271484 0)"/>
     <use xlink:href="#Arial-BoldMT-74" transform="translate(1283.886719 0)"/>
     <use xlink:href="#Arial-BoldMT-65" transform="translate(1317.1875 0)"/>
     <use xlink:href="#Arial-BoldMT-72" transform="translate(1372.802734 0)"/>
     <use xlink:href="#Arial-BoldMT-69" transform="translate(1411.71875 0)"/>
     <use xlink:href="#Arial-BoldMT-73" transform="translate(1439.501953 0)"/>
     <use xlink:href="#Arial-BoldMT-74" transform="translate(1495.117188 0)"/>
     <use xlink:href="#Arial-BoldMT-69" transform="translate(1528.417969 0)"/>
     <use xlink:href="#Arial-BoldMT-63" transform="translate(1556.201172 0)"/>
     <use xlink:href="#Arial-BoldMT-20" transform="translate(1611.816406 0)"/>
     <use xlink:href="#Arial-BoldMT-43" transform="translate(1639.599609 0)"/>
     <use xlink:href="#Arial-BoldMT-75" transform="translate(1711.816406 0)"/>
     <use xlink:href="#Arial-BoldMT-72" transform="translate(1772.900391 0)"/>
     <use xlink:href="#Arial-BoldMT-76" transform="translate(1811.816406 0)"/>
     <use xlink:href="#Arial-BoldMT-65" transform="translate(1867.431641 0)"/>
    </g>
    <!-- XGBoost Model with MICE Imputation -->
    <g style="fill: #262626" transform="translate(143.396 36.192) scale(0.16 -0.16)">
     <defs>
      <path id="Arial-BoldMT-58" d="M 0 0 
L 1566 2391 
L 147 4581 
L 1228 4581 
L 2147 3109 
L 3047 4581 
L 4119 4581 
L 2694 2356 
L 4259 0 
L 3144 0 
L 2128 1584 
L 1109 0 
L 0 0 
z
" transform="scale(0.015625)"/>
      <path id="Arial-BoldMT-47" d="M 2597 1684 
L 2597 2456 
L 4591 2456 
L 4591 631 
Q 4300 350 3748 136 
Q 3197 -78 2631 -78 
Q 1913 -78 1378 223 
Q 844 525 575 1086 
Q 306 1647 306 2306 
Q 306 3022 606 3578 
Q 906 4134 1484 4431 
Q 1925 4659 2581 4659 
Q 3434 4659 3914 4301 
Q 4394 3944 4531 3313 
L 3613 3141 
Q 3516 3478 3248 3673 
Q 2981 3869 2581 3869 
Q 1975 3869 1617 3484 
Q 1259 3100 1259 2344 
Q 1259 1528 1621 1120 
Q 1984 713 2572 713 
Q 2863 713 3155 827 
Q 3447 941 3656 1103 
L 3656 1684 
L 2597 1684 
z
" transform="scale(0.015625)"/>
      <path id="Arial-BoldMT-42" d="M 469 4581 
L 2300 4581 
Q 2844 4581 3111 4536 
Q 3378 4491 3589 4347 
Q 3800 4203 3940 3964 
Q 4081 3725 4081 3428 
Q 4081 3106 3907 2837 
Q 3734 2569 3438 2434 
Q 3856 2313 4081 2019 
Q 4306 1725 4306 1328 
Q 4306 1016 4161 720 
Q 4016 425 3764 248 
Q 3513 72 3144 31 
Q 2913 6 2028 0 
L 469 0 
L 469 4581 
z
M 1394 3819 
L 1394 2759 
L 2000 2759 
Q 2541 2759 2672 2775 
Q 2909 2803 3045 2939 
Q 3181 3075 3181 3297 
Q 3181 3509 3064 3642 
Q 2947 3775 2716 3803 
Q 2578 3819 1925 3819 
L 1394 3819 
z
M 1394 1997 
L 1394 772 
L 2250 772 
Q 2750 772 2884 800 
Q 3091 838 3220 983 
Q 3350 1128 3350 1372 
Q 3350 1578 3250 1722 
Q 3150 1866 2961 1931 
Q 2772 1997 2141 1997 
L 1394 1997 
z
" transform="scale(0.015625)"/>
      <path id="Arial-BoldMT-4d" d="M 453 0 
L 453 4581 
L 1838 4581 
L 2669 1456 
L 3491 4581 
L 4878 4581 
L 4878 0 
L 4019 0 
L 4019 3606 
L 3109 0 
L 2219 0 
L 1313 3606 
L 1313 0 
L 453 0 
z
" transform="scale(0.015625)"/>
      <path id="Arial-BoldMT-64" d="M 3503 0 
L 2688 0 
L 2688 488 
Q 2484 203 2207 64 
Q 1931 -75 1650 -75 
Q 1078 -75 670 386 
Q 263 847 263 1672 
Q 263 2516 659 2955 
Q 1056 3394 1663 3394 
Q 2219 3394 2625 2931 
L 2625 4581 
L 3503 4581 
L 3503 0 
z
M 1159 1731 
Q 1159 1200 1306 963 
Q 1519 619 1900 619 
Q 2203 619 2415 876 
Q 2628 1134 2628 1647 
Q 2628 2219 2422 2470 
Q 2216 2722 1894 2722 
Q 1581 2722 1370 2473 
Q 1159 2225 1159 1731 
z
" transform="scale(0.015625)"/>
      <path id="Arial-BoldMT-77" d="M 1078 0 
L 28 3319 
L 881 3319 
L 1503 1144 
L 2075 3319 
L 2922 3319 
L 3475 1144 
L 4109 3319 
L 4975 3319 
L 3909 0 
L 3066 0 
L 2494 2134 
L 1931 0 
L 1078 0 
z
" transform="scale(0.015625)"/>
      <path id="Arial-BoldMT-49" d="M 438 0 
L 438 4581 
L 1363 4581 
L 1363 0 
L 438 0 
z
" transform="scale(0.015625)"/>
      <path id="Arial-BoldMT-45" d="M 466 0 
L 466 4581 
L 3863 4581 
L 3863 3806 
L 1391 3806 
L 1391 2791 
L 3691 2791 
L 3691 2019 
L 1391 2019 
L 1391 772 
L 3950 772 
L 3950 0 
L 466 0 
z
" transform="scale(0.015625)"/>
      <path id="Arial-BoldMT-6d" d="M 394 3319 
L 1203 3319 
L 1203 2866 
Q 1638 3394 2238 3394 
Q 2556 3394 2790 3262 
Q 3025 3131 3175 2866 
Q 3394 3131 3647 3262 
Q 3900 3394 4188 3394 
Q 4553 3394 4806 3245 
Q 5059 3097 5184 2809 
Q 5275 2597 5275 2122 
L 5275 0 
L 4397 0 
L 4397 1897 
Q 4397 2391 4306 2534 
Q 4184 2722 3931 2722 
Q 3747 2722 3584 2609 
Q 3422 2497 3350 2280 
Q 3278 2063 3278 1594 
L 3278 0 
L 2400 0 
L 2400 1819 
Q 2400 2303 2353 2443 
Q 2306 2584 2207 2653 
Q 2109 2722 1941 2722 
Q 1738 2722 1575 2612 
Q 1413 2503 1342 2297 
Q 1272 2091 1272 1613 
L 1272 0 
L 394 0 
L 394 3319 
z
" transform="scale(0.015625)"/>
     </defs>
     <use xlink:href="#Arial-BoldMT-58"/>
     <use xlink:href="#Arial-BoldMT-47" transform="translate(66.699219 0)"/>
     <use xlink:href="#Arial-BoldMT-42" transform="translate(144.482422 0)"/>
     <use xlink:href="#Arial-BoldMT-6f" transform="translate(216.699219 0)"/>
     <use xlink:href="#Arial-BoldMT-6f" transform="translate(277.783203 0)"/>
     <use xlink:href="#Arial-BoldMT-73" transform="translate(338.867188 0)"/>
     <use xlink:href="#Arial-BoldMT-74" transform="translate(394.482422 0)"/>
     <use xlink:href="#Arial-BoldMT-20" transform="translate(427.783203 0)"/>
     <use xlink:href="#Arial-BoldMT-4d" transform="translate(455.566406 0)"/>
     <use xlink:href="#Arial-BoldMT-6f" transform="translate(538.867188 0)"/>
     <use xlink:href="#Arial-BoldMT-64" transform="translate(599.951172 0)"/>
     <use xlink:href="#Arial-BoldMT-65" transform="translate(661.035156 0)"/>
     <use xlink:href="#Arial-BoldMT-6c" transform="translate(716.650391 0)"/>
     <use xlink:href="#Arial-BoldMT-20" transform="translate(744.433594 0)"/>
     <use xlink:href="#Arial-BoldMT-77" transform="translate(772.216797 0)"/>
     <use xlink:href="#Arial-BoldMT-69" transform="translate(850 0)"/>
     <use xlink:href="#Arial-BoldMT-74" transform="translate(877.783203 0)"/>
     <use xlink:href="#Arial-BoldMT-68" transform="translate(911.083984 0)"/>
     <use xlink:href="#Arial-BoldMT-20" transform="translate(972.167969 0)"/>
     <use xlink:href="#Arial-BoldMT-4d" transform="translate(999.951172 0)"/>
     <use xlink:href="#Arial-BoldMT-49" transform="translate(1083.251953 0)"/>
     <use xlink:href="#Arial-BoldMT-43" transform="translate(1111.035156 0)"/>
     <use xlink:href="#Arial-BoldMT-45" transform="translate(1183.251953 0)"/>
     <use xlink:href="#Arial-BoldMT-20" transform="translate(1249.951172 0)"/>
     <use xlink:href="#Arial-BoldMT-49" transform="translate(1277.734375 0)"/>
     <use xlink:href="#Arial-BoldMT-6d" transform="translate(1305.517578 0)"/>
     <use xlink:href="#Arial-BoldMT-70" transform="translate(1394.433594 0)"/>
     <use xlink:href="#Arial-BoldMT-75" transform="translate(1455.517578 0)"/>
     <use xlink:href="#Arial-BoldMT-74" transform="translate(1516.601562 0)"/>
     <use xlink:href="#Arial-BoldMT-61" transform="translate(1549.902344 0)"/>
     <use xlink:href="#Arial-BoldMT-74" transform="translate(1605.517578 0)"/>
     <use xlink:href="#Arial-BoldMT-69" transform="translate(1638.818359 0)"/>
     <use xlink:href="#Arial-BoldMT-6f" transform="translate(1666.601562 0)"/>
     <use xlink:href="#Arial-BoldMT-6e" transform="translate(1727.685547 0)"/>
    </g>
   </g>
   <g id="legend_1">
    <g id="patch_7">
     <path d="M 284.3595 528.404 
L 525.19575 528.404 
Q 527.59575 528.404 527.59575 526.004 
L 527.59575 458.72525 
Q 527.59575 456.32525 525.19575 456.32525 
L 284.3595 456.32525 
Q 281.9595 456.32525 281.9595 458.72525 
L 281.9595 526.004 
Q 281.9595 528.404 284.3595 528.404 
z
" style="fill: #4d4d4d; opacity: 0.5; stroke: #4d4d4d; stroke-linejoin: miter"/>
    </g>
    <g id="patch_8">
     <path d="M 282.3595 526.404 
L 523.19575 526.404 
Q 525.59575 526.404 525.59575 524.004 
L 525.59575 456.72525 
Q 525.59575 454.32525 523.19575 454.32525 
L 282.3595 454.32525 
Q 279.9595 454.32525 279.9595 456.72525 
L 279.9595 524.004 
Q 279.9595 526.404 282.3595 526.404 
z
" style="fill: #ffffff; stroke: #cccccc; stroke-linejoin: miter"/>
    </g>
    <g id="patch_9">
     <path d="M 284.7595 467.714625 
L 308.7595 467.714625 
L 308.7595 459.314625 
L 284.7595 459.314625 
z
" style="fill: #0066cc; fill-opacity: 0.15; stroke: #0066cc; stroke-opacity: 0.15; stroke-linejoin: miter"/>
    </g>
    <g id="text_16">
     <!-- 95% CI -->
     <g style="fill: #262626" transform="translate(318.3595 467.714625) scale(0.12 -0.12)">
      <defs>
       <path id="ArialMT-39" d="M 350 1059 
L 891 1109 
Q 959 728 1153 556 
Q 1347 384 1650 384 
Q 1909 384 2104 503 
Q 2300 622 2425 820 
Q 2550 1019 2634 1356 
Q 2719 1694 2719 2044 
Q 2719 2081 2716 2156 
Q 2547 1888 2255 1720 
Q 1963 1553 1622 1553 
Q 1053 1553 659 1965 
Q 266 2378 266 3053 
Q 266 3750 677 4175 
Q 1088 4600 1706 4600 
Q 2153 4600 2523 4359 
Q 2894 4119 3086 3673 
Q 3278 3228 3278 2384 
Q 3278 1506 3087 986 
Q 2897 466 2520 194 
Q 2144 -78 1638 -78 
Q 1100 -78 759 220 
Q 419 519 350 1059 
z
M 2653 3081 
Q 2653 3566 2395 3850 
Q 2138 4134 1775 4134 
Q 1400 4134 1122 3828 
Q 844 3522 844 3034 
Q 844 2597 1108 2323 
Q 1372 2050 1759 2050 
Q 2150 2050 2401 2323 
Q 2653 2597 2653 3081 
z
" transform="scale(0.015625)"/>
       <path id="ArialMT-35" d="M 266 1200 
L 856 1250 
Q 922 819 1161 601 
Q 1400 384 1738 384 
Q 2144 384 2425 690 
Q 2706 997 2706 1503 
Q 2706 1984 2436 2262 
Q 2166 2541 1728 2541 
Q 1456 2541 1237 2417 
Q 1019 2294 894 2097 
L 366 2166 
L 809 4519 
L 3088 4519 
L 3088 3981 
L 1259 3981 
L 1013 2750 
Q 1425 3038 1878 3038 
Q 2478 3038 2890 2622 
Q 3303 2206 3303 1553 
Q 3303 931 2941 478 
Q 2500 -78 1738 -78 
Q 1113 -78 717 272 
Q 322 622 266 1200 
z
" transform="scale(0.015625)"/>
       <path id="ArialMT-25" d="M 372 3481 
Q 372 3972 619 4315 
Q 866 4659 1334 4659 
Q 1766 4659 2048 4351 
Q 2331 4044 2331 3447 
Q 2331 2866 2045 2552 
Q 1759 2238 1341 2238 
Q 925 2238 648 2547 
Q 372 2856 372 3481 
z
M 1350 4272 
Q 1141 4272 1002 4090 
Q 863 3909 863 3425 
Q 863 2984 1003 2804 
Q 1144 2625 1350 2625 
Q 1563 2625 1702 2806 
Q 1841 2988 1841 3469 
Q 1841 3913 1700 4092 
Q 1559 4272 1350 4272 
z
M 1353 -169 
L 3859 4659 
L 4316 4659 
L 1819 -169 
L 1353 -169 
z
M 3334 1075 
Q 3334 1569 3581 1911 
Q 3828 2253 4300 2253 
Q 4731 2253 5014 1945 
Q 5297 1638 5297 1041 
Q 5297 459 5011 145 
Q 4725 -169 4303 -169 
Q 3888 -169 3611 142 
Q 3334 453 3334 1075 
z
M 4316 1866 
Q 4103 1866 3964 1684 
Q 3825 1503 3825 1019 
Q 3825 581 3965 400 
Q 4106 219 4313 219 
Q 4528 219 4667 400 
Q 4806 581 4806 1063 
Q 4806 1506 4665 1686 
Q 4525 1866 4316 1866 
z
" transform="scale(0.015625)"/>
       <path id="ArialMT-20" transform="scale(0.015625)"/>
       <path id="ArialMT-43" d="M 3763 1606 
L 4369 1453 
Q 4178 706 3683 314 
Q 3188 -78 2472 -78 
Q 1731 -78 1267 223 
Q 803 525 561 1097 
Q 319 1669 319 2325 
Q 319 3041 592 3573 
Q 866 4106 1370 4382 
Q 1875 4659 2481 4659 
Q 3169 4659 3637 4309 
Q 4106 3959 4291 3325 
L 3694 3184 
Q 3534 3684 3231 3912 
Q 2928 4141 2469 4141 
Q 1941 4141 1586 3887 
Q 1231 3634 1087 3207 
Q 944 2781 944 2328 
Q 944 1744 1114 1308 
Q 1284 872 1643 656 
Q 2003 441 2422 441 
Q 2931 441 3284 734 
Q 3638 1028 3763 1606 
z
" transform="scale(0.015625)"/>
       <path id="ArialMT-49" d="M 597 0 
L 597 4581 
L 1203 4581 
L 1203 0 
L 597 0 
z
" transform="scale(0.015625)"/>
      </defs>
      <use xlink:href="#ArialMT-39"/>
      <use xlink:href="#ArialMT-35" transform="translate(55.615234 0)"/>
      <use xlink:href="#ArialMT-25" transform="translate(111.230469 0)"/>
      <use xlink:href="#ArialMT-20" transform="translate(200.146484 0)"/>
      <use xlink:href="#ArialMT-43" transform="translate(227.929688 0)"/>
      <use xlink:href="#ArialMT-49" transform="translate(300.146484 0)"/>
     </g>
    </g>
    <g id="line2d_28">
     <path d="M 284.7595 480.63525 
L 296.7595 480.63525 
L 308.7595 480.63525 
" style="fill: none; stroke: #0066cc; stroke-width: 3; stroke-linecap: round"/>
    </g>
    <g id="text_17">
     <!-- XGBoost (AUC = 0.721 [0.699-0.743]) -->
     <g style="fill: #262626" transform="translate(318.3595 484.83525) scale(0.12 -0.12)">
      <defs>
       <path id="ArialMT-58" d="M 28 0 
L 1800 2388 
L 238 4581 
L 959 4581 
L 1791 3406 
Q 2050 3041 2159 2844 
Q 2313 3094 2522 3366 
L 3444 4581 
L 4103 4581 
L 2494 2422 
L 4228 0 
L 3478 0 
L 2325 1634 
Q 2228 1775 2125 1941 
Q 1972 1691 1906 1597 
L 756 0 
L 28 0 
z
" transform="scale(0.015625)"/>
       <path id="ArialMT-47" d="M 2638 1797 
L 2638 2334 
L 4578 2338 
L 4578 638 
Q 4131 281 3656 101 
Q 3181 -78 2681 -78 
Q 2006 -78 1454 211 
Q 903 500 622 1047 
Q 341 1594 341 2269 
Q 341 2938 620 3517 
Q 900 4097 1425 4378 
Q 1950 4659 2634 4659 
Q 3131 4659 3532 4498 
Q 3934 4338 4162 4050 
Q 4391 3763 4509 3300 
L 3963 3150 
Q 3859 3500 3706 3700 
Q 3553 3900 3268 4020 
Q 2984 4141 2638 4141 
Q 2222 4141 1919 4014 
Q 1616 3888 1430 3681 
Q 1244 3475 1141 3228 
Q 966 2803 966 2306 
Q 966 1694 1177 1281 
Q 1388 869 1791 669 
Q 2194 469 2647 469 
Q 3041 469 3416 620 
Q 3791 772 3984 944 
L 3984 1797 
L 2638 1797 
z
" transform="scale(0.015625)"/>
       <path id="ArialMT-42" d="M 469 0 
L 469 4581 
L 2188 4581 
Q 2713 4581 3030 4442 
Q 3347 4303 3526 4014 
Q 3706 3725 3706 3409 
Q 3706 3116 3547 2856 
Q 3388 2597 3066 2438 
Q 3481 2316 3704 2022 
Q 3928 1728 3928 1328 
Q 3928 1006 3792 729 
Q 3656 453 3456 303 
Q 3256 153 2954 76 
Q 2653 0 2216 0 
L 469 0 
z
M 1075 2656 
L 2066 2656 
Q 2469 2656 2644 2709 
Q 2875 2778 2992 2937 
Q 3109 3097 3109 3338 
Q 3109 3566 3000 3739 
Q 2891 3913 2687 3977 
Q 2484 4041 1991 4041 
L 1075 4041 
L 1075 2656 
z
M 1075 541 
L 2216 541 
Q 2509 541 2628 563 
Q 2838 600 2978 687 
Q 3119 775 3209 942 
Q 3300 1109 3300 1328 
Q 3300 1584 3169 1773 
Q 3038 1963 2805 2039 
Q 2572 2116 2134 2116 
L 1075 2116 
L 1075 541 
z
" transform="scale(0.015625)"/>
       <path id="ArialMT-6f" d="M 213 1659 
Q 213 2581 725 3025 
Q 1153 3394 1769 3394 
Q 2453 3394 2887 2945 
Q 3322 2497 3322 1706 
Q 3322 1066 3130 698 
Q 2938 331 2570 128 
Q 2203 -75 1769 -75 
Q 1072 -75 642 372 
Q 213 819 213 1659 
z
M 791 1659 
Q 791 1022 1069 705 
Q 1347 388 1769 388 
Q 2188 388 2466 706 
Q 2744 1025 2744 1678 
Q 2744 2294 2464 2611 
Q 2184 2928 1769 2928 
Q 1347 2928 1069 2612 
Q 791 2297 791 1659 
z
" transform="scale(0.015625)"/>
       <path id="ArialMT-73" d="M 197 991 
L 753 1078 
Q 800 744 1014 566 
Q 1228 388 1613 388 
Q 2000 388 2187 545 
Q 2375 703 2375 916 
Q 2375 1106 2209 1216 
Q 2094 1291 1634 1406 
Q 1016 1563 777 1677 
Q 538 1791 414 1992 
Q 291 2194 291 2438 
Q 291 2659 392 2848 
Q 494 3038 669 3163 
Q 800 3259 1026 3326 
Q 1253 3394 1513 3394 
Q 1903 3394 2198 3281 
Q 2494 3169 2634 2976 
Q 2775 2784 2828 2463 
L 2278 2388 
Q 2241 2644 2061 2787 
Q 1881 2931 1553 2931 
Q 1166 2931 1000 2803 
Q 834 2675 834 2503 
Q 834 2394 903 2306 
Q 972 2216 1119 2156 
Q 1203 2125 1616 2013 
Q 2213 1853 2448 1751 
Q 2684 1650 2818 1456 
Q 2953 1263 2953 975 
Q 2953 694 2789 445 
Q 2625 197 2315 61 
Q 2006 -75 1616 -75 
Q 969 -75 630 194 
Q 291 463 197 991 
z
" transform="scale(0.015625)"/>
       <path id="ArialMT-74" d="M 1650 503 
L 1731 6 
Q 1494 -44 1306 -44 
Q 1000 -44 831 53 
Q 663 150 594 308 
Q 525 466 525 972 
L 525 2881 
L 113 2881 
L 113 3319 
L 525 3319 
L 525 4141 
L 1084 4478 
L 1084 3319 
L 1650 3319 
L 1650 2881 
L 1084 2881 
L 1084 941 
Q 1084 700 1114 631 
Q 1144 563 1211 522 
Q 1278 481 1403 481 
Q 1497 481 1650 503 
z
" transform="scale(0.015625)"/>
       <path id="ArialMT-28" d="M 1497 -1347 
Q 1031 -759 709 28 
Q 388 816 388 1659 
Q 388 2403 628 3084 
Q 909 3875 1497 4659 
L 1900 4659 
Q 1522 4009 1400 3731 
Q 1209 3300 1100 2831 
Q 966 2247 966 1656 
Q 966 153 1900 -1347 
L 1497 -1347 
z
" transform="scale(0.015625)"/>
       <path id="ArialMT-41" d="M -9 0 
L 1750 4581 
L 2403 4581 
L 4278 0 
L 3588 0 
L 3053 1388 
L 1138 1388 
L 634 0 
L -9 0 
z
M 1313 1881 
L 2866 1881 
L 2388 3150 
Q 2169 3728 2063 4100 
Q 1975 3659 1816 3225 
L 1313 1881 
z
" transform="scale(0.015625)"/>
       <path id="ArialMT-55" d="M 3500 4581 
L 4106 4581 
L 4106 1934 
Q 4106 1244 3950 837 
Q 3794 431 3386 176 
Q 2978 -78 2316 -78 
Q 1672 -78 1262 144 
Q 853 366 678 786 
Q 503 1206 503 1934 
L 503 4581 
L 1109 4581 
L 1109 1938 
Q 1109 1341 1220 1058 
Q 1331 775 1601 622 
Q 1872 469 2263 469 
Q 2931 469 3215 772 
Q 3500 1075 3500 1938 
L 3500 4581 
z
" transform="scale(0.015625)"/>
       <path id="ArialMT-3d" d="M 3381 2694 
L 356 2694 
L 356 3219 
L 3381 3219 
L 3381 2694 
z
M 3381 1303 
L 356 1303 
L 356 1828 
L 3381 1828 
L 3381 1303 
z
" transform="scale(0.015625)"/>
       <path id="ArialMT-37" d="M 303 3981 
L 303 4522 
L 3269 4522 
L 3269 4084 
Q 2831 3619 2401 2847 
Q 1972 2075 1738 1259 
Q 1569 684 1522 0 
L 944 0 
Q 953 541 1156 1306 
Q 1359 2072 1739 2783 
Q 2119 3494 2547 3981 
L 303 3981 
z
" transform="scale(0.015625)"/>
       <path id="ArialMT-5b" d="M 434 -1272 
L 434 4581 
L 1675 4581 
L 1675 4116 
L 997 4116 
L 997 -806 
L 1675 -806 
L 1675 -1272 
L 434 -1272 
z
" transform="scale(0.015625)"/>
       <path id="ArialMT-2d" d="M 203 1375 
L 203 1941 
L 1931 1941 
L 1931 1375 
L 203 1375 
z
" transform="scale(0.015625)"/>
       <path id="ArialMT-33" d="M 269 1209 
L 831 1284 
Q 928 806 1161 595 
Q 1394 384 1728 384 
Q 2125 384 2398 659 
Q 2672 934 2672 1341 
Q 2672 1728 2419 1979 
Q 2166 2231 1775 2231 
Q 1616 2231 1378 2169 
L 1441 2663 
Q 1497 2656 1531 2656 
Q 1891 2656 2178 2843 
Q 2466 3031 2466 3422 
Q 2466 3731 2256 3934 
Q 2047 4138 1716 4138 
Q 1388 4138 1169 3931 
Q 950 3725 888 3313 
L 325 3413 
Q 428 3978 793 4289 
Q 1159 4600 1703 4600 
Q 2078 4600 2393 4439 
Q 2709 4278 2876 4000 
Q 3044 3722 3044 3409 
Q 3044 3113 2884 2869 
Q 2725 2625 2413 2481 
Q 2819 2388 3044 2092 
Q 3269 1797 3269 1353 
Q 3269 753 2831 336 
Q 2394 -81 1725 -81 
Q 1122 -81 723 278 
Q 325 638 269 1209 
z
" transform="scale(0.015625)"/>
       <path id="ArialMT-5d" d="M 1363 -1272 
L 122 -1272 
L 122 -806 
L 800 -806 
L 800 4116 
L 122 4116 
L 122 4581 
L 1363 4581 
L 1363 -1272 
z
" transform="scale(0.015625)"/>
       <path id="ArialMT-29" d="M 791 -1347 
L 388 -1347 
Q 1322 153 1322 1656 
Q 1322 2244 1188 2822 
Q 1081 3291 891 3722 
Q 769 4003 388 4659 
L 791 4659 
Q 1378 3875 1659 3084 
Q 1900 2403 1900 1659 
Q 1900 816 1576 28 
Q 1253 -759 791 -1347 
z
" transform="scale(0.015625)"/>
      </defs>
      <use xlink:href="#ArialMT-58"/>
      <use xlink:href="#ArialMT-47" transform="translate(66.699219 0)"/>
      <use xlink:href="#ArialMT-42" transform="translate(144.482422 0)"/>
      <use xlink:href="#ArialMT-6f" transform="translate(211.181641 0)"/>
      <use xlink:href="#ArialMT-6f" transform="translate(266.796875 0)"/>
      <use xlink:href="#ArialMT-73" transform="translate(322.412109 0)"/>
      <use xlink:href="#ArialMT-74" transform="translate(372.412109 0)"/>
      <use xlink:href="#ArialMT-20" transform="translate(400.195312 0)"/>
      <use xlink:href="#ArialMT-28" transform="translate(427.978516 0)"/>
      <use xlink:href="#ArialMT-41" transform="translate(461.279297 0)"/>
      <use xlink:href="#ArialMT-55" transform="translate(527.978516 0)"/>
      <use xlink:href="#ArialMT-43" transform="translate(600.195312 0)"/>
      <use xlink:href="#ArialMT-20" transform="translate(672.412109 0)"/>
      <use xlink:href="#ArialMT-3d" transform="translate(700.195312 0)"/>
      <use xlink:href="#ArialMT-20" transform="translate(758.59375 0)"/>
      <use xlink:href="#ArialMT-30" transform="translate(786.376953 0)"/>
      <use xlink:href="#ArialMT-2e" transform="translate(841.992188 0)"/>
      <use xlink:href="#ArialMT-37" transform="translate(869.775391 0)"/>
      <use xlink:href="#ArialMT-32" transform="translate(925.390625 0)"/>
      <use xlink:href="#ArialMT-31" transform="translate(981.005859 0)"/>
      <use xlink:href="#ArialMT-20" transform="translate(1036.621094 0)"/>
      <use xlink:href="#ArialMT-5b" transform="translate(1064.404297 0)"/>
      <use xlink:href="#ArialMT-30" transform="translate(1092.1875 0)"/>
      <use xlink:href="#ArialMT-2e" transform="translate(1147.802734 0)"/>
      <use xlink:href="#ArialMT-36" transform="translate(1175.585938 0)"/>
      <use xlink:href="#ArialMT-39" transform="translate(1231.201172 0)"/>
      <use xlink:href="#ArialMT-39" transform="translate(1286.816406 0)"/>
      <use xlink:href="#ArialMT-2d" transform="translate(1342.431641 0)"/>
      <use xlink:href="#ArialMT-30" transform="translate(1375.732422 0)"/>
      <use xlink:href="#ArialMT-2e" transform="translate(1431.347656 0)"/>
      <use xlink:href="#ArialMT-37" transform="translate(1459.130859 0)"/>
      <use xlink:href="#ArialMT-34" transform="translate(1514.746094 0)"/>
      <use xlink:href="#ArialMT-33" transform="translate(1570.361328 0)"/>
      <use xlink:href="#ArialMT-5d" transform="translate(1625.976562 0)"/>
      <use xlink:href="#ArialMT-29" transform="translate(1653.759766 0)"/>
     </g>
    </g>
    <g id="line2d_29">
     <path d="M 284.7595 497.75025 
L 296.7595 497.75025 
L 308.7595 497.75025 
" style="fill: none; stroke-dasharray: 5.55,2.4; stroke-dashoffset: 0; stroke: #000000; stroke-opacity: 0.4; stroke-width: 1.5"/>
    </g>
    <g id="text_18">
     <!-- Random Classifier -->
     <g style="fill: #262626" transform="translate(318.3595 501.95025) scale(0.12 -0.12)">
      <defs>
       <path id="ArialMT-52" d="M 503 0 
L 503 4581 
L 2534 4581 
Q 3147 4581 3465 4457 
Q 3784 4334 3975 4021 
Q 4166 3709 4166 3331 
Q 4166 2844 3850 2509 
Q 3534 2175 2875 2084 
Q 3116 1969 3241 1856 
Q 3506 1613 3744 1247 
L 4541 0 
L 3778 0 
L 3172 953 
Q 2906 1366 2734 1584 
Q 2563 1803 2427 1890 
Q 2291 1978 2150 2013 
Q 2047 2034 1813 2034 
L 1109 2034 
L 1109 0 
L 503 0 
z
M 1109 2559 
L 2413 2559 
Q 2828 2559 3062 2645 
Q 3297 2731 3419 2920 
Q 3541 3109 3541 3331 
Q 3541 3656 3305 3865 
Q 3069 4075 2559 4075 
L 1109 4075 
L 1109 2559 
z
" transform="scale(0.015625)"/>
       <path id="ArialMT-61" d="M 2588 409 
Q 2275 144 1986 34 
Q 1697 -75 1366 -75 
Q 819 -75 525 192 
Q 231 459 231 875 
Q 231 1119 342 1320 
Q 453 1522 633 1644 
Q 813 1766 1038 1828 
Q 1203 1872 1538 1913 
Q 2219 1994 2541 2106 
Q 2544 2222 2544 2253 
Q 2544 2597 2384 2738 
Q 2169 2928 1744 2928 
Q 1347 2928 1158 2789 
Q 969 2650 878 2297 
L 328 2372 
Q 403 2725 575 2942 
Q 747 3159 1072 3276 
Q 1397 3394 1825 3394 
Q 2250 3394 2515 3294 
Q 2781 3194 2906 3042 
Q 3031 2891 3081 2659 
Q 3109 2516 3109 2141 
L 3109 1391 
Q 3109 606 3145 398 
Q 3181 191 3288 0 
L 2700 0 
Q 2613 175 2588 409 
z
M 2541 1666 
Q 2234 1541 1622 1453 
Q 1275 1403 1131 1340 
Q 988 1278 909 1158 
Q 831 1038 831 891 
Q 831 666 1001 516 
Q 1172 366 1500 366 
Q 1825 366 2078 508 
Q 2331 650 2450 897 
Q 2541 1088 2541 1459 
L 2541 1666 
z
" transform="scale(0.015625)"/>
       <path id="ArialMT-6e" d="M 422 0 
L 422 3319 
L 928 3319 
L 928 2847 
Q 1294 3394 1984 3394 
Q 2284 3394 2536 3286 
Q 2788 3178 2913 3003 
Q 3038 2828 3088 2588 
Q 3119 2431 3119 2041 
L 3119 0 
L 2556 0 
L 2556 2019 
Q 2556 2363 2490 2533 
Q 2425 2703 2258 2804 
Q 2091 2906 1866 2906 
Q 1506 2906 1245 2678 
Q 984 2450 984 1813 
L 984 0 
L 422 0 
z
" transform="scale(0.015625)"/>
       <path id="ArialMT-64" d="M 2575 0 
L 2575 419 
Q 2259 -75 1647 -75 
Q 1250 -75 917 144 
Q 584 363 401 755 
Q 219 1147 219 1656 
Q 219 2153 384 2558 
Q 550 2963 881 3178 
Q 1213 3394 1622 3394 
Q 1922 3394 2156 3267 
Q 2391 3141 2538 2938 
L 2538 4581 
L 3097 4581 
L 3097 0 
L 2575 0 
z
M 797 1656 
Q 797 1019 1065 703 
Q 1334 388 1700 388 
Q 2069 388 2326 689 
Q 2584 991 2584 1609 
Q 2584 2291 2321 2609 
Q 2059 2928 1675 2928 
Q 1300 2928 1048 2622 
Q 797 2316 797 1656 
z
" transform="scale(0.015625)"/>
       <path id="ArialMT-6d" d="M 422 0 
L 422 3319 
L 925 3319 
L 925 2853 
Q 1081 3097 1340 3245 
Q 1600 3394 1931 3394 
Q 2300 3394 2536 3241 
Q 2772 3088 2869 2813 
Q 3263 3394 3894 3394 
Q 4388 3394 4653 3120 
Q 4919 2847 4919 2278 
L 4919 0 
L 4359 0 
L 4359 2091 
Q 4359 2428 4304 2576 
Q 4250 2725 4106 2815 
Q 3963 2906 3769 2906 
Q 3419 2906 3187 2673 
Q 2956 2441 2956 1928 
L 2956 0 
L 2394 0 
L 2394 2156 
Q 2394 2531 2256 2718 
Q 2119 2906 1806 2906 
Q 1569 2906 1367 2781 
Q 1166 2656 1075 2415 
Q 984 2175 984 1722 
L 984 0 
L 422 0 
z
" transform="scale(0.015625)"/>
       <path id="ArialMT-6c" d="M 409 0 
L 409 4581 
L 972 4581 
L 972 0 
L 409 0 
z
" transform="scale(0.015625)"/>
       <path id="ArialMT-69" d="M 425 3934 
L 425 4581 
L 988 4581 
L 988 3934 
L 425 3934 
z
M 425 0 
L 425 3319 
L 988 3319 
L 988 0 
L 425 0 
z
" transform="scale(0.015625)"/>
       <path id="ArialMT-66" d="M 556 0 
L 556 2881 
L 59 2881 
L 59 3319 
L 556 3319 
L 556 3672 
Q 556 4006 616 4169 
Q 697 4388 901 4523 
Q 1106 4659 1475 4659 
Q 1713 4659 2000 4603 
L 1916 4113 
Q 1741 4144 1584 4144 
Q 1328 4144 1222 4034 
Q 1116 3925 1116 3625 
L 1116 3319 
L 1763 3319 
L 1763 2881 
L 1116 2881 
L 1116 0 
L 556 0 
z
" transform="scale(0.015625)"/>
       <path id="ArialMT-65" d="M 2694 1069 
L 3275 997 
Q 3138 488 2766 206 
Q 2394 -75 1816 -75 
Q 1088 -75 661 373 
Q 234 822 234 1631 
Q 234 2469 665 2931 
Q 1097 3394 1784 3394 
Q 2450 3394 2872 2941 
Q 3294 2488 3294 1666 
Q 3294 1616 3291 1516 
L 816 1516 
Q 847 969 1125 678 
Q 1403 388 1819 388 
Q 2128 388 2347 550 
Q 2566 713 2694 1069 
z
M 847 1978 
L 2700 1978 
Q 2663 2397 2488 2606 
Q 2219 2931 1791 2931 
Q 1403 2931 1139 2672 
Q 875 2413 847 1978 
z
" transform="scale(0.015625)"/>
       <path id="ArialMT-72" d="M 416 0 
L 416 3319 
L 922 3319 
L 922 2816 
Q 1116 3169 1280 3281 
Q 1444 3394 1641 3394 
Q 1925 3394 2219 3213 
L 2025 2691 
Q 1819 2813 1613 2813 
Q 1428 2813 1281 2702 
Q 1134 2591 1072 2394 
Q 978 2094 978 1738 
L 978 0 
L 416 0 
z
" transform="scale(0.015625)"/>
      </defs>
      <use xlink:href="#ArialMT-52"/>
      <use xlink:href="#ArialMT-61" transform="translate(72.216797 0)"/>
      <use xlink:href="#ArialMT-6e" transform="translate(127.832031 0)"/>
      <use xlink:href="#ArialMT-64" transform="translate(183.447266 0)"/>
      <use xlink:href="#ArialMT-6f" transform="translate(239.0625 0)"/>
      <use xlink:href="#ArialMT-6d" transform="translate(294.677734 0)"/>
      <use xlink:href="#ArialMT-20" transform="translate(377.978516 0)"/>
      <use xlink:href="#ArialMT-43" transform="translate(405.761719 0)"/>
      <use xlink:href="#ArialMT-6c" transform="translate(477.978516 0)"/>
      <use xlink:href="#ArialMT-61" transform="translate(500.195312 0)"/>
      <use xlink:href="#ArialMT-73" transform="translate(555.810547 0)"/>
      <use xlink:href="#ArialMT-73" transform="translate(605.810547 0)"/>
      <use xlink:href="#ArialMT-69" transform="translate(655.810547 0)"/>
      <use xlink:href="#ArialMT-66" transform="translate(678.027344 0)"/>
      <use xlink:href="#ArialMT-69" transform="translate(705.810547 0)"/>
      <use xlink:href="#ArialMT-65" transform="translate(728.027344 0)"/>
      <use xlink:href="#ArialMT-72" transform="translate(783.642578 0)"/>
     </g>
    </g>
    <g id="line2d_30">
     <g>
      <use xlink:href="#m4b7a383ebf" x="296.7595" y="514.878375" style="fill: #0066cc; stroke: #ffffff; stroke-width: 2"/>
     </g>
    </g>
    <g id="text_19">
     <!-- Optimal (Youden) -->
     <g style="fill: #262626" transform="translate(318.3595 519.078375) scale(0.12 -0.12)">
      <defs>
       <path id="ArialMT-4f" d="M 309 2231 
Q 309 3372 921 4017 
Q 1534 4663 2503 4663 
Q 3138 4663 3647 4359 
Q 4156 4056 4423 3514 
Q 4691 2972 4691 2284 
Q 4691 1588 4409 1038 
Q 4128 488 3612 205 
Q 3097 -78 2500 -78 
Q 1853 -78 1343 234 
Q 834 547 571 1087 
Q 309 1628 309 2231 
z
M 934 2222 
Q 934 1394 1379 917 
Q 1825 441 2497 441 
Q 3181 441 3623 922 
Q 4066 1403 4066 2288 
Q 4066 2847 3877 3264 
Q 3688 3681 3323 3911 
Q 2959 4141 2506 4141 
Q 1863 4141 1398 3698 
Q 934 3256 934 2222 
z
" transform="scale(0.015625)"/>
       <path id="ArialMT-70" d="M 422 -1272 
L 422 3319 
L 934 3319 
L 934 2888 
Q 1116 3141 1344 3267 
Q 1572 3394 1897 3394 
Q 2322 3394 2647 3175 
Q 2972 2956 3137 2557 
Q 3303 2159 3303 1684 
Q 3303 1175 3120 767 
Q 2938 359 2589 142 
Q 2241 -75 1856 -75 
Q 1575 -75 1351 44 
Q 1128 163 984 344 
L 984 -1272 
L 422 -1272 
z
M 931 1641 
Q 931 1000 1190 694 
Q 1450 388 1819 388 
Q 2194 388 2461 705 
Q 2728 1022 2728 1688 
Q 2728 2322 2467 2637 
Q 2206 2953 1844 2953 
Q 1484 2953 1207 2617 
Q 931 2281 931 1641 
z
" transform="scale(0.015625)"/>
       <path id="ArialMT-59" d="M 1784 0 
L 1784 1941 
L 19 4581 
L 756 4581 
L 1659 3200 
Q 1909 2813 2125 2425 
Q 2331 2784 2625 3234 
L 3513 4581 
L 4219 4581 
L 2391 1941 
L 2391 0 
L 1784 0 
z
" transform="scale(0.015625)"/>
       <path id="ArialMT-75" d="M 2597 0 
L 2597 488 
Q 2209 -75 1544 -75 
Q 1250 -75 995 37 
Q 741 150 617 320 
Q 494 491 444 738 
Q 409 903 409 1263 
L 409 3319 
L 972 3319 
L 972 1478 
Q 972 1038 1006 884 
Q 1059 663 1231 536 
Q 1403 409 1656 409 
Q 1909 409 2131 539 
Q 2353 669 2445 892 
Q 2538 1116 2538 1541 
L 2538 3319 
L 3100 3319 
L 3100 0 
L 2597 0 
z
" transform="scale(0.015625)"/>
      </defs>
      <use xlink:href="#ArialMT-4f"/>
      <use xlink:href="#ArialMT-70" transform="translate(77.783203 0)"/>
      <use xlink:href="#ArialMT-74" transform="translate(133.398438 0)"/>
      <use xlink:href="#ArialMT-69" transform="translate(161.181641 0)"/>
      <use xlink:href="#ArialMT-6d" transform="translate(183.398438 0)"/>
      <use xlink:href="#ArialMT-61" transform="translate(266.699219 0)"/>
      <use xlink:href="#ArialMT-6c" transform="translate(322.314453 0)"/>
      <use xlink:href="#ArialMT-20" transform="translate(344.53125 0)"/>
      <use xlink:href="#ArialMT-28" transform="translate(372.314453 0)"/>
      <use xlink:href="#ArialMT-59" transform="translate(405.615234 0)"/>
      <use xlink:href="#ArialMT-6f" transform="translate(463.189453 0)"/>
      <use xlink:href="#ArialMT-75" transform="translate(518.804688 0)"/>
      <use xlink:href="#ArialMT-64" transform="translate(574.419922 0)"/>
      <use xlink:href="#ArialMT-65" transform="translate(630.035156 0)"/>
      <use xlink:href="#ArialMT-6e" transform="translate(685.650391 0)"/>
      <use xlink:href="#ArialMT-29" transform="translate(741.265625 0)"/>
     </g>
    </g>
   </g>
  </g>
 </g>
 <defs>
  <clipPath id="p099f7ed67d">
   <rect x="41.38375" y="42.192" width="490.212" height="490.212"/>
  </clipPath>
 </defs>
</svg>
